<svg width="644" height="625" viewBox="0 0 644 625" fill="none" xmlns="http://www.w3.org/2000/svg">
<path d="M563.619 216.794C563.623 216.504 563.623 216.214 563.623 215.93C563.623 158.157 516.574 111.156 458.742 111.156C446.226 111.156 434.167 113.268 422.721 117.466C417.944 51.8907 362.979 0 296.098 0C231.706 0 177.709 49.4208 170.461 112.433C165.031 111.584 159.409 111.156 153.649 111.156C95.9349 111.156 48.9789 158.157 48.9789 215.93C48.9789 217.977 49.0526 220.049 49.2048 222.205C19.8469 233.665 0 262.267 0 294.532C0 337.24 34.7493 371.989 77.4579 371.989H137.431C152.505 475.01 204.175 536.397 283.975 600.199L307.406 618.937C311.634 622.315 316.701 624.009 321.768 624.009C326.831 624.009 331.898 622.315 336.126 618.937L359.557 600.199C439.357 536.397 491.027 475.01 506.101 371.989H565.813C608.699 371.989 643.586 337.24 643.586 294.532C643.581 250.919 607.771 215.37 563.619 216.794ZM346.997 584.492L323.565 603.229C322.505 604.083 321.027 604.078 319.966 603.229L296.535 584.492C207.666 513.437 155.338 445.873 152.927 314.408C187.362 311.256 217.329 292.165 233.834 264.766C240.259 254.116 244.711 242.248 246.495 229.516C246.702 228.072 247.777 226.614 249.417 226.614H394.164C395.006 226.614 395.683 227.007 396.187 227.562C396.643 228.102 396.94 228.789 397.036 229.462C403.41 275.024 442.926 309.951 490.565 314.403C490.263 330.572 489.195 346.108 487.383 360.691C487.378 360.726 487.396 360.755 487.393 360.789C474.555 462.798 424.771 522.309 346.997 584.492ZM565.813 351.877H508.585C508.647 351.244 508.664 350.566 508.723 349.933C510.024 335.649 510.805 320.737 510.805 304.813C510.805 302.024 509.661 299.501 507.819 297.679C506 295.857 503.486 294.733 500.709 294.733C460.24 294.733 422.454 266.975 416.991 226.624C416.304 221.886 414.261 217.722 411.362 214.393C407.139 209.517 401.018 206.473 394.149 206.473H249.383C237.814 206.473 228.225 214.967 226.58 226.683C226.089 230.194 225.264 233.601 224.289 236.945C214.484 270.506 181.279 294.733 142.768 294.733C137.215 294.733 132.712 299.235 132.712 304.789C132.712 313.347 132.938 321.739 133.341 329.968C133.525 333.882 133.876 337.589 134.148 341.389C134.404 344.88 134.563 348.47 134.892 351.877H77.4579C45.8364 351.877 20.112 326.153 20.112 294.532C20.112 268.424 37.607 245.567 62.6537 238.939C67.5836 237.637 70.7555 232.845 70.0337 227.793C69.3905 223.29 69.091 219.519 69.091 215.93C69.091 169.244 107.022 131.268 153.649 131.268C161.888 131.268 169.71 132.329 176.899 134.421C179.913 135.295 183.149 134.725 185.673 132.864C188.197 131.008 189.709 128.082 189.768 124.949C190.809 67.1416 238.511 20.112 296.098 20.112C355.015 20.112 402.948 67.9518 402.948 126.751C402.948 128.514 402.963 130.267 402.786 132.03C402.413 135.751 404.136 139.37 407.259 141.432C410.387 143.495 414.403 143.647 417.664 141.835C430.327 134.823 444.149 131.268 458.742 131.268C505.482 131.268 543.511 169.244 543.511 215.93C543.511 219.504 543.236 223.059 542.691 226.501C542.186 229.698 543.251 232.938 545.549 235.217C547.842 237.49 551.103 238.516 554.289 237.986C558.905 237.215 562.46 236.867 565.813 236.867C597.607 236.867 623.474 262.733 623.474 294.532C623.474 326.153 597.607 351.877 565.813 351.877Z" fill="#2D59A8"/>
<path d="M450.081 337.709C415.4 324.413 387.56 297.888 373.698 264.931C372.127 261.199 368.474 258.773 364.428 258.773H279.158C275.112 258.773 271.459 261.199 269.888 264.931C256.031 297.888 228.19 324.413 193.5 337.709C189.272 339.335 186.645 343.582 187.092 348.089C196.716 445.517 241.463 498.964 315.503 558.353C317.339 559.826 319.564 560.562 321.793 560.562C324.017 560.562 326.246 559.826 328.083 558.353C402.123 498.969 446.865 445.527 456.489 348.089C456.936 343.582 454.309 339.335 450.081 337.709ZM321.793 537.573C256.09 483.944 218.012 436.998 207.921 353.52C242.224 338.407 270.025 311.725 285.669 278.885H357.917C373.566 311.725 401.372 338.407 435.66 353.52C425.569 437.003 387.491 483.949 321.793 537.573Z" fill="#3293D0"/>
<path d="M321.743 358.918C302.039 358.918 286.012 374.989 286.012 394.743C286.012 410.931 296.898 424.479 311.687 428.853V450.488C311.687 456.036 316.19 460.544 321.743 460.544C327.296 460.544 331.799 456.036 331.799 450.488V428.863C346.638 424.493 357.568 410.941 357.568 394.743C357.568 374.989 341.497 358.918 321.743 358.918ZM321.743 410.362C313.131 410.362 306.124 403.35 306.124 394.743C306.124 386.076 313.131 379.03 321.743 379.03C330.405 379.03 337.456 386.076 337.456 394.743C337.456 403.35 330.405 410.362 321.743 410.362Z" fill="#3293D0"/>
</svg>
