<svg width="667" height="665" viewBox="0 0 667 665" fill="none" xmlns="http://www.w3.org/2000/svg">
<g clip-path="url(#clip0)">
<path d="M587.988 398.89C590.371 408.393 596.142 416.695 604.215 422.235C612.288 427.775 622.106 430.17 631.82 428.969C641.535 427.767 650.475 423.052 656.958 415.712C663.441 408.372 667.02 398.913 667.02 389.115C667.02 379.318 663.441 369.859 656.958 362.519C650.475 355.178 641.535 350.464 631.82 349.262C622.106 348.061 612.288 350.456 604.215 355.995C596.142 361.535 590.371 369.838 587.988 379.341H521.772C522.217 374.885 522.496 370.541 522.496 366.253V312.34C522.496 249.348 502.074 196.271 463.513 158.955C428.313 125.829 381.817 107.387 333.502 107.387C285.187 107.387 238.691 125.829 203.491 158.955C164.874 196.271 144.676 249.348 144.676 312.34V366.253C144.698 370.625 144.939 374.993 145.399 379.341H79.0161C76.6338 369.853 70.8689 361.565 62.8065 356.035C54.7442 350.506 44.9405 348.117 35.2411 349.318C25.5416 350.52 16.6155 355.228 10.1428 362.558C3.67023 369.888 0.0976562 379.333 0.0976563 389.115C0.0976562 398.898 3.67023 408.343 10.1428 415.673C16.6155 423.002 25.5416 427.711 35.2411 428.912C44.9405 430.114 54.7442 427.725 62.8065 422.195C70.8689 416.666 76.6338 408.377 79.0161 398.89H148.738C164.318 460.155 220.518 523.981 285.176 547.986C300.569 554.067 316.928 557.33 333.474 557.621C350.021 557.34 366.383 554.076 381.773 547.986C395.798 542.704 409.197 535.886 421.725 527.657C423.871 526.225 425.366 524.004 425.885 521.476C426.405 518.948 425.908 516.317 424.501 514.154C423.094 511.991 420.892 510.47 418.372 509.922C415.852 509.374 413.218 509.843 411.042 511.227C399.747 518.685 387.653 524.85 374.984 529.606C361.853 535.176 347.736 538.046 333.474 538.046C319.212 538.046 305.096 535.176 291.964 529.606C235.486 508.665 184.739 452.636 168.992 398.89H497.846C486.7 433.039 466.94 463.733 440.477 488.002C439.103 489.349 438.159 491.073 437.762 492.956C437.366 494.839 437.536 496.798 438.25 498.585C438.964 500.372 440.191 501.907 441.775 502.997C443.36 504.087 445.232 504.684 447.154 504.711C449.633 504.726 452.022 503.789 453.831 502.093C486.105 471.851 509.03 434.368 518.155 398.723L587.988 398.89ZM626.939 368.536C631.004 368.514 634.985 369.701 638.376 371.945C641.767 374.19 644.416 377.392 645.987 381.145C647.559 384.899 647.981 389.034 647.201 393.028C646.422 397.022 644.475 400.694 641.608 403.58C638.741 406.465 635.083 408.434 631.097 409.236C627.111 410.038 622.977 409.637 619.218 408.085C615.46 406.533 612.247 403.899 609.986 400.517C607.725 397.135 606.518 393.157 606.518 389.088C606.532 383.641 608.7 378.423 612.548 374.572C616.395 370.721 621.609 368.551 627.05 368.536H626.939ZM40.0655 409.639C36.007 409.628 32.0427 408.413 28.6735 406.148C25.3043 403.884 22.6812 400.67 21.1357 396.914C19.5902 393.158 19.1915 389.027 19.99 385.044C20.7885 381.061 22.7485 377.404 25.6222 374.536C28.4959 371.667 32.1545 369.715 36.1359 368.927C40.1173 368.138 44.2428 368.549 47.9914 370.106C51.74 371.663 54.9435 374.297 57.1972 377.676C59.4508 381.054 60.6537 385.025 60.6537 389.088C60.6537 391.791 60.1208 394.468 59.0854 396.965C58.0501 399.462 56.5327 401.73 54.6202 403.639C52.7077 405.548 50.4376 407.061 47.9401 408.091C45.4425 409.12 42.7666 409.646 40.0655 409.639ZM164.874 379.341C164.324 375 164.046 370.628 164.04 366.253V337.402C207.275 337.402 216.066 309.945 222.465 289.895C228.03 272.016 231.368 265.723 244.055 265.723H312.552C313.897 265.824 315.248 265.647 316.52 265.202C317.793 264.757 318.96 264.054 319.949 263.136C320.938 262.218 321.726 261.106 322.266 259.87C322.805 258.633 323.083 257.298 323.083 255.948C323.083 254.599 322.805 253.264 322.266 252.027C321.726 250.79 320.938 249.678 319.949 248.761C318.96 247.843 317.793 247.14 316.52 246.695C315.248 246.249 313.897 246.072 312.552 246.174H244.055C216.233 246.174 209.222 267.115 203.825 283.935C197.815 302.871 193.03 317.798 164.04 317.798V312.228C164.04 184.853 251.845 126.819 333.474 126.819C415.103 126.819 502.965 184.965 502.965 312.34V317.909C473.974 317.909 469.189 302.983 463.124 284.047C457.56 267.338 451.049 246.285 422.894 246.285H357.902C356.557 246.184 355.207 246.361 353.934 246.806C352.661 247.251 351.494 247.954 350.505 248.872C349.517 249.79 348.728 250.902 348.189 252.138C347.649 253.375 347.371 254.71 347.371 256.06C347.371 257.409 347.649 258.744 348.189 259.981C348.728 261.218 349.517 262.33 350.505 263.247C351.494 264.165 352.661 264.868 353.934 265.313C355.207 265.759 356.557 265.936 357.902 265.834H422.894C435.636 265.834 438.808 272.128 444.539 290.062C450.938 310.056 459.73 337.458 502.965 337.514V366.364C502.938 370.741 502.64 375.112 502.074 379.452L164.874 379.341Z" fill="#3293D0"/>
<path d="M11.1302 155.164C12.4089 155.157 13.6738 154.898 14.8524 154.401C16.031 153.905 17.1004 153.18 17.9995 152.27C18.8985 151.36 19.6097 150.281 20.0923 149.096C20.5749 147.911 20.8195 146.642 20.8122 145.362V30.6299C20.8122 27.6757 21.9846 24.8424 24.0717 22.7535C26.1587 20.6645 28.9894 19.4909 31.9409 19.4909H146.511C147.855 19.5926 149.206 19.4153 150.479 18.9701C151.752 18.525 152.919 17.8216 153.908 16.904C154.896 15.9864 155.685 14.8744 156.224 13.6376C156.764 12.4008 157.042 11.0659 157.042 9.71641C157.042 8.36693 156.764 7.03199 156.224 5.79519C155.685 4.55839 154.896 3.44638 153.908 2.5288C152.919 1.61121 151.752 0.907827 150.479 0.462692C149.206 0.0175577 147.855 -0.159737 146.511 -0.0580891H31.9409C23.8094 -0.0580891 16.011 3.1751 10.2612 8.93022C4.51145 14.6853 1.28125 22.491 1.28125 30.6299V145.362C1.28123 146.654 1.53637 147.933 2.03201 149.126C2.52764 150.319 3.25399 151.402 4.16928 152.313C5.08457 153.224 6.17075 153.945 7.36536 154.434C8.55996 154.923 9.83942 155.172 11.1302 155.164Z" fill="#2D59A8"/>
<path d="M520.437 19.5534H635.063C638.015 19.5534 640.845 20.727 642.932 22.816C645.019 24.9049 646.192 27.7382 646.192 30.6924V145.369C646.09 146.714 646.267 148.067 646.712 149.34C647.157 150.614 647.86 151.783 648.776 152.772C649.693 153.762 650.804 154.551 652.04 155.091C653.275 155.631 654.609 155.909 655.957 155.909C657.306 155.909 658.639 155.631 659.875 155.091C661.111 154.551 662.222 153.762 663.138 152.772C664.055 151.783 664.758 150.614 665.202 149.34C665.647 148.067 665.824 146.714 665.723 145.369V30.6367C665.708 22.5171 662.479 14.7342 656.743 8.99267C651.007 3.25119 643.231 0.0191338 635.119 0.00441091H520.437C519.093 -0.0972375 517.742 0.0800577 516.469 0.525192C515.196 0.970327 514.029 1.67371 513.041 2.59129C512.052 3.50888 511.263 4.62089 510.724 5.85769C510.185 7.09449 509.906 8.42943 509.906 9.77891C509.906 11.1284 510.185 12.4633 510.724 13.7001C511.263 14.9369 512.052 16.0489 513.041 16.9665C514.029 17.8841 515.196 18.5875 516.469 19.0326C517.742 19.4778 519.093 19.6551 520.437 19.5534Z" fill="#2D59A8"/>
<path d="M146.512 645.446H31.9414C28.9898 645.446 26.1592 644.272 24.0722 642.183C21.9851 640.094 20.8126 637.261 20.8126 634.307V519.631C20.9142 518.285 20.7371 516.933 20.2923 515.659C19.8476 514.385 19.1449 513.217 18.2281 512.227C17.3114 511.238 16.2004 510.448 14.9648 509.908C13.7291 509.368 12.3954 509.09 11.0472 509.09C9.69895 509.09 8.36525 509.368 7.12959 509.908C5.89394 510.448 4.78295 511.238 3.86622 512.227C2.94949 513.217 2.24675 514.385 1.80203 515.659C1.35731 516.933 1.18017 518.285 1.28173 519.631V634.362C1.29647 642.492 4.53318 650.283 10.2814 656.026C16.0296 661.769 23.8196 664.995 31.9414 664.995H146.512C147.856 665.096 149.207 664.919 150.48 664.474C151.752 664.029 152.92 663.326 153.908 662.408C154.897 661.49 155.685 660.378 156.225 659.142C156.764 657.905 157.043 656.57 157.043 655.22C157.043 653.871 156.764 652.536 156.225 651.299C155.685 650.062 154.897 648.95 153.908 648.033C152.92 647.115 151.752 646.412 150.48 645.967C149.207 645.521 147.856 645.344 146.512 645.446Z" fill="#2D59A8"/>
<path d="M655.874 509.828C654.59 509.828 653.32 510.082 652.134 510.575C650.949 511.069 649.873 511.792 648.968 512.702C648.064 513.613 647.347 514.695 646.861 515.883C646.375 517.072 646.129 518.346 646.136 519.63V634.362C646.136 637.317 644.964 640.15 642.877 642.239C640.79 644.328 637.959 645.501 635.007 645.501H520.437C519.093 645.4 517.742 645.577 516.469 646.022C515.196 646.467 514.029 647.171 513.041 648.088C512.052 649.006 511.263 650.118 510.724 651.355C510.185 652.592 509.906 653.926 509.906 655.276C509.906 656.625 510.185 657.96 510.724 659.197C511.263 660.434 512.052 661.546 513.041 662.464C514.029 663.381 515.196 664.085 516.469 664.53C517.742 664.975 519.093 665.152 520.437 665.05H635.063C643.175 665.036 650.951 661.804 656.687 656.062C662.423 650.321 665.652 642.538 665.667 634.418V519.63C665.667 517.031 664.635 514.537 662.799 512.699C660.962 510.861 658.471 509.828 655.874 509.828Z" fill="#2D59A8"/>
</g>
<defs>
<clipPath id="clip0">
<rect width="667" height="665" fill="white"/>
</clipPath>
</defs>
</svg>
