<svg id="Group_893" data-name="Group 893" xmlns="http://www.w3.org/2000/svg" width="212.577" height="223.207" viewBox="0 0 212.577 223.207">
  <path id="Path_1408" data-name="Path 1408" d="M714.35,1061.021l11.833-5.624,8.329,3.449,4.39,12.345a3.534,3.534,0,0,0,3.336,2.355h15.44a3.544,3.544,0,0,0,3.338-2.355l4.388-12.345,8.331-3.449,11.831,5.624a3.541,3.541,0,0,0,4.026-.694l10.92-10.915a3.551,3.551,0,0,0,.694-4.028l-5.624-11.831,3.447-8.329,12.345-4.39a3.547,3.547,0,0,0,2.357-3.34v-15.44a3.544,3.544,0,0,0-2.357-3.338l-12.345-4.39L795.582,986l5.624-11.833a3.546,3.546,0,0,0-.694-4.028L789.594,959.22a3.547,3.547,0,0,0-4.028-.695l-11.828,5.622-8.331-3.447-4.39-12.345A3.544,3.544,0,0,0,757.678,946h-15.44a3.54,3.54,0,0,0-3.338,2.354L734.51,960.7l-8.329,3.447-11.831-5.622a3.543,3.543,0,0,0-4.03.695L699.4,970.135a3.546,3.546,0,0,0-.694,4.03L704.332,986l-3.447,8.329-12.346,4.388a3.542,3.542,0,0,0-2.354,3.338v15.44a3.542,3.542,0,0,0,2.354,3.338l12.346,4.39,3.447,8.329-5.624,11.833a3.548,3.548,0,0,0,.694,4.028l10.918,10.915a3.546,3.546,0,0,0,4.03.694Zm-2.867-28.728-4.656-11.239a3.543,3.543,0,0,0-2.086-1.981l-11.471-4.08v-10.44l11.471-4.08a3.546,3.546,0,0,0,2.083-1.981l4.659-11.239a3.542,3.542,0,0,0-.075-2.878l-5.223-11L713.563,966l11,5.228a3.54,3.54,0,0,0,2.878.071l11.237-4.654a3.537,3.537,0,0,0,1.981-2.085l4.08-11.471h10.44l4.08,11.471a3.55,3.55,0,0,0,1.981,2.085l11.237,4.657a3.546,3.546,0,0,0,2.88-.073l11-5.225,7.384,7.382-5.228,11a3.541,3.541,0,0,0-.071,2.878l4.654,11.239a3.529,3.529,0,0,0,2.083,1.979l11.471,4.08v10.44l-11.471,4.08a3.545,3.545,0,0,0-2.086,1.981l-4.656,11.239a3.541,3.541,0,0,0,.073,2.878l5.226,11-7.382,7.384-11-5.228a3.547,3.547,0,0,0-2.88-.071l-11.237,4.654a3.53,3.53,0,0,0-1.979,2.083l-4.08,11.471h-10.44l-4.08-11.471a3.548,3.548,0,0,0-1.983-2.086l-11.237-4.656a3.542,3.542,0,0,0-2.878.073l-11,5.226-7.38-7.379,5.226-11a3.544,3.544,0,0,0,.075-2.875Zm0,0" transform="translate(-686.185 -946)" fill="#2d59a8"/>
  <path id="Path_1409" data-name="Path 1409" d="M732.075,1023.779a31.887,31.887,0,1,0-31.886-31.888,31.889,31.889,0,0,0,31.886,31.888Zm0-56.688a24.8,24.8,0,1,1-24.8,24.8,24.805,24.805,0,0,1,24.8-24.8Zm0,0" transform="translate(-668.303 -928.118)" fill="#3293d0"/>
  <path id="Path_1410" data-name="Path 1410" d="M804.254,1048.979l-4.656,11.239a3.541,3.541,0,0,0,.073,2.878l5.226,11-7.382,7.384-11-5.228a3.54,3.54,0,0,0-2.878-.071l-11.232,4.65a3.538,3.538,0,0,0-1.983,2.088l-4.083,11.471H755.9l-4.08-11.471a3.543,3.543,0,0,0-1.981-2.086l-11.239-4.654a3.545,3.545,0,0,0-2.88.071l-11,5.228-7.382-7.384,5.226-11a3.534,3.534,0,0,0,.073-2.878l-4.654-11.239a3.535,3.535,0,0,0-2.083-1.979l-11.471-4.078v-10.442l11.471-4.08a3.535,3.535,0,0,0,2.088-1.981l4.652-11.239a3.532,3.532,0,0,0-.071-2.878l-6.3-13.254-6.4,3.044,5.626,11.833-3.452,8.329-12.341,4.39a3.542,3.542,0,0,0-2.357,3.338v15.44a3.544,3.544,0,0,0,2.357,3.338l12.341,4.388,3.452,8.331-5.626,11.833a3.539,3.539,0,0,0,.7,4.023l10.918,10.918a3.543,3.543,0,0,0,4.026.695l11.833-5.624,8.324,3.448,4.39,12.345a3.549,3.549,0,0,0,3.34,2.357h15.442a3.541,3.541,0,0,0,3.336-2.357l4.39-12.345,8.329-3.448,11.831,5.624a3.547,3.547,0,0,0,4.028-.695l10.918-10.918a3.543,3.543,0,0,0,.7-4.025l-5.624-11.831,4.051-9.786Zm0,0" transform="translate(-671.924 -878.264)" fill="#2d59a8"/>
  <path id="Path_1411" data-name="Path 1411" d="M763.378,1005.317,752.46,994.4a3.547,3.547,0,0,0-4.028-.694l-13.254,6.3,3.042,6.4,11-5.223,7.384,7.38-5.225,11a3.541,3.541,0,0,0-.073,2.878l4.019,9.7,6.546-2.714-3.415-8.247,5.624-11.831a3.546,3.546,0,0,0-.7-4.032Zm0,0" transform="translate(-623.624 -885.521)" fill="#2d59a8"/>
  <path id="Path_1412" data-name="Path 1412" d="M743.244,1065.789a31.885,31.885,0,1,0-31.888-31.886,31.882,31.882,0,0,0,31.888,31.886Zm0-56.686a24.8,24.8,0,1,1-24.8,24.8,24.794,24.794,0,0,1,24.8-24.8Zm0,0" transform="translate(-654.043 -874.471)" fill="#3293d0"/>
  <path id="Path_1413" data-name="Path 1413" d="M827.107,1003.383l-12.346-4.39-3.447-8.329,5.622-11.833a3.539,3.539,0,0,0-.694-4.026l-10.916-10.918a3.546,3.546,0,0,0-4.028-.694l-11.831,5.624-8.329-3.449-4.39-12.346a3.545,3.545,0,0,0-3.34-2.354h-15.44a3.542,3.542,0,0,0-3.338,2.354l-4.39,12.346-9.784,4.053,2.712,6.546,11.239-4.654a3.554,3.554,0,0,0,1.981-2.088l4.078-11.471h10.442l4.08,11.471a3.551,3.551,0,0,0,1.981,2.086l11.239,4.656a3.551,3.551,0,0,0,2.878-.073l11-5.226,7.382,7.382-5.226,11a3.532,3.532,0,0,0-.073,2.878l4.656,11.239a3.532,3.532,0,0,0,2.081,1.979l11.471,4.078v10.442l-11.471,4.08a3.542,3.542,0,0,0-2.083,1.983l-4.659,11.237a3.542,3.542,0,0,0,.075,2.878l5.223,11-9.146,9.151,5.011,5.009,10.916-10.916a3.546,3.546,0,0,0,.694-4.028l-5.622-11.831,3.447-8.329,12.346-4.39a3.545,3.545,0,0,0,2.354-3.34v-15.44a3.544,3.544,0,0,0-2.354-3.338Zm0,0" transform="translate(-616.885 -940.039)" fill="#2d59a8"/>
  <path id="Path_1414" data-name="Path 1414" d="M768.12,1021.36a24.713,24.713,0,0,1-23-15.5l-6.569,2.657a31.887,31.887,0,1,0,13.623-39.575l3.547,6.132a24.8,24.8,0,1,1,12.4,46.288Zm0,0" transform="translate(-619.316 -922.157)" fill="#3293d0"/>
  <path id="Path_1415" data-name="Path 1415" d="M799.673,1019.037H787.829v-14.172a10.629,10.629,0,0,0-21.257,0v30.42l-2.38-2.382a11.06,11.06,0,0,0-15.64,15.642l18.02,18.017v5.617h-3.543a3.544,3.544,0,0,0-3.543,3.543v31.888h7.086v-28.345h42.515v28.345h7.086v-31.888a3.544,3.544,0,0,0-3.543-3.543h-3.543v-5.617l7.263-7.263a23.585,23.585,0,0,0-16.676-40.263Zm11.667,35.251-8.3,8.3a3.543,3.543,0,0,0-1.038,2.5v7.086H773.657v-7.086a3.543,3.543,0,0,0-1.038-2.5l-19.056-19.058a3.971,3.971,0,1,1,5.617-5.615l8.429,8.425a3.541,3.541,0,0,0,6.047-2.5v-38.972a3.543,3.543,0,1,1,7.086,0v17.714a3.544,3.544,0,0,0,3.543,3.543h15.387a16.5,16.5,0,0,1,11.667,28.165Zm0,0" transform="translate(-610.681 -884.405)" fill="#2d59a8"/>
  <rect id="Rectangle_465" data-name="Rectangle 465" width="7.086" height="7.086" transform="translate(184.233 201.948)" fill="#3293d0"/>
</svg>
