<svg width="546" height="546" viewBox="0 0 546 546" fill="none" xmlns="http://www.w3.org/2000/svg">
<g filter="url(#filter0_d)">
<circle cx="273" cy="273" r="223" fill="white"/>
<circle cx="273" cy="273" r="222.5" stroke="#EEEEEE"/>
</g>
<path d="M351.863 394.074L326.94 327.129H308.491C308.491 327.452 308.491 327.452 308.491 327.776L310.756 333.92H235.664L237.929 327.776C237.929 327.452 237.929 327.452 237.929 327.129H219.48L194.557 394.074C192.938 398.602 195.204 403.453 199.735 405.394C200.706 405.717 201.677 406.04 202.648 406.04C206.209 406.04 209.446 403.777 210.74 400.542L229.19 351.384H264.471V402.483C264.471 407.334 268.355 411.215 273.21 411.215C278.065 411.215 281.949 407.334 281.949 402.483V351.061H317.23L335.68 400.219C336.974 403.777 340.211 405.717 343.771 405.717C344.743 405.717 345.714 405.394 346.685 405.07C351.216 403.453 353.482 398.602 351.863 394.074Z" fill="#2D59A8"/>
<path d="M281.945 139.553V133.732C281.945 128.881 278.061 125 273.206 125C268.351 125 264.467 128.881 264.467 133.732V139.553C257.022 140.524 250.549 145.051 246.988 151.843H264.467H281.945H299.424C295.863 145.051 289.39 140.524 281.945 139.553Z" fill="#2D59A8"/>
<path d="M273.208 193.887C247.961 193.887 227.246 214.261 227.246 239.811C227.246 265.036 247.638 285.735 273.208 285.735C298.455 285.735 319.17 265.36 319.17 239.811C319.17 214.261 298.455 193.887 273.208 193.887ZM301.692 246.602L262.527 268.271C255.73 271.828 250.227 269.888 250.227 263.743V239.811V215.878C250.227 209.41 255.73 207.47 262.527 211.351L301.692 233.666C308.489 236.9 308.489 242.721 301.692 246.602Z" fill="#3293D0"/>
<path d="M385.521 161.863H160.889C152.474 161.863 146 168.655 146 176.74V301.899C146 310.308 152.797 316.776 160.889 316.776H385.844C394.26 316.776 400.733 309.984 400.733 301.899V176.74C400.733 168.331 393.936 161.863 385.521 161.863ZM273.205 295.754C242.132 295.754 216.561 270.205 216.561 239.158C216.561 208.111 242.132 182.561 273.205 182.561C304.278 182.561 329.848 208.111 329.848 239.158C329.848 270.528 304.278 295.754 273.205 295.754Z" fill="#2D59A8"/>
<defs>
<filter id="filter0_d" x="0" y="0" width="546" height="546" filterUnits="userSpaceOnUse" color-interpolation-filters="sRGB">
<feFlood flood-opacity="0" result="BackgroundImageFix"/>
<feColorMatrix in="SourceAlpha" type="matrix" values="0 0 0 0 0 0 0 0 0 0 0 0 0 0 0 0 0 0 127 0"/>
<feOffset/>
<feGaussianBlur stdDeviation="25"/>
<feColorMatrix type="matrix" values="0 0 0 0 0 0 0 0 0 0 0 0 0 0 0 0 0 0 0.15 0"/>
<feBlend mode="normal" in2="BackgroundImageFix" result="effect1_dropShadow"/>
<feBlend mode="normal" in="SourceGraphic" in2="effect1_dropShadow" result="shape"/>
</filter>
</defs>
</svg>
