<svg id="Group_889" data-name="Group 889" xmlns="http://www.w3.org/2000/svg" width="269.82" height="229.51" viewBox="0 0 269.82 229.51">
  <path id="Path_1383" data-name="Path 1383" d="M431.978,1070.13l-80.308-46.378c-4.244-2.414-7.9,3.92-3.689,6.393l77.114,44.52-23.672,41.008L377.567,1101.9l-7.194-4.157-81.446-47.021-60.137-34.718,17.086-29.591a13.2,13.2,0,0,1,18-4.821L290.2,996.8a3.689,3.689,0,1,0,3.689-6.39l-26.329-15.2a20.578,20.578,0,0,0-28.076,7.522l-18.929,32.785-12.6,21.823a20.587,20.587,0,0,0,7.525,28.079l56.376,32.544L263.09,1112.9a13.241,13.241,0,0,1-11.367,6.514H218.808v-25.085a3.689,3.689,0,0,0-3.689-3.689H195.091v-4.762a16.357,16.357,0,0,0-16.335-16.338H167.689a3.691,3.691,0,0,0-3.689,3.689v125.042a3.691,3.691,0,0,0,3.689,3.689h11.068a16.355,16.355,0,0,0,16.335-16.338V1173.91h20.027a3.691,3.691,0,0,0,3.689-3.689V1152.09h32.916c4.918,0,4.918-7.378,0-7.378H218.808V1126.8h32.916a20.641,20.641,0,0,0,17.729-10.157l8.8-14.991,15.518,8.959-8.853,15.1a38.386,38.386,0,0,1-5.729,7.462c-3.452,3.505,1.806,8.682,5.258,5.177a45.725,45.725,0,0,0,6.836-8.906l8.878-15.146,30.9,17.841a20.417,20.417,0,0,0,10.241,2.763,20.693,20.693,0,0,0,5.354-.708,20.426,20.426,0,0,0,8.919-5.036,30.744,30.744,0,0,0,12.9,2.853,31.342,31.342,0,0,0,8.086-1.069,30.826,30.826,0,0,0,16.8-11.383l7.553,4.36a3.69,3.69,0,0,0,5.043-1.354l27.359-47.389a3.684,3.684,0,0,0-1.341-5.042Z" transform="translate(-164 -972.455)" fill="#2d59a8"/>
  <path id="Path_1384" data-name="Path 1384" d="M182.7,1114.658a8.971,8.971,0,0,1-8.959,8.959h-7.378V1005.954h7.378a8.972,8.972,0,0,1,8.959,8.959Z" transform="translate(-158.988 -901.487)" fill="#fff"/>
  <rect id="Rectangle_453" data-name="Rectangle 453" width="16.337" height="68.51" transform="translate(31.093 125.567)" fill="#fff"/>
  <path id="Path_1385" data-name="Path 1385" d="M301.742,1091.822,186.164,1025.1a13.191,13.191,0,0,1-4.821-18l10.749-18.627,105.92,61.154,32.473,18.745-10.75,18.639-.016.021a13.215,13.215,0,0,1-.929,1.372v.012a13.19,13.19,0,0,1-17.049,3.409Z" transform="translate(-130.995 -938.529)" fill="#fff"/>
  <path id="Path_1386" data-name="Path 1386" d="M241.488,1033.1a23.516,23.516,0,0,1-14.623-.767l9.851-17.061,17.058,9.848a23.52,23.52,0,0,1-12.29,7.98Z" transform="translate(-30.821 -881.747)" fill="#fff"/>
  <path id="Path_1387" data-name="Path 1387" d="M212.195,984.411a3.69,3.69,0,0,1,5.039-1.347l9.009,5.2a3.689,3.689,0,1,1-3.689,6.39l-9.009-5.2a3.688,3.688,0,0,1-1.35-5.04Z" transform="translate(-62.95 -951.03)" fill="#2d59a8"/>
  <path id="Path_1388" data-name="Path 1388" d="M239.9,1029.939a14.187,14.187,0,1,0-6.34-16.846,14.109,14.109,0,0,0,6.34,16.846Z" transform="translate(-18.231 -906.758)" fill="#3293d0"/>
  <path id="Path_1389" data-name="Path 1389" d="M236.089,1009.231a6.83,6.83,0,0,1,5.9-3.4,6.818,6.818,0,1,1-5.9,3.408Z" transform="translate(-13.217 -901.739)" fill="#fff"/>
  <path id="Path_1390" data-name="Path 1390" d="M220.424,1017.216a3.688,3.688,0,0,1-5.039,1.35l-30.237-17.46a3.688,3.688,0,1,1,3.689-6.387l30.228,17.454a3.691,3.691,0,0,1,1.36,5.043Z" transform="translate(-123.152 -926.367)" fill="#3293d0"/>
  <path id="Path_1391" data-name="Path 1391" d="M195.192,1001.587" transform="translate(-97.92 -910.738)" fill="#2d59a8"/>
</svg>
