<svg width="54" height="45" viewBox="0 0 54 45" fill="none" xmlns="http://www.w3.org/2000/svg">
<g opacity="0.2">
<path d="M47.228 0H11.5509C7.79546 0 4.7228 3.07266 4.7228 6.82814V7.90926H1.70704C0.796616 7.90926 0 8.64898 0 9.6163V11.494C0 12.4045 0.739715 13.2011 1.70704 13.2011H4.7228V19.574H1.70704C0.796616 19.574 0 20.3137 0 21.281V23.1588C0 24.0692 0.739715 24.8658 1.70704 24.8658H4.7228V31.2387H1.70704C0.796616 31.2387 0 31.9785 0 32.9458V34.6528C0 35.5632 0.739715 36.3599 1.70704 36.3599H4.7228V37.3841C4.7228 41.1396 7.79546 44.2122 11.5509 44.2122H47.1711C50.9266 44.2122 53.9992 41.1396 53.9992 37.3841V6.88504C54.0561 3.07266 50.9835 0 47.228 0ZM50.699 37.3841C50.699 39.3187 49.1626 40.855 47.228 40.855H11.5509C9.6163 40.855 8.07997 39.3187 8.07997 37.3841V6.88504C8.07997 4.9504 9.6163 3.41407 11.5509 3.41407H47.1711C49.1057 3.41407 50.6421 4.9504 50.6421 6.88504V37.3841H50.699Z" fill="black"/>
<path d="M19.8587 16.5016L21.452 16.7861C22.8745 17.0706 24.1832 16.1033 24.4677 14.6807L25.1505 10.7546C25.3782 9.55964 24.4108 8.47852 23.2159 8.47852C18.6638 8.47852 14.4531 11.4374 14.4531 22.1348C14.4531 32.8322 18.6638 35.7911 23.2159 35.7911C24.4108 35.7911 25.3213 34.71 25.1505 33.515L24.4677 29.5889C24.2401 28.1663 22.8745 27.2559 21.452 27.4835L19.8587 27.768C19.5173 27.8249 19.1759 27.5973 19.0621 27.2559C18.2655 23.8418 18.2655 20.3709 19.0621 16.9568C19.1759 16.6723 19.5173 16.4447 19.8587 16.5016Z" fill="black"/>
<path d="M43.2455 12.0059H31.0117C30.1013 12.0059 29.3047 12.7456 29.3047 13.7129C29.3047 14.6802 30.0444 15.4199 31.0117 15.4199H43.2455C44.1559 15.4199 44.9525 14.6802 44.9525 13.7129C44.9525 12.7456 44.2128 12.0059 43.2455 12.0059Z" fill="black"/>
<path d="M43.2455 20.4277H31.0117C30.1013 20.4277 29.3047 21.1674 29.3047 22.1348C29.3047 23.1021 30.0444 23.8418 31.0117 23.8418H43.2455C44.1559 23.8418 44.9525 23.1021 44.9525 22.1348C44.9525 21.1674 44.2128 20.4277 43.2455 20.4277Z" fill="black"/>
<path d="M43.2455 28.8486H31.0117C30.1013 28.8486 29.3047 29.5884 29.3047 30.5557C29.3047 31.4661 30.0444 32.2627 31.0117 32.2627H43.2455C44.1559 32.2627 44.9525 31.523 44.9525 30.5557C44.9525 29.6453 44.2128 28.8486 43.2455 28.8486Z" fill="black"/>
</g>
</svg>
