<svg id="Group_891" data-name="Group 891" xmlns="http://www.w3.org/2000/svg" width="262.531" height="218.295" viewBox="0 0 262.531 218.295">
  <path id="Path_1398" data-name="Path 1398" d="M650.505,970H424.128A12.139,12.139,0,0,0,412,982.128v194.039a12.139,12.139,0,0,0,12.128,12.128H650.505a12.139,12.139,0,0,0,12.128-12.128V982.128A12.139,12.139,0,0,0,650.505,970Zm-226.378,8.086H650.505a4.047,4.047,0,0,1,4.045,4.042v36.384H420.086V982.128a4.045,4.045,0,0,1,4.042-4.042Zm60.636,48.508H654.55v48.511H484.764Zm-8.083,48.511H420.086v-48.511h56.594Zm-56.594,101.061v-92.978h56.594v97.019H424.128a4.045,4.045,0,0,1-4.042-4.042Zm230.419,4.042H484.764v-97.019H654.55v92.978a4.047,4.047,0,0,1-4.045,4.042Zm0,0" transform="translate(-412 -970)" fill="#2d59a8"/>
  <path id="Path_1399" data-name="Path 1399" d="M466.61,1019.08V986.741H426.185v32.339Zm-32.339-24.256h24.256V1011H434.271Zm0,0" transform="translate(-381.949 -934.534)" fill="#3293d0"/>
  <path id="Path_1400" data-name="Path 1400" d="M499.391,986.741a16.169,16.169,0,1,0,16.172,16.169,16.188,16.188,0,0,0-16.172-16.169Zm0,24.256a8.086,8.086,0,1,1,8.086-8.086,8.094,8.094,0,0,1-8.086,8.086Zm0,0" transform="translate(-261.117 -934.534)" fill="#3293d0"/>
  <path id="Path_1401" data-name="Path 1401" d="M483.836,986.741a16.169,16.169,0,1,0,16.169,16.169,16.188,16.188,0,0,0-16.169-16.169Zm0,24.256a8.086,8.086,0,1,1,8.083-8.086,8.094,8.094,0,0,1-8.083,8.086Zm0,0" transform="translate(-294.07 -934.534)" fill="#3293d0"/>
  <path id="Path_1402" data-name="Path 1402" d="M468.28,986.741a16.169,16.169,0,1,0,16.169,16.169,16.188,16.188,0,0,0-16.169-16.169Zm0,24.256a8.086,8.086,0,1,1,8.086-8.086A8.094,8.094,0,0,1,468.28,1011Zm0,0" transform="translate(-327.025 -934.534)" fill="#3293d0"/>
  <path id="Path_1403" data-name="Path 1403" d="M426.185,1007.481v24.256H466.61v-24.256Zm32.342,16.172H434.271v-8.086h24.256Zm0,0" transform="translate(-381.949 -890.597)" fill="#3293d0"/>
  <path id="Path_1404" data-name="Path 1404" d="M426.185,1044.7H466.61v-24.256H426.185Zm8.086-16.17h24.256v8.086H434.271Zm0,0" transform="translate(-381.949 -863.135)" fill="#3293d0"/>
  <path id="Path_1405" data-name="Path 1405" d="M511.607,1077.653H503.52v-72.764H479.265v72.764h-8.083v-56.595H446.926v64.681h88.933v-40.425H511.607Zm-48.511,0h-8.083v-48.509H463.1Zm24.256-64.681h8.083v64.681h-8.083ZM519.69,1053.4h8.086v24.256H519.69Zm0,0" transform="translate(-338.01 -896.088)" fill="#3293d0"/>
  <rect id="Rectangle_454" data-name="Rectangle 454" width="8.085" height="8.085" transform="translate(205.936 149.226)" fill="#2d59a8"/>
  <rect id="Rectangle_455" data-name="Rectangle 455" width="40.425" height="8.085" transform="translate(222.106 149.226)" fill="#2d59a8"/>
  <rect id="Rectangle_456" data-name="Rectangle 456" width="8.085" height="8.085" transform="translate(205.936 165.396)" fill="#2d59a8"/>
  <rect id="Rectangle_457" data-name="Rectangle 457" width="40.425" height="8.085" transform="translate(222.106 165.396)" fill="#2d59a8"/>
  <rect id="Rectangle_458" data-name="Rectangle 458" width="8.085" height="8.085" transform="translate(205.936 181.566)" fill="#2d59a8"/>
  <rect id="Rectangle_459" data-name="Rectangle 459" width="40.425" height="8.085" transform="translate(222.106 181.566)" fill="#2d59a8"/>
</svg>
