<svg width="585" height="643" viewBox="0 0 585 643" fill="none" xmlns="http://www.w3.org/2000/svg">
<path d="M34.966 615.378V605.573C34.966 547.574 34.966 489.575 34.966 431.576C34.6365 427.512 35.6152 423.448 37.759 419.979C39.9028 416.511 43.0992 413.82 46.8809 412.299C98.1596 386.448 149.438 360.652 200.438 334.299C215.638 326.332 226.328 334.801 225.326 349.732C224.213 367.505 225.326 385.334 225.326 404.611C235.237 399.596 244.423 395.195 253.165 390.236C254.557 389.456 255.002 385.891 254.891 383.662C252.404 336.528 249.787 289.412 247.04 242.315C246.595 234.57 246.094 226.826 245.593 218.469H166.642L163.859 269.448H201.997C205.496 269.352 208.996 269.539 212.465 270.005C215.627 270.431 218.518 272.019 220.576 274.459C222.634 276.899 223.712 280.018 223.6 283.209C223.821 286.438 222.785 289.626 220.709 292.108C218.634 294.59 215.68 296.173 212.465 296.525C206.755 297.185 201.005 297.427 195.261 297.249C184.515 297.249 173.713 297.249 161.854 297.249C161.753 305.092 161.214 312.922 160.24 320.705C159.67 325.296 157.406 329.509 153.892 332.516C149.526 334.561 144.54 334.841 139.973 333.296C137.401 332.18 135.287 330.219 133.981 327.736C132.675 325.254 132.255 322.4 132.791 319.646C133.793 300.815 134.906 282.039 135.964 263.208C137.022 244.376 137.913 226.102 139.194 207.493C140.14 193.676 144.149 190.277 158.235 190.277H254.278C267.418 190.277 271.761 194.233 272.54 207.605C274.823 247.217 276.883 286.83 279.055 326.443C279.945 342.433 280.836 358.423 281.839 375.528L293.364 369.956C316.581 358.145 340.133 346.891 362.904 334.299C377.046 326.443 388.683 333.853 387.792 349.788C386.734 367.561 387.792 385.389 387.792 404.332C390.854 402.939 393.36 401.881 395.643 400.711L524.981 334.968C526.317 334.299 527.598 333.519 528.989 332.906C540.626 327.335 550.314 333.408 550.314 346.445C550.314 425.076 550.314 503.671 550.314 582.228C550.314 592.313 544.746 598.553 536.506 598.441C528.266 598.33 522.976 592.09 522.976 581.727C522.976 513.124 522.976 444.577 522.976 376.085V367.171C519.636 368.731 517.075 369.845 514.569 371.071C470.733 393.356 426.952 415.642 383.227 437.928C376.879 441.159 370.421 442.664 365.243 437.092C362.41 433.705 360.784 429.471 360.622 425.058C360.176 406.282 360.622 387.451 360.622 367.282C357.281 368.786 354.664 369.901 352.159 371.182C308.322 393.468 264.541 415.754 220.816 438.039C214.469 441.271 207.955 442.831 202.888 437.204C199.963 433.585 198.319 429.098 198.211 424.445C197.71 405.892 198.211 387.339 198.211 367.728C195.706 368.675 193.702 369.288 191.864 370.179C150.255 390.831 108.924 411.612 67.8712 432.524C66.1377 433.103 64.6478 434.245 63.6388 435.77C62.6298 437.295 62.1597 439.113 62.3035 440.936C62.3035 497.654 62.3035 554.39 62.3035 611.144C62.3035 612.147 62.3035 613.15 62.6375 615.378H564.177C566.46 615.378 568.743 615.378 570.97 615.378C572.796 615.326 574.614 615.642 576.315 616.309C578.016 616.976 579.565 617.979 580.869 619.258C582.174 620.538 583.207 622.067 583.908 623.756C584.608 625.444 584.961 627.256 584.945 629.084C585.043 630.917 584.752 632.75 584.091 634.462C583.43 636.174 582.413 637.726 581.108 639.016C579.803 640.306 578.24 641.304 576.521 641.945C574.802 642.586 572.967 642.855 571.137 642.734C555.325 643.068 539.512 642.734 523.756 642.734H19.5434C17.2606 642.734 15.0335 642.734 12.7508 642.734C10.9931 642.677 9.26449 642.27 7.66652 641.535C6.06855 640.8 4.63347 639.753 3.44562 638.456C2.25777 637.158 1.34111 635.636 0.749518 633.979C0.157927 632.321 -0.096662 630.563 0.000713792 628.806C0.0390475 625.371 1.38548 622.081 3.76524 619.607C6.145 617.132 9.37871 615.66 12.8065 615.49C16.2584 615.155 19.8218 615.49 23.3294 615.49L34.966 615.378Z" fill="#2D59A8"/>
<path d="M389.743 84.4667C386.124 88.8681 383.785 94.2724 379.999 95.6095C375.174 97.0202 369.992 96.5216 365.523 94.2167C360.21 90.444 355.269 86.1717 350.769 81.4581C308.27 45.1524 253.798 25.9575 197.943 27.6051C142.088 29.2526 88.8411 51.6248 48.5532 90.3724C47.2726 91.5981 46.0477 92.8238 44.6558 93.9381C41.9332 96.4089 38.3446 97.7018 34.6729 97.5348C31.0013 97.3678 27.5447 95.7544 25.0574 93.0467C23.8269 91.7734 22.8699 90.2617 22.2451 88.6045C21.6204 86.9473 21.3411 85.1797 21.4246 83.4105C21.508 81.6412 21.9524 79.9078 22.7304 78.3169C23.5083 76.7259 24.6034 75.3111 25.9482 74.1595C38.0487 62.8952 50.8424 52.4003 64.2541 42.7366C112.375 10.5132 170.104 -4.17725 227.762 1.12787C285.42 6.43299 339.504 31.4112 380.946 71.8752C384.22 75.8228 387.162 80.0343 389.743 84.4667Z" fill="#3293D0"/>
<path d="M204.503 57.4405C255.726 57.1538 304.975 77.1872 341.469 113.155C344.304 115.189 346.264 118.221 346.956 121.642C347.648 125.063 347.02 128.619 345.2 131.596C343.75 134.296 341.371 136.377 338.503 137.453C335.636 138.529 332.476 138.527 329.61 137.446C326.172 136.018 323.078 133.871 320.535 131.151C292.052 104.144 255.033 87.9484 215.88 85.3642C176.727 82.7801 137.902 93.9702 106.122 116.999C99.5476 121.988 93.2295 127.306 87.1916 132.934C79.7308 139.508 71.4906 140.065 65.8672 134.215C60.2438 128.365 60.9119 119.896 68.0943 113.044C104.487 77.2785 153.495 57.3016 204.503 57.4405Z" fill="#3293D0"/>
<path d="M441.689 489.407C452.212 489.407 462.735 489.407 473.258 489.407C484.394 489.407 489.572 494.589 489.627 506.122C489.627 520.663 489.627 535.205 489.627 549.746C489.627 561.446 484.449 566.46 472.59 566.46C451.544 566.46 430.498 566.46 409.452 566.46C398.317 566.46 393.361 561.335 393.25 550.303C393.25 535.446 393.25 520.403 393.25 505.174C393.25 494.032 398.205 489.184 409.341 489.073C420.476 488.962 430.888 489.073 441.689 489.073V489.407ZM461.677 517.264H421.144V538.38H461.677V517.264Z" fill="#3293D0"/>
<path d="M144.259 489.395C154.782 489.395 165.305 489.395 175.828 489.395C186.351 489.395 191.752 494.465 191.807 505.608C191.807 520.465 191.807 535.508 191.807 550.736C191.807 561.322 186.685 566.671 176.218 566.727C154.392 566.727 132.623 566.727 110.797 566.727C108.717 566.938 106.616 566.682 104.648 565.977C102.68 565.271 100.894 564.135 99.4214 562.65C97.9485 561.166 96.8257 559.371 96.1352 557.396C95.4447 555.422 95.2038 553.318 95.4302 551.238C95.4302 535.916 95.4302 520.651 95.4302 505.329C95.4302 494.799 100.497 489.673 111.131 489.451C121.765 489.228 133.402 489.451 144.203 489.451L144.259 489.395ZM164.024 538.702V517.698H123.436V538.702H164.024Z" fill="#3293D0"/>
<path d="M292.754 489.403C303.5 489.403 314.301 489.403 325.047 489.403C335.792 489.403 340.636 494.974 340.692 505.281C340.692 520.603 340.692 535.924 340.692 551.19C340.938 553.276 340.711 555.391 340.029 557.377C339.346 559.364 338.225 561.171 336.748 562.664C335.272 564.158 333.478 565.299 331.501 566.004C329.523 566.708 327.412 566.958 325.325 566.734C303.277 566.957 281.229 566.957 259.181 566.734C257.167 566.891 255.143 566.604 253.252 565.893C251.362 565.182 249.65 564.064 248.238 562.619C246.825 561.174 245.747 559.437 245.079 557.529C244.411 555.622 244.169 553.591 244.37 551.58C244.37 536.054 244.37 520.51 244.37 504.947C244.113 502.866 244.331 500.754 245.007 498.769C245.683 496.784 246.799 494.978 248.273 493.488C249.747 491.997 251.539 490.86 253.515 490.162C255.491 489.464 257.599 489.224 259.682 489.458C270.817 489.458 281.953 489.458 292.754 489.458V489.403ZM312.909 517.26H272.265V538.208H312.909V517.26Z" fill="#3293D0"/>
<path d="M306.228 162.963C306.228 175.889 295.093 182.631 285.962 177.449C284.051 176.279 282.293 174.876 280.728 173.271C260.162 153.582 232.778 142.626 204.316 142.699C175.855 142.771 148.527 153.868 128.062 173.661C120.489 180.569 112.695 181.071 106.793 174.998C100.891 168.925 101.726 161.013 108.964 153.882C160.744 102.513 249.549 102.68 300.438 154.383C302.692 157.01 304.635 159.89 306.228 162.963Z" fill="#3293D0"/>
</svg>
