<svg width="354" height="339" viewBox="0 0 354 339" fill="none" xmlns="http://www.w3.org/2000/svg">
<path d="M117.603 233.001C106.803 234.6 94.8031 240.996 87.2031 250.59L48.0031 227.804C63.2031 205.019 88.8031 189.428 117.203 187.43V233.001H117.603ZM205.603 237.798L166.003 260.583C168.403 266.18 169.603 271.776 169.603 278.172C169.603 284.568 168.403 290.165 166.003 295.761L205.603 318.547C211.603 306.554 215.203 292.563 215.203 278.172C215.203 263.382 211.603 249.79 205.603 237.798ZM82.4031 260.583L42.8031 237.798C36.8031 249.79 33.2031 263.781 33.2031 278.172C33.2031 292.563 36.8031 306.554 42.8031 318.547L82.4031 295.761C80.0031 290.165 78.8031 284.568 78.8031 278.172C78.8031 271.776 80.4031 265.78 82.4031 260.583ZM154.003 242.995C154.803 241.795 155.203 240.196 156.003 238.997C156.003 238.597 156.403 238.198 156.403 237.798C158.003 234.2 159.603 230.602 161.203 227.404C161.203 227.005 161.603 227.005 161.603 226.605C162.403 225.006 162.803 223.807 163.603 222.208C163.603 221.808 164.003 221.408 164.003 221.408C164.803 219.809 165.603 217.81 166.403 216.212C167.203 214.613 167.603 213.014 168.403 211.814C168.403 211.415 168.803 211.015 168.803 211.015C169.603 209.416 170.003 208.217 170.403 207.017V206.618C171.203 205.019 171.603 203.819 172.003 202.22C172.003 202.22 172.003 202.22 172.003 201.821C174.403 195.824 176.403 191.027 177.203 188.229C175.203 190.628 172.403 194.625 168.403 199.822C168.403 199.822 168.403 199.822 168.003 200.222C167.203 201.421 166.403 202.62 165.203 203.819C164.403 205.019 163.603 206.218 162.403 207.417C162.003 207.817 162.003 208.217 161.603 208.217C160.803 209.416 160.003 210.615 159.203 211.814C159.203 212.214 158.803 212.214 158.803 212.614C157.603 214.213 156.803 215.412 155.603 217.011C155.603 217.411 155.203 217.411 155.203 217.811C154.403 219.01 153.603 220.209 152.803 221.408C152.403 221.808 152.003 222.208 152.003 222.607C149.603 225.805 147.603 228.604 145.203 231.802C144.803 232.201 144.803 232.601 144.403 232.601C143.603 233.8 142.803 235 142.003 236.199C141.603 235.399 141.603 235.799 141.203 236.199C127.603 254.587 115.603 271.776 114.003 274.175C110.803 279.771 112.803 286.567 118.003 289.765C123.603 292.963 130.403 290.964 133.603 285.768C135.203 283.369 144.003 264.581 153.203 243.794C153.603 243.394 153.603 242.995 154.003 242.995ZM175.603 203.02C170.803 215.012 163.603 231.002 156.803 246.193C158.003 247.392 159.203 248.991 160.403 250.59L199.603 227.804C193.203 218.21 184.803 209.816 175.603 203.02ZM165.603 197.024C154.803 191.427 142.003 188.229 129.603 187.43V233.001C132.403 233.401 135.203 233.8 137.603 234.6C147.603 221.408 158.003 207.417 165.603 197.024Z" fill="#3293D0"/>
<path d="M55.5977 136.255H31.5977V41.5147H55.5977V136.255ZM93.5976 25.125H69.5977V136.255H93.5976V25.125ZM131.598 75.0935H107.598V136.255H131.598V75.0935ZM169.598 56.3053H145.598V136.255H169.598V56.3053ZM207.598 41.5147H183.598V136.255H207.598V41.5147ZM245.598 75.0935H221.598V136.255H245.598V75.0935ZM283.598 100.677H259.598V136.255H283.598V100.677ZM321.598 88.2851H297.598V136.255H321.598V88.2851Z" fill="#2D59A8"/>
<path d="M329.594 186.227H261.594V205.814H329.594V186.227Z" fill="#3293D0"/>
<path d="M312.794 224.996H261.594V244.584H312.794V224.996Z" fill="#3293D0"/>
<path d="M297.994 262.176H261.594V281.763H297.994V262.176Z" fill="#2D59A8"/>
<path d="M312.794 298.953H261.594V318.541H312.794V298.953Z" fill="#2D59A8"/>
<path d="M7 334L354 334" stroke="#2D59A8" stroke-width="10"/>
<path d="M7 4L354 4" stroke="#2D59A8" stroke-width="8"/>
<path d="M7 162L354 162" stroke="#2D59A8" stroke-width="8"/>
<line x1="4" y1="339" x2="3.99999" y2="1.74846e-07" stroke="#2D59A8" stroke-width="8"/>
<line x1="350" y1="334" x2="350" y2="2" stroke="#2D59A8" stroke-width="8"/>
<line x1="239" y1="334" x2="239" y2="162" stroke="#2D59A8" stroke-width="8"/>
</svg>
