<svg width="64" height="64" viewBox="0 0 64 64" fill="none" xmlns="http://www.w3.org/2000/svg">
<mask id="mask0" mask-type="alpha" maskUnits="userSpaceOnUse" x="0" y="0" width="64" height="64">
<circle cx="32" cy="32" r="32" fill="#C4C4C4"/>
</mask>
<g mask="url(#mask0)">
<circle cx="32" cy="32" r="31" stroke="black" stroke-width="2"/>
<path d="M7.6559 21.593V27.0016C7.6559 27.2818 7.76728 27.5504 7.96554 27.7486C8.16379 27.9467 8.43268 28.0579 8.71305 28.0579H11.9479V44.8118C11.707 44.8517 11.4879 44.9753 11.3293 45.1608C11.1707 45.3464 11.0828 45.5819 11.0811 45.8259C11.0868 46.0688 11.1762 46.3023 11.3341 46.487C11.492 46.6717 11.7088 46.7964 11.9479 46.84V53.1782C11.707 53.218 11.4879 53.3416 11.3293 53.5272C11.1707 53.7127 11.0828 53.9483 11.0811 54.1923C11.0868 54.4352 11.1762 54.6686 11.3341 54.8534C11.492 55.0381 11.7088 55.1628 11.9479 55.2064V63.9742H10.0239C9.74354 63.9742 9.47465 64.0855 9.27639 64.2836C9.07814 64.4817 8.96677 64.7504 8.96677 65.0306C8.96677 65.3107 9.07814 65.5794 9.27639 65.7775C9.47465 65.9756 9.74354 66.0869 10.0239 66.0869H54.0434C54.3238 66.0869 54.5927 65.9756 54.7909 65.7775C54.9892 65.5794 55.1006 65.3107 55.1006 65.0306C55.1006 64.7504 54.9892 64.4817 54.7909 64.2836C54.5927 64.0855 54.3238 63.9742 54.0434 63.9742H52.1194V55.2909C52.3586 55.2473 52.5754 55.1226 52.7333 54.9379C52.8911 54.7531 52.9805 54.5197 52.9863 54.2768C52.9846 54.0328 52.8966 53.7972 52.738 53.6117C52.5794 53.4261 52.3603 53.3026 52.1194 53.2627V46.9246C52.3586 46.8809 52.5754 46.7562 52.7333 46.5715C52.8911 46.3868 52.9805 46.1533 52.9863 45.9104C52.9846 45.6664 52.8966 45.4309 52.738 45.2453C52.5794 45.0598 52.3603 44.9362 52.1194 44.8963V28.0579H55.2908C55.5712 28.0579 55.8401 27.9467 56.0384 27.7486C56.2366 27.5504 56.348 27.2818 56.348 27.0016V21.593C56.348 21.3129 56.2366 21.0442 56.0384 20.8461C55.8401 20.648 55.5712 20.5367 55.2908 20.5367H50.872V14.1985C50.872 13.9183 50.7606 13.6496 50.5624 13.4515C50.3641 13.2534 50.0952 13.1421 49.8148 13.1421H41.3577V10.0998C41.3577 9.81965 41.2463 9.55096 41.0481 9.35286C40.8498 9.15475 40.5809 9.04346 40.3005 9.04346H23.8514C23.571 9.04346 23.3021 9.15475 23.1038 9.35286C22.9056 9.55096 22.7942 9.81965 22.7942 10.0998V13.0576H14.3371C14.0567 13.0576 13.7878 13.1689 13.5895 13.367C13.3913 13.5651 13.2799 13.8338 13.2799 14.114V20.4522H8.77648C8.625 20.4425 8.47323 20.4656 8.33148 20.5199C8.18974 20.5741 8.06134 20.6582 7.95502 20.7664C7.8487 20.8747 7.76696 21.0045 7.71534 21.1472C7.66373 21.2898 7.64346 21.4419 7.6559 21.593ZM24.2954 44.833V44.3682C24.2954 42.3005 25.1173 40.3176 26.5804 38.8556C28.0435 37.3936 30.0279 36.5722 32.0971 36.5722C34.1662 36.5722 36.1506 37.3936 37.6137 38.8556C39.0769 40.3176 39.8988 42.3005 39.8988 44.3682V44.833C39.6184 44.833 39.3496 44.9443 39.1513 45.1424C38.9531 45.3405 38.8417 45.6092 38.8417 45.8893C38.8417 46.1695 38.9531 46.4382 39.1513 46.6363C39.3496 46.8344 39.6184 46.9457 39.8988 46.9457V53.2838C39.6184 53.2838 39.3496 53.3951 39.1513 53.5932C38.9531 53.7914 38.8417 54.06 38.8417 54.3402C38.8417 54.6204 38.9531 54.8891 39.1513 55.0872C39.3496 55.2853 39.6184 55.3966 39.8988 55.3966V63.9742H24.2319V55.3332C24.5123 55.3332 24.7812 55.2219 24.9795 55.0238C25.1777 54.8257 25.2891 54.557 25.2891 54.2768C25.2891 53.9967 25.1777 53.728 24.9795 53.5299C24.7812 53.3318 24.5123 53.2205 24.2319 53.2205V46.8823C24.5123 46.8823 24.7812 46.771 24.9795 46.5729C25.1777 46.3748 25.2891 46.1061 25.2891 45.8259C25.2896 45.5564 25.1869 45.2969 25.0022 45.1005C24.8175 44.9041 24.5646 44.7857 24.2954 44.7696V44.833ZM41.9497 46.9457H50.0051V53.2838H41.9497V46.9457ZM22.1176 53.2838H14.0622V46.9457H22.1176V53.2838ZM14.0622 55.3966H22.1176V63.9742H14.0622V55.3966ZM41.9497 63.9742V55.3332H50.0051V63.9742H41.9497ZM50.0051 44.7696H41.9497V44.3048C41.9497 41.6768 40.905 39.1565 39.0453 37.2983C37.1857 35.4401 34.6636 34.3961 32.0337 34.3961C29.4038 34.3961 26.8816 35.4401 25.022 37.2983C23.1624 39.1565 22.1176 41.6768 22.1176 44.3048V44.7696H14.0622V28.0579H50.0051V44.7696ZM24.9085 11.1562H39.18V13.0576H24.9085V11.1562ZM15.3096 18.9099H35.2474C35.5278 18.9099 35.7966 18.7986 35.9949 18.6005C36.1932 18.4024 36.3045 18.1337 36.3045 17.8535C36.3045 17.5733 36.1932 17.3047 35.9949 17.1065C35.7966 16.9084 35.5278 16.7971 35.2474 16.7971H15.3096V15.1703H48.7577V20.5367H15.3096V18.9099ZM9.77019 22.6494H54.2971V25.9452H9.77019V22.6494ZM18.3542 35.9807V34.7341C18.3542 34.454 18.4656 34.1853 18.6638 33.9872C18.8621 33.7891 19.131 33.6778 19.4114 33.6778C19.6917 33.6778 19.9606 33.7891 20.1589 33.9872C20.3571 34.1853 20.4685 34.454 20.4685 34.7341V35.9807C20.4685 36.2608 20.3571 36.5295 20.1589 36.7276C19.9606 36.9257 19.6917 37.037 19.4114 37.037C19.131 37.037 18.8621 36.9257 18.6638 36.7276C18.4656 36.5295 18.3542 36.2608 18.3542 35.9807ZM43.5988 35.9807V34.7341C43.5988 34.454 43.7102 34.1853 43.9085 33.9872C44.1067 33.7891 44.3756 33.6778 44.656 33.6778C44.9363 33.6778 45.2052 33.7891 45.4035 33.9872C45.6017 34.1853 45.7131 34.454 45.7131 34.7341V35.9807C45.7131 36.2608 45.6017 36.5295 45.4035 36.7276C45.2052 36.9257 44.9363 37.037 44.656 37.037C44.3756 37.037 44.1067 36.9257 43.9085 36.7276C43.7102 36.5295 43.5988 36.2608 43.5988 35.9807Z" fill="black"/>
</g>
</svg>
