<svg width="737" height="689" viewBox="0 0 737 689" fill="none" xmlns="http://www.w3.org/2000/svg">
<path d="M11.8619 296.947H77.9659C81.8656 311.009 87.4764 324.541 94.6728 337.238L47.8933 383.984C45.7162 386.218 44.4979 389.213 44.4979 392.331C44.4979 395.449 45.7162 398.444 47.8933 400.678L98.3484 450.763C99.4449 451.86 100.747 452.731 102.18 453.325C103.614 453.918 105.15 454.224 106.702 454.224C108.253 454.224 109.79 453.918 111.223 453.325C112.657 452.731 113.959 451.86 115.055 450.763L161.723 404.129C174.4 411.341 187.925 416.949 201.987 420.824V487.047C201.987 488.604 202.294 490.145 202.89 491.583C203.486 493.021 204.36 494.328 205.462 495.429C206.563 496.529 207.871 497.402 209.31 497.998C210.749 498.594 212.291 498.9 213.849 498.9H285.299C286.862 498.908 288.41 498.606 289.856 498.014C291.301 497.422 292.616 496.55 293.723 495.448C294.83 494.347 295.709 493.038 296.309 491.596C296.908 490.154 297.217 488.608 297.217 487.047V421.158C311.276 417.273 324.8 411.665 337.481 404.463L384.26 451.042C386.528 453.154 389.513 454.328 392.614 454.328C395.714 454.328 398.699 453.154 400.967 451.042L451.088 400.957C452.186 399.861 453.057 398.56 453.651 397.127C454.245 395.695 454.551 394.16 454.551 392.609C454.551 391.059 454.245 389.523 453.651 388.091C453.057 386.659 452.186 385.358 451.088 384.262L404.698 337.238C411.916 324.551 417.528 311.017 421.405 296.947H487.398C488.956 296.947 490.498 296.641 491.937 296.045C493.376 295.449 494.684 294.576 495.786 293.475C496.887 292.375 497.761 291.068 498.357 289.63C498.953 288.192 499.26 286.65 499.26 285.094V213.806C499.26 212.25 498.953 210.708 498.357 209.27C497.761 207.832 496.887 206.526 495.786 205.425C494.684 204.324 493.376 203.451 491.937 202.855C490.498 202.26 488.956 201.953 487.398 201.953H421.461C417.594 187.897 411.981 174.381 404.754 161.718L451.422 115.084C452.52 113.988 453.391 112.687 453.985 111.254C454.58 109.822 454.885 108.287 454.885 106.736C454.885 105.186 454.58 103.65 453.985 102.218C453.391 100.786 452.52 99.4845 451.422 98.3888L400.967 47.8588C398.738 45.6701 395.739 44.4436 392.614 44.4436C389.489 44.4436 386.489 45.6701 384.26 47.8588L337.481 94.6046C324.789 87.4236 311.268 81.8172 297.217 77.9097V11.8534C297.202 8.70458 295.94 5.68974 293.707 3.46838C291.473 1.24702 288.45 -3.43787e-05 285.299 7.10819e-10H213.961C212.403 7.10812e-10 210.86 0.306597 209.421 0.902287C207.982 1.49798 206.674 2.37109 205.573 3.47178C204.471 4.57247 203.598 5.87918 203.002 7.3173C202.405 8.75542 202.099 10.2968 202.099 11.8534V77.9097C188.044 81.8072 174.522 87.4141 161.835 94.6046L115.167 47.8588C112.899 45.7464 109.914 44.5718 106.813 44.5718C103.713 44.5718 100.728 45.7464 98.4597 47.8588L47.8933 98.2775C45.7162 100.512 44.4979 103.507 44.4979 106.625C44.4979 109.743 45.7162 112.738 47.8933 114.972L94.6728 161.718C87.4674 174.391 81.856 187.905 77.9659 201.953H11.8619C10.3042 201.953 8.76173 202.26 7.32258 202.855C5.88342 203.451 4.57577 204.324 3.47428 205.425C2.3728 206.526 1.49906 207.832 0.902937 209.27C0.306818 210.708 0 212.25 0 213.806L0 285.094C0 286.65 0.306818 288.192 0.902937 289.63C1.49906 291.068 2.3728 292.375 3.47428 293.475C4.57577 294.576 5.88342 295.449 7.32258 296.045C8.76173 296.641 10.3042 296.947 11.8619 296.947ZM23.7796 225.716H87.1547C89.8635 225.713 92.4899 224.784 94.5973 223.083C96.7046 221.383 98.1659 219.012 98.7382 216.366C102.65 198.568 109.703 181.609 119.566 166.282C121.031 164.001 121.669 161.289 121.375 158.595C121.081 155.902 119.873 153.39 117.951 151.479L73.3993 106.959L106.813 73.569L151.365 118.089C153.278 120.009 155.791 121.217 158.487 121.51C161.182 121.804 163.897 121.166 166.179 119.703C181.517 109.847 198.489 102.799 216.3 98.8897C218.947 98.3178 221.319 96.8576 223.021 94.7518C224.723 92.6459 225.653 90.0214 225.655 87.3145V23.7625H273.437V87.0919C273.427 89.7938 274.345 92.4174 276.037 94.5243C277.73 96.6312 280.095 98.0936 282.738 98.6671C300.552 102.566 317.525 109.615 332.858 119.48C335.14 120.943 337.855 121.581 340.551 121.288C343.246 120.994 345.759 119.787 347.672 117.866L392.558 73.3464L425.972 106.736L381.42 151.256C379.498 153.168 378.29 155.679 377.996 158.372C377.702 161.066 378.341 163.779 379.805 166.059C389.668 181.386 396.721 198.346 400.633 216.144C401.157 218.812 402.582 221.219 404.671 222.962C406.76 224.705 409.384 225.677 412.105 225.716H475.48V273.24H412.105C409.396 273.243 406.77 274.172 404.663 275.873C402.555 277.573 401.094 279.944 400.522 282.59C396.615 300.389 389.562 317.35 379.694 332.674C378.229 334.955 377.591 337.667 377.885 340.361C378.179 343.054 379.387 345.566 381.309 347.477L426.195 392.275L392.781 425.665L347.895 380.811C345.982 378.891 343.469 377.684 340.773 377.39C338.078 377.096 335.363 377.734 333.081 379.198C317.746 389.059 300.773 396.107 282.96 400.011C280.244 400.556 277.805 402.035 276.065 404.19C274.326 406.345 273.396 409.04 273.437 411.808V475.138H225.878V411.808C225.889 409.092 224.965 406.454 223.262 404.337C221.559 402.22 219.179 400.752 216.522 400.178C198.711 396.268 181.739 389.22 166.401 379.365C164.119 377.901 161.405 377.263 158.709 377.557C156.014 377.851 153.501 379.058 151.588 380.978L107.036 425.832L73.622 392.442L118.174 347.589C120.096 345.677 121.304 343.166 121.598 340.472C121.892 337.779 121.253 335.066 119.789 332.786C109.916 317.464 102.863 300.502 98.9609 282.701C98.387 280.061 96.9236 277.697 94.8152 276.006C92.7068 274.314 90.0813 273.397 87.3774 273.407H23.7796V225.716Z" fill="#2D59A8"/>
<path d="M249.657 344.463C268.472 344.463 286.865 338.887 302.508 328.44C318.151 317.994 330.343 303.146 337.541 285.774C344.738 268.403 346.619 249.289 342.944 230.849C339.269 212.41 330.205 195.474 316.897 182.183C303.588 168.892 286.635 159.844 268.18 156.183C249.725 152.522 230.598 154.412 213.219 161.615C195.839 168.817 180.987 181.009 170.542 196.647C160.097 212.285 154.528 230.667 154.539 249.469C154.539 261.948 157 274.306 161.781 285.834C166.561 297.363 173.569 307.838 182.402 316.66C191.235 325.481 201.721 332.477 213.261 337.248C224.801 342.019 237.169 344.47 249.657 344.463ZM249.657 178.181C263.762 178.203 277.544 182.403 289.261 190.25C300.978 198.096 310.104 209.237 315.486 222.265C320.869 235.293 322.266 249.623 319.5 263.444C316.735 277.265 309.932 289.957 299.951 299.916C289.969 309.874 277.258 316.653 263.423 319.394C249.587 322.136 235.249 320.718 222.22 315.319C209.191 309.92 198.056 300.783 190.222 289.062C182.388 277.342 178.207 263.563 178.207 249.469C178.185 240.086 180.018 230.792 183.601 222.12C187.184 213.447 192.446 205.568 199.085 198.933C205.725 192.299 213.61 187.041 222.289 183.46C230.967 179.88 240.268 178.048 249.657 178.07V178.181Z" fill="#2D59A8"/>
<path d="M249.654 380.152C275.516 380.152 300.797 372.488 322.301 358.131C343.804 343.773 360.564 323.366 370.461 299.49C380.358 275.614 382.947 249.341 377.902 223.994C372.856 198.648 360.403 175.365 342.116 157.091C323.829 138.818 300.529 126.373 275.164 121.331C249.799 116.289 223.508 118.877 199.615 128.767C175.722 138.656 155.3 155.404 140.932 176.892C126.563 198.38 118.895 223.643 118.895 249.486C118.895 284.141 132.671 317.376 157.193 341.881C181.715 366.385 214.975 380.152 249.654 380.152ZM249.654 142.527C270.827 142.516 291.526 148.78 309.136 160.526C326.745 172.272 340.473 188.973 348.582 208.516C356.692 228.059 358.82 249.567 354.696 270.319C350.573 291.07 340.383 310.134 325.416 325.098C310.449 340.062 291.377 350.254 270.612 354.386C249.848 358.517 228.324 356.402 208.762 348.309C189.201 340.215 172.481 326.506 160.717 308.915C148.953 291.325 142.674 270.643 142.674 249.486C142.674 221.128 153.943 193.931 174.005 173.874C194.066 153.817 221.276 142.542 249.654 142.527Z" fill="#3293D0"/>
<path d="M677.579 546.424V451.374C677.55 448.25 676.287 445.263 674.065 443.064C671.844 440.865 668.844 439.632 665.717 439.632H641.937V344.471C641.937 342.909 641.629 341.363 641.029 339.922C640.43 338.48 639.551 337.171 638.443 336.069C637.336 334.968 636.022 334.096 634.576 333.504C633.131 332.911 631.582 332.61 630.02 332.617H523.039C519.893 332.617 516.876 333.866 514.652 336.089C512.427 338.312 511.178 341.327 511.178 344.471V439.632H451.701C448.598 439.675 445.634 440.926 443.44 443.119C441.245 445.312 439.993 448.273 439.95 451.374V546.424H59.4211C43.6707 546.453 28.5738 552.719 17.4366 563.848C6.29931 574.977 0.0294401 590.063 0 605.802L0 629.565C0.0147153 645.313 6.27809 660.414 17.4169 671.555C28.5558 682.696 43.6611 688.969 59.4211 688.999H677.579C693.344 688.984 708.457 682.716 719.599 671.571C730.741 660.427 737 645.318 737 629.565V605.802C736.985 590.059 730.72 574.964 719.58 563.832C708.439 552.699 693.334 546.439 677.579 546.424ZM653.799 546.424H570.599V463.283H653.799V546.424ZM534.957 356.157H618.158V439.632H534.957V356.157ZM463.618 463.283H546.819V546.424H463.618V463.283ZM713.276 629.565C713.276 639.025 709.515 648.098 702.821 654.788C696.126 661.478 687.046 665.236 677.579 665.236H59.4211C49.9633 665.221 40.8978 661.457 34.2154 654.768C27.5329 648.08 23.7796 639.016 23.7796 629.565V605.802C23.7943 596.361 27.5541 587.31 34.235 580.634C40.9159 573.958 49.9729 570.201 59.4211 570.186H677.579C687.037 570.186 696.108 573.937 702.801 580.615C709.494 587.292 713.261 596.351 713.276 605.802V629.565Z" fill="#2D59A8"/>
<path d="M368.498 582.039C361.438 582.039 354.536 584.131 348.666 588.051C342.795 591.97 338.22 597.542 335.518 604.06C332.816 610.578 332.109 617.75 333.487 624.67C334.864 631.589 338.264 637.945 343.256 642.934C348.249 647.923 354.609 651.32 361.534 652.697C368.458 654.073 375.636 653.367 382.159 650.667C388.682 647.967 394.257 643.395 398.179 637.529C402.102 631.662 404.195 624.766 404.195 617.711C404.195 608.25 400.434 599.177 393.74 592.487C387.045 585.797 377.965 582.039 368.498 582.039ZM368.498 629.564C366.139 629.564 363.832 628.864 361.871 627.553C359.91 626.242 358.383 624.379 357.482 622.199C356.582 620.02 356.349 617.623 356.814 615.311C357.278 612.999 358.419 610.878 360.091 609.214C361.763 607.551 363.892 606.421 366.207 605.968C368.523 605.515 370.921 605.759 373.097 606.668C375.274 607.578 377.131 609.113 378.434 611.079C379.737 613.045 380.427 615.353 380.416 617.711C380.416 619.272 380.107 620.818 379.507 622.26C378.908 623.701 378.029 625.01 376.922 626.112C375.814 627.213 374.5 628.085 373.054 628.678C371.609 629.27 370.06 629.571 368.498 629.564Z" fill="#3293D0"/>
<path d="M249.659 582.039C242.597 582.028 235.689 584.111 229.812 588.024C223.934 591.937 219.35 597.504 216.64 604.021C213.929 610.538 213.214 617.712 214.585 624.636C215.956 631.559 219.352 637.92 224.342 642.914C229.332 647.909 235.693 651.312 242.619 652.693C249.545 654.074 256.725 653.37 263.251 650.672C269.777 647.974 275.356 643.402 279.281 637.534C283.206 631.667 285.301 624.768 285.301 617.711C285.301 608.26 281.547 599.195 274.865 592.507C268.182 585.819 259.117 582.054 249.659 582.039ZM249.659 629.564C247.307 629.531 245.017 628.803 243.079 627.472C241.14 626.141 239.638 624.267 238.763 622.085C237.889 619.903 237.68 617.511 238.163 615.21C238.646 612.91 239.799 610.804 241.478 609.157C243.157 607.511 245.286 606.397 247.596 605.957C249.907 605.518 252.296 605.771 254.463 606.686C256.63 607.6 258.478 609.135 259.773 611.097C261.069 613.059 261.755 615.36 261.744 617.711C261.744 620.854 260.494 623.869 258.27 626.092C256.045 628.315 253.028 629.564 249.882 629.564H249.659Z" fill="#3293D0"/>
<path d="M487.397 582.039C480.335 582.028 473.428 584.111 467.55 588.024C461.672 591.937 457.088 597.504 454.378 604.021C451.667 610.538 450.953 617.712 452.324 624.636C453.695 631.559 457.09 637.92 462.08 642.914C467.07 647.909 473.431 651.312 480.357 652.693C487.283 654.074 494.464 653.37 500.99 650.672C507.516 647.974 513.094 643.402 517.019 637.534C520.944 631.667 523.039 624.768 523.039 617.711C523.039 608.26 519.286 599.195 512.603 592.507C505.921 585.819 496.855 582.054 487.397 582.039ZM487.397 629.564C485.036 629.575 482.724 628.885 480.756 627.58C478.787 626.276 477.251 624.417 476.342 622.238C475.433 620.06 475.193 617.661 475.651 615.345C476.109 613.03 477.245 610.903 478.915 609.234C480.585 607.565 482.714 606.43 485.031 605.972C487.348 605.514 489.748 605.755 491.928 606.663C494.108 607.572 495.969 609.107 497.274 611.073C498.579 613.04 499.27 615.351 499.259 617.711C499.259 620.854 498.01 623.869 495.785 626.092C493.561 628.315 490.543 629.564 487.397 629.564Z" fill="#3293D0"/>
<path d="M130.757 582.039C123.694 582.028 116.787 584.111 110.909 588.024C105.032 591.937 100.448 597.504 97.7372 604.021C95.0268 610.538 94.312 617.712 95.6831 624.636C97.0541 631.559 100.45 637.92 105.44 642.914C110.43 647.909 116.79 651.312 123.716 652.693C130.643 654.074 137.823 653.37 144.349 650.672C150.875 647.974 156.453 643.402 160.378 637.534C164.303 631.667 166.398 624.768 166.398 617.711C166.406 613.029 165.489 608.391 163.701 604.064C161.913 599.736 159.289 595.804 155.979 592.49C152.669 589.177 148.737 586.549 144.409 584.756C140.081 582.962 135.442 582.039 130.757 582.039ZM130.757 629.564C128.397 629.564 126.091 628.864 124.13 627.553C122.169 626.242 120.641 624.379 119.741 622.199C118.841 620.02 118.608 617.623 119.072 615.311C119.537 612.999 120.677 610.878 122.35 609.214C124.022 607.551 126.151 606.421 128.466 605.968C130.782 605.515 133.18 605.759 135.356 606.669C137.533 607.578 139.39 609.113 140.693 611.079C141.996 613.045 142.685 615.353 142.674 617.711C142.674 619.272 142.366 620.818 141.766 622.26C141.167 623.701 140.288 625.011 139.181 626.112C138.073 627.213 136.759 628.085 135.313 628.678C133.868 629.27 132.319 629.571 130.757 629.564Z" fill="#3293D0"/>
<path d="M606.24 582.039C599.18 582.039 592.278 584.131 586.408 588.051C580.538 591.97 575.962 597.542 573.26 604.06C570.558 610.578 569.852 617.75 571.229 624.67C572.606 631.589 576.006 637.945 580.998 642.934C585.991 647.923 592.351 651.32 599.276 652.697C606.201 654.073 613.378 653.367 619.901 650.667C626.424 647.967 631.999 643.395 635.921 637.529C639.844 631.662 641.937 624.766 641.937 617.711C641.937 608.25 638.177 599.177 631.482 592.487C624.787 585.797 615.708 582.039 606.24 582.039ZM606.24 629.564C603.881 629.564 601.574 628.864 599.613 627.553C597.652 626.242 596.125 624.379 595.225 622.199C594.324 620.02 594.091 617.623 594.556 615.311C595.02 612.999 596.161 610.878 597.833 609.214C599.505 607.551 601.634 606.421 603.95 605.968C606.265 605.515 608.663 605.759 610.84 606.668C613.016 607.578 614.874 609.113 616.177 611.079C617.479 613.045 618.169 615.353 618.158 617.711C618.158 619.272 617.849 620.818 617.25 622.26C616.65 623.701 615.771 625.01 614.664 626.112C613.557 627.213 612.242 628.085 610.797 628.678C609.351 629.27 607.803 629.571 606.24 629.564Z" fill="#3293D0"/>
</svg>
