<svg width="184" height="69" viewBox="0 0 184 69" fill="none" xmlns="http://www.w3.org/2000/svg">
<path d="M28.6596 33.53C35.7396 34.55 38.9496 33.04 42.3596 27.14C44.5996 23.28 46.7796 19.38 49.0796 15.55C50.7096 12.84 51.6396 10.04 50.9496 6.85002C50.8096 6.22002 50.7996 5.54001 50.8596 4.90001C51.0696 2.64001 52.8396 0.840018 55.0596 0.550018C57.1496 0.280018 59.2696 1.47002 60.1296 3.38002C61.0396 5.41002 60.4296 7.91001 58.6496 9.26001C58.2196 9.58001 57.7296 9.88001 57.2196 10.03C53.0696 11.27 50.8796 14.38 49.1796 18.43C55.1796 23.22 58.6796 29.32 57.4896 37.32C56.8696 41.48 55.1796 45.16 51.5096 48.26C50.1896 46.02 48.8796 44.14 47.9996 42.09C47.6696 41.31 48.1496 40.05 48.5396 39.12C50.6696 34.05 49.4396 29.27 45.1096 26.16C41.0996 29.95 40.1096 35.02 42.6896 39.73C45.3596 44.6 48.2096 49.37 50.9996 54.17C52.3096 56.42 54.2096 57.97 56.6996 58.81C58.8096 59.53 60.2996 60.82 60.4996 63.21C60.7296 65.94 58.9296 68.16 56.2696 68.45C53.4196 68.75 51.0796 66.87 50.8596 64.05C50.8096 63.41 50.8396 62.73 50.9696 62.1C51.8396 57.97 50.0696 54.72 47.5996 51.48C41.1396 54.06 34.8296 54.22 28.7896 50.45C24.6296 47.85 21.8196 43.87 20.8296 39C23.3196 38.14 25.8996 38.37 28.3896 38.78C29.1196 38.9 29.6996 40.12 30.2896 40.88C33.1296 44.54 36.8796 45.68 41.3196 44.9C41.9296 44.79 42.4896 44.41 43.0496 44.16C41.5696 38.62 38.1096 35.47 32.7096 35.25C26.9496 35.02 21.1596 35.17 15.3896 35.24C13.0396 35.27 10.9196 36.1 9.09958 37.65C8.68958 38 8.26957 38.36 7.79957 38.64C5.51957 40 2.92958 39.54 1.34958 37.53C0.0395751 35.86 0.0695671 33.11 1.41957 31.45C2.96957 29.55 5.69957 29.13 7.90957 30.48C8.27957 30.71 8.61957 30.98 8.94957 31.27C12.1196 34.01 15.7896 34.21 19.8396 33.56C20.8896 26.11 24.3396 20.34 31.3696 17.27C35.4396 15.49 39.6396 14.89 44.4196 16.79C43.0796 19.09 42.0196 21.22 40.6396 23.1C40.2096 23.68 38.8996 23.7 37.9796 23.83C33.3396 24.49 30.1896 26.97 28.6596 31.42C28.5196 31.82 28.4896 32.27 28.4596 32.7C28.4496 32.92 28.5596 33.14 28.6596 33.53Z" fill="#2D59A7"/>
<path d="M28.2388 56C29.8488 56.06 31.0588 57.33 31.0388 58.94C31.0188 60.66 29.5988 61.92 27.8388 61.78C26.1888 61.65 25.1488 60.41 25.2488 58.71C25.3588 57.04 26.5788 55.94 28.2388 56Z" fill="#2D59A7"/>
<path d="M28.35 11.31C28.3 12.91 27.04 14.09 25.4 14.09C23.6 14.08 22.38 12.75 22.53 10.95C22.67 9.32001 23.96 8.20002 25.59 8.30002C27.18 8.41002 28.4 9.74002 28.35 11.31Z" fill="#2D59A7"/>
<path d="M66.1096 37.49C64.4996 37.54 63.2396 36.36 63.1596 34.72C63.0696 33.04 64.1396 31.79 65.7896 31.67C67.5296 31.54 68.9696 32.84 68.9496 34.56C68.9396 36.12 67.6596 37.44 66.1096 37.49Z" fill="#2D59A7"/>
<path d="M108.87 21.1901V48.5101H102.55V37.3101H90.1403V48.5101H83.8203V21.1901H90.1403V31.9601H102.55V21.1901H108.87Z" fill="#2D59A7"/>
<path d="M114.18 21.19C114.18 19.28 115.7 17.79 117.97 17.79C120.24 17.79 121.76 19.1901 121.76 21.0701C121.76 23.1001 120.24 24.58 117.97 24.58C115.7 24.58 114.18 23.1 114.18 21.19ZM114.92 27.51H121.01V48.51H114.92V27.51Z" fill="#2D59A7"/>
<path d="M149.54 38.0101C149.54 44.6101 144.97 48.8201 139.08 48.8201C136.46 48.8201 134.32 48.0001 132.76 46.2801V56.0801H126.67V27.5101H132.49V29.9301C134.01 28.1001 136.28 27.2001 139.09 27.2001C144.97 27.2001 149.54 31.4101 149.54 38.0101ZM143.37 38.0101C143.37 34.3801 141.07 32.1901 138.02 32.1901C134.98 32.1901 132.67 34.3801 132.67 38.0101C132.67 41.6401 134.97 43.8301 138.02 43.8301C141.07 43.8301 143.37 41.6401 143.37 38.0101Z" fill="#2D59A7"/>
<path d="M153.6 19.55H159.69V48.51H153.6V19.55Z" fill="#2D59A7"/>
<path d="M183.921 36.53V48.51H178.221V45.9C177.091 47.81 174.901 48.83 171.821 48.83C166.901 48.83 163.971 46.1 163.971 42.47C163.971 38.76 166.591 36.19 172.991 36.19H177.831C177.831 33.57 176.271 32.05 172.991 32.05C170.771 32.05 168.461 32.79 166.941 34L164.751 29.75C167.051 28.11 170.451 27.21 173.811 27.21C180.211 27.2 183.921 30.16 183.921 36.53ZM177.831 41.87V39.72H173.651C170.801 39.72 169.901 40.77 169.901 42.18C169.901 43.7 171.191 44.72 173.341 44.72C175.371 44.72 177.131 43.79 177.831 41.87Z" fill="#2D59A7"/>
</svg>
