<svg width="48" height="48" viewBox="0 0 48 48" fill="none" xmlns="http://www.w3.org/2000/svg">
<circle cx="24" cy="24" r="24" fill="white"/>
<path d="M21.6756 34C21.0317 33.8808 20.6007 33.4671 20.2033 32.9603C18.6427 30.9719 17.058 29.0035 15.4881 27.023C14.9477 26.3413 14.8475 25.5783 15.2302 24.7932C15.6013 24.0323 16.2384 23.663 17.0677 23.6778C17.5585 23.6865 17.9823 23.8905 18.3449 24.2294C19.4605 25.2717 20.5778 26.3122 21.693 27.3549C22.0425 27.6816 22.2584 27.6724 22.5664 27.3157C26.0341 23.2976 29.5026 19.2799 32.9695 15.261C33.1481 15.0539 33.3496 14.9404 33.6219 15.0322C33.8437 15.107 34.0087 15.3127 33.999 15.5524C33.9939 15.6807 33.9426 15.8199 33.8755 15.9309C32.2738 18.5857 30.6679 21.237 29.0619 23.8892C27.2927 26.8111 25.5141 29.7278 23.7605 32.6593C23.3584 33.3318 22.8901 33.8621 22.0985 34C21.9577 34 21.8164 34 21.6756 34Z" fill="#2D59A8"/>
</svg>
