<svg width="18" height="24" viewBox="0 0 18 24" fill="none" xmlns="http://www.w3.org/2000/svg">
<path fill-rule="evenodd" clip-rule="evenodd" d="M9 0C4.03286 0 0 3.89379 0 8.68966C0 10.0866 0.753428 12.0554 1.85443 14.1116C4.28057 18.6418 8.32243 23.6793 8.32243 23.6793C8.48486 23.8817 8.73514 24 9 24C9.26486 24 9.51514 23.8817 9.67757 23.6793C9.67757 23.6793 13.7194 18.6418 16.1456 14.1116C17.2466 12.0554 18 10.0866 18 8.68966C18 3.89379 13.9671 0 9 0ZM9 4.96552C6.87129 4.96552 5.14286 6.63435 5.14286 8.68966C5.14286 10.745 6.87129 12.4138 9 12.4138C11.1287 12.4138 12.8571 10.745 12.8571 8.68966C12.8571 6.63435 11.1287 4.96552 9 4.96552Z" fill="black"/>
</svg>
