<svg width="18" height="13" viewBox="0 0 18 13" fill="none" xmlns="http://www.w3.org/2000/svg">
<path d="M1.11214 0.186429C1.36735 0.0652363 1.64606 0.00159323 1.92857 0H16.0714C16.2702 0.00179744 16.4676 0.0343246 16.6564 0.0964286L9 5.63786L1.11214 0.186429ZM9.37929 6.94929C9.27041 7.0268 9.14008 7.06846 9.00643 7.06846C8.87278 7.06846 8.74245 7.0268 8.63357 6.94929L0.186429 1.11214C0.0652363 1.36735 0.00159323 1.64606 0 1.92857V10.9286C0 11.4401 0.203188 11.9306 0.564866 12.2923C0.926543 12.654 1.41708 12.8571 1.92857 12.8571H16.0714C16.5829 12.8571 17.0735 12.654 17.4351 12.2923C17.7968 11.9306 18 11.4401 18 10.9286V1.92857C17.9988 1.57186 17.8986 1.22249 17.7107 0.919286L9.37929 6.94929Z" fill="black"/>
</svg>
