<svg width="697" height="696" viewBox="0 0 697 696" fill="none" xmlns="http://www.w3.org/2000/svg">
<g clip-path="url(#clip0)">
<path d="M573.1 0C575.455 1.33609 577.359 3.34101 578.571 5.76005C579.782 8.17909 580.246 10.9031 579.903 13.5859C579.903 25.7798 579.903 38.0294 579.903 50.112C579.903 58.8538 576.279 62.3616 567.413 62.4173H537.916V286.752C537.916 301.396 535.964 303.456 521.634 303.456H357.867C357.554 308.834 357.554 314.225 357.867 319.603C357.867 321.329 360.766 323.111 362.718 324.225C368.718 327.746 373.293 333.255 375.649 339.794C378.004 346.334 377.992 353.491 375.613 360.021C373.234 366.552 368.639 372.045 362.626 375.545C356.614 379.045 349.564 380.332 342.7 379.181C335.731 377.85 329.461 374.092 325.008 368.575C320.556 363.058 318.21 356.141 318.389 349.058C318.373 344.256 319.647 339.537 322.08 335.395C324.512 331.252 328.013 327.837 332.217 325.505C334.523 324.481 336.412 322.706 337.577 320.471C338.741 318.236 339.113 315.673 338.63 313.2C338.351 310.305 338.63 307.632 338.63 303.456H174.64C161.201 303.456 159.082 301.34 159.082 287.643V62.5286H129.585C120.664 62.4173 117.095 58.9651 117.095 50.112C117.095 37.6954 117.095 25.223 117.095 12.7507C116.828 10.1905 117.332 7.60879 118.545 5.33693C119.757 3.06507 121.621 1.20662 123.898 0L573.1 0ZM518.567 283.968V62.8627H179.1V283.968H518.567ZM136.946 42.985H560.722V19.4323H136.946V42.985ZM348.834 359.916C351.469 359.832 353.974 358.749 355.838 356.887C357.703 355.026 358.787 352.525 358.871 349.893C358.871 348.524 358.597 347.169 358.064 345.907C357.531 344.646 356.75 343.504 355.768 342.549C354.785 341.593 353.621 340.845 352.344 340.346C351.067 339.848 349.703 339.611 348.332 339.648C345.694 339.662 343.166 340.707 341.29 342.56C339.414 344.412 338.339 346.925 338.295 349.559C338.31 352.301 339.407 354.927 341.349 356.866C343.291 358.805 345.92 359.901 348.666 359.916H348.834Z" fill="#2D59A8"/>
<path d="M270.882 696.007C268.964 694.418 267.59 692.272 266.95 689.867C266.311 687.462 266.437 684.918 267.313 682.588C269.989 677.02 275.342 677.02 280.695 677.02C292.684 677.02 304.616 677.02 316.995 677.02V481.249H117.374C105.609 481.249 102.988 478.632 102.988 466.939C102.988 450.625 102.988 434.311 102.988 417.997C102.988 405.246 105.386 402.852 118.043 402.852H578.008C591.669 402.852 593.955 405.134 594.011 418.442C594.011 434.311 594.011 450.18 594.011 466.048C594.011 478.632 591.39 481.249 579.011 481.249H380.06V676.964C392.327 676.964 404.26 676.964 416.248 676.964C421.824 676.964 426.954 676.964 429.686 682.532C430.562 684.862 430.688 687.406 430.049 689.811C429.409 692.216 428.035 694.362 426.117 695.951L270.882 696.007ZM574.328 423.175H122.672V462.151H574.328V423.175ZM336.957 481.416V676.574H360.432V481.416H336.957Z" fill="#3293D0"/>
<path d="M511.878 695.999C495.763 688.927 489.574 676.566 489.909 659.194C490.578 635.697 489.909 612.144 489.909 587.757H476.192C471.701 587.96 467.218 587.218 463.033 585.579C458.848 583.94 455.055 581.441 451.9 578.243C448.745 575.045 446.299 571.221 444.72 567.018C443.141 562.816 442.465 558.328 442.736 553.848C442.566 549.776 442.734 545.697 443.237 541.654C444.132 533.781 447.974 526.537 453.992 521.374C460.011 516.211 467.761 513.51 475.69 513.814H600.146C616.484 513.814 623.119 507.132 623.119 490.651C623.119 450.561 623.119 410.472 623.119 370.382C623.119 349.613 632.487 336.25 649.995 333.8C669.958 331.072 689.027 334.357 696.388 357.687C696.556 358.106 696.781 358.499 697.057 358.856V507.021C696.53 508.247 696.101 509.513 695.774 510.807C693.271 527.215 686.067 542.549 675.032 554.961C668.731 561.977 661.315 567.935 653.954 574.728C654.456 576.064 655.181 577.901 655.85 579.794C664.883 603.681 674.195 627.401 682.782 651.455C684.977 657.567 685.759 664.096 685.069 670.553C683.452 684.139 673.917 691.6 661.649 695.999H646.817C633.658 691.154 626.744 681.243 622.227 668.159C613.25 642.88 603.269 618.047 593.566 592.824C592.73 590.652 590.555 587.256 588.938 587.256C577.285 586.81 565.575 587.256 553.308 587.256V595.775C553.308 618.381 553.308 641.042 553.308 663.648C553.6 668.4 552.813 673.156 551.008 677.562C549.203 681.968 546.424 685.91 542.881 689.094C539.491 691.605 535.953 693.911 532.286 695.999H511.878ZM678.377 434.748C678.377 412.476 678.377 390.204 678.377 367.932C678.454 363.279 676.737 358.774 673.582 355.348C666.835 349.78 658.081 350.95 650.33 353.678C643.583 356.016 642.691 362.253 642.691 368.823C642.691 409.581 642.691 450.394 642.691 491.319C642.811 494.707 642.625 498.098 642.133 501.453C638.676 520.384 623.788 532.244 603.101 532.299C561.56 532.299 520.075 532.299 478.589 532.299C466.824 532.299 462.586 536.642 462.475 548.168V551.565C462.475 563.647 466.88 568.269 478.812 568.269C520.075 568.269 561.337 568.269 602.6 568.269C647.208 568.269 678.21 537.088 678.433 492.544C678.489 473.279 678.377 453.958 678.377 434.748ZM613.361 587.144C613.807 588.592 613.975 589.483 614.253 590.318C624.011 616.153 633.714 641.933 643.583 667.713C644.039 669.419 644.853 671.008 645.97 672.376C647.088 673.744 648.483 674.86 650.064 675.649C651.646 676.439 653.377 676.884 655.143 676.956C656.909 677.027 658.671 676.724 660.311 676.065C666.723 673.392 668.954 666.878 665.887 658.86C662.82 650.842 660.311 644.049 657.523 636.588C650.609 618.436 643.695 600.322 636.78 582.244L613.361 587.144ZM510.372 587.478C510.148 588.524 509.999 589.585 509.926 590.652C509.926 614.594 509.926 638.574 509.926 662.591C509.929 664.845 510.306 667.084 511.042 669.216C512.083 671.888 514.03 674.11 516.544 675.496C519.057 676.882 521.978 677.343 524.797 676.8C527.616 676.257 530.155 674.744 531.972 672.524C533.789 670.304 534.768 667.518 534.74 664.651C534.74 641.376 534.74 618.047 534.349 594.772C534.349 592.378 534.349 590.04 534.349 587.478H510.372Z" fill="#2D59A8"/>
<path d="M0.00038375 357.53C9.75838 336.761 21.691 330.358 44.6084 333.476C52.7261 334.252 60.2395 338.098 65.6095 344.226C70.9795 350.355 73.7996 358.301 73.4921 366.439C73.4921 408.087 73.4921 449.959 73.4921 491.496C73.4921 507.254 80.0718 513.768 95.7961 513.768C136.891 513.768 177.931 514.214 219.026 513.768C235.754 513.768 253.931 524.904 252.091 547.176C252.14 552.143 251.879 557.108 251.311 562.043C249.897 569.34 245.928 575.897 240.115 580.539C234.301 585.181 227.023 587.605 219.583 587.377C214.844 587.377 210.16 587.377 204.751 587.377V604.081C204.751 622.233 204.082 640.384 204.751 658.48C205.42 676.576 198.116 689.327 180.997 696.009H164.715C147.374 688.715 141.073 675.296 141.854 657.033C142.634 638.77 141.854 620.785 141.854 602.633V587.6H103.937C93.7329 614.382 83.1385 640.83 73.6036 667.668C68.6409 681.643 61.0576 692 46.2812 696.009H35.1292C34.8905 695.643 34.5884 695.322 34.237 695.062C11.933 686.877 5.01878 671.454 13.2155 649.627C21.4122 627.801 29.2186 607.366 37.2481 586.263L42.0992 573.123C23.2867 561.403 9.40696 543.226 3.06718 522.009C1.95198 518.39 0.892544 514.77 -0.222656 510.873L0.00038375 357.53ZM18.6242 434.313C18.6242 454.914 18.6242 475.572 18.6242 496.173C18.6677 505.726 20.6043 515.176 24.3226 523.978C28.0408 532.78 33.4671 540.76 40.2886 547.457C47.11 554.155 55.1917 559.438 64.0677 563.002C72.9437 566.567 82.4384 568.341 92.0044 568.223C133.936 568.223 175.923 568.223 217.91 568.223C230.68 568.223 234.638 563.101 234.638 546.842C234.638 537.265 229.397 532.866 217.91 532.866H95.9633C69.6446 532.866 54.4779 517.833 54.4779 491.719C54.4779 450.738 54.4779 409.758 54.4779 368.722C54.4779 356.751 49.7941 352.296 37.3596 352.018C23.2523 352.018 18.7357 355.86 18.68 368.276C18.5685 390.493 18.6242 412.486 18.6242 434.313ZM60.6673 581.642C59.9424 583.09 59.2175 584.426 58.6599 585.874C49.5896 609.705 40.5379 633.536 31.5048 657.367C28.2707 666.053 31.0029 673.458 38.0845 676.075C45.166 678.692 51.0208 674.85 54.3664 666.053C63.6225 641.554 72.9159 617.073 82.2464 592.611C82.9155 590.829 83.3616 588.936 83.975 587.043L60.6673 581.642ZM161.983 587.21C161.983 613.881 161.983 639.828 161.983 665.83C162.075 667.367 162.472 668.871 163.153 670.252C163.833 671.634 164.783 672.867 165.946 673.878C167.109 674.888 168.462 675.658 169.926 676.14C171.39 676.623 172.936 676.809 174.473 676.688C177.673 676.6 180.711 675.262 182.932 672.96C185.153 670.659 186.381 667.579 186.35 664.383C186.35 640.366 186.35 616.368 186.35 592.388C186.35 590.662 186.016 588.992 185.848 587.21H161.983Z" fill="#2D59A8"/>
<path d="M483.441 173.154V235.015C483.441 245.26 480.263 248.545 470.226 248.545C457.959 248.545 445.692 248.545 433.48 248.545C424.726 248.545 421.604 245.371 421.604 236.63C421.604 194.498 421.604 152.386 421.604 110.292C421.604 101.16 424.838 97.9307 433.815 97.875C446.472 97.875 459.186 97.875 471.899 97.875C480.263 97.875 483.386 100.993 483.441 109.345C483.497 130.615 483.441 151.885 483.441 173.154ZM463.479 229.558V117.252H441.175V229.558H463.479Z" fill="#3293D0"/>
<path d="M317.832 187.591C317.832 170.887 317.832 154.573 317.832 138.036C317.832 128.236 321.122 125.062 330.88 125.062C342.924 125.062 354.931 125.062 366.901 125.062C375.711 125.062 379.391 128.682 379.391 137.423C379.391 170.238 379.391 203.033 379.391 235.81C379.391 244.886 375.655 248.505 366.566 248.561C354.132 248.561 341.642 248.561 329.207 248.561C320.564 248.561 318.055 245.721 318.055 237.091C318.055 220.387 318.055 204.017 318.055 187.535L317.832 187.591ZM336.735 144.439V229.295H359.039V144.439H336.735Z" fill="#3293D0"/>
<path d="M213.561 200.445C213.561 188.196 213.561 176.002 213.561 163.808C213.561 155.79 217.186 152.282 225.215 152.227C238.096 152.227 251.032 152.227 263.913 152.227C271.552 152.227 275.065 155.79 275.065 163.363C275.065 188.047 275.065 212.695 275.065 237.306C275.065 244.878 271.273 248.442 263.578 248.442C250.419 248.442 237.315 248.442 224.156 248.442C216.405 248.442 213.283 244.878 213.004 237.306C213.004 225.056 213.004 212.862 213.004 200.668L213.561 200.445ZM233.412 171.548V229.065H255.716V171.603L233.412 171.548Z" fill="#3293D0"/>
</g>
<defs>
<clipPath id="clip0">
<rect width="697" height="696" fill="white"/>
</clipPath>
</defs>
</svg>
