<?xml version="1.0" standalone="no"?>
<!DOCTYPE svg PUBLIC "-//W3C//DTD SVG 20010904//EN"
 "http://www.w3.org/TR/2001/REC-SVG-20010904/DTD/svg10.dtd">
<svg version="1.0" xmlns="http://www.w3.org/2000/svg"
 width="1232.000000pt" height="400.000000pt" viewBox="0 0 1232.000000 400.000000"
 preserveAspectRatio="xMidYMid meet">

<g transform="translate(0.000000,400.000000) scale(0.100000,-0.100000)"
fill="#000000" stroke="none">
<path d="M70 3982 c-21 -10 -42 -32 -53 -53 -16 -34 -17 -120 -15 -1467 l3
-1432 155 155 c85 85 169 161 187 170 71 34 151 9 200 -64 27 -41 30 -105 7
-141 -9 -14 -138 -147 -286 -296 l-269 -270 3 -253 3 -253 37 -34 38 -34 3957
0 3958 0 550 549 c602 602 566 572 673 556 44 -6 55 -15 184 -143 128 -129
136 -140 143 -186 15 -98 14 -100 -338 -454 l-321 -322 1669 0 c1316 0 1675 3
1695 13 13 7 35 28 47 46 l23 34 0 1226 0 1226 -362 -362 c-246 -245 -375
-367 -400 -378 -92 -38 -143 -13 -300 145 -118 119 -138 152 -138 220 1 63 40
107 619 685 l581 580 0 225 c0 254 -6 280 -70 312 -33 17 -263 18 -4377 18
l-4342 0 -10 -37 c-9 -31 -66 -93 -298 -325 -252 -250 -293 -287 -326 -294
-80 -14 -168 44 -182 120 -15 75 -5 88 223 319 l216 217 -1524 0 c-1432 0
-1527 -1 -1560 -18z"/>
<path d="M2964 3788 c-121 -122 -216 -227 -224 -245 -39 -100 71 -212 168
-171 37 15 580 552 593 586 5 13 9 28 9 33 0 5 -70 9 -168 9 l-168 0 -210
-212z"/>
<path d="M11738 2833 c-448 -448 -580 -586 -588 -613 -6 -19 -7 -55 -4 -80 6
-41 18 -56 133 -172 143 -144 174 -161 254 -139 39 11 89 57 416 385 l371 371
-2 413 -3 412 -577 -577z"/>
<path d="M355 1339 c-11 -6 -95 -86 -188 -178 l-167 -166 0 -190 0 -190 261
260 c143 143 267 272 275 287 19 37 18 72 -7 119 -30 60 -117 88 -174 58z"/>
<path d="M9105 1081 c-16 -11 -268 -256 -560 -545 l-529 -526 420 0 419 0 327
328 c180 180 332 340 337 355 15 39 14 93 -3 125 -17 32 -242 255 -273 271
-34 17 -105 13 -138 -8z"/>
</g>
</svg>
