<svg width="840" height="747" viewBox="0 0 840 747" fill="none" xmlns="http://www.w3.org/2000/svg">
<g clip-path="url(#clip0)">
<path d="M346.165 659.541H286.606C286.606 636.67 277.534 614.737 261.385 598.565C245.236 582.393 223.334 573.308 200.496 573.308C177.659 573.308 155.756 582.393 139.608 598.565C123.459 614.737 114.387 636.67 114.387 659.541H36.9048C33.6423 659.541 30.5134 658.243 28.2064 655.932C25.8995 653.622 24.6034 650.489 24.6034 647.222V589.919H75.0335C76.651 589.926 78.2539 589.613 79.7497 588.996C81.2455 588.38 82.6045 587.472 83.7483 586.327C84.8921 585.182 85.7979 583.821 86.4135 582.323C87.0291 580.825 87.3422 579.22 87.3348 577.6V514.778L202.5 495.547C204.523 495.215 206.434 494.392 208.066 493.15L338.205 391.923C353.325 380.195 371.904 373.823 391.028 373.807H487.269C490.395 373.596 493.325 372.204 495.466 369.911C497.606 367.619 498.797 364.598 498.797 361.46C498.797 358.321 497.606 355.3 495.466 353.008C493.325 350.716 490.395 349.323 487.269 349.113H391.028C366.342 349.112 342.356 357.328 322.842 372.469L212.798 458.256V275.868H263.172C266.435 275.868 269.564 274.57 271.87 272.26C274.177 269.949 275.474 266.816 275.474 263.549V133.391C275.474 130.124 274.177 126.99 271.87 124.68C269.564 122.37 266.435 121.072 263.172 121.072C259.91 121.072 256.781 122.37 254.474 124.68C252.167 126.99 250.871 130.124 250.871 133.391V251.23H87.3348V24.638H250.871V79.7112C250.871 82.9784 252.167 86.1118 254.474 88.4221C256.781 90.7323 259.91 92.0302 263.172 92.0302C266.435 92.0302 269.564 90.7323 271.87 88.4221C274.177 86.1118 275.474 82.9784 275.474 79.7112V12.319C275.474 9.0518 274.177 5.91842 271.87 3.60815C269.564 1.29789 266.435 0 263.172 0L75.0335 0C73.418 0 71.8184 0.31864 70.326 0.937729C68.8335 1.55682 67.4774 2.46423 66.3351 3.60815C65.1928 4.75208 64.2867 6.11012 63.6685 7.60473C63.0503 9.09934 62.7321 10.7013 62.7321 12.319V263.549C62.7321 265.166 63.0503 266.768 63.6685 268.263C64.2867 269.758 65.1928 271.116 66.3351 272.26C67.4774 273.403 68.8335 274.311 70.326 274.93C71.8184 275.549 73.418 275.868 75.0335 275.868H125.464V483.451L51.4327 495.77C37.0303 498.108 23.9349 505.519 14.5054 516.669C5.07587 527.819 -0.0678886 541.974 0.000676717 556.585V647.222C0.0153992 657.019 3.90823 666.41 10.8259 673.338C17.7436 680.266 27.1217 684.164 36.9048 684.179H117.615C122.705 702.267 133.557 718.194 148.518 729.538C163.479 740.882 181.731 747.021 200.496 747.021C219.262 747.021 237.514 740.882 252.475 729.538C267.436 718.194 278.287 702.267 283.378 684.179H346.165C349.427 684.179 352.556 682.881 354.863 680.57C357.17 678.26 358.466 675.127 358.466 671.86C358.466 668.592 357.17 665.459 354.863 663.149C352.556 660.839 349.427 659.541 346.165 659.541ZM150.289 275.868H188.139V472.972L150.289 479.382V275.868ZM55.663 520.074L62.9548 518.903V565.281H24.6034V556.585C24.5872 547.791 27.7075 539.281 33.402 532.587C39.0965 525.893 46.9909 521.455 55.663 520.074ZM200.385 722.306C188.208 722.361 176.289 718.796 166.138 712.061C155.987 705.327 148.06 695.726 143.362 684.476C138.664 673.226 137.406 660.833 139.748 648.866C142.09 636.9 147.926 625.899 156.516 617.256C165.107 608.614 176.066 602.72 188.005 600.321C199.943 597.922 212.324 599.125 223.58 603.779C234.835 608.432 244.457 616.327 251.228 626.462C257.999 636.597 261.613 648.517 261.614 660.711C261.599 676.995 255.152 692.611 243.681 704.151C232.209 715.691 216.645 722.218 200.385 722.306Z" fill="#2D59A8"/>
<path d="M814.065 497.662L734.412 472.857L679.084 395.431C668.825 381.115 655.312 369.448 639.662 361.394C624.012 353.34 606.673 349.129 589.078 349.109H540.93C537.803 349.32 534.873 350.712 532.733 353.005C530.592 355.297 529.402 358.318 529.402 361.456C529.402 364.595 530.592 367.616 532.733 369.908C534.873 372.2 537.803 373.593 540.93 373.803H588.966C602.648 373.811 616.132 377.075 628.306 383.326C640.481 389.577 650.998 398.636 658.99 409.757L716.823 490.527C718.379 492.707 720.609 494.313 723.168 495.098L806.662 521.13C809.174 521.904 811.372 523.463 812.935 525.58C814.498 527.697 815.342 530.259 815.345 532.891V533.839H764.915C763.295 533.846 761.692 534.174 760.199 534.803C758.705 535.432 757.351 536.351 756.213 537.506C755.075 538.661 754.176 540.03 753.568 541.534C752.96 543.037 752.655 544.647 752.669 546.269V609.091C752.669 612.358 753.965 615.491 756.272 617.801C758.579 620.112 761.708 621.41 764.971 621.41H815.401V632.892L762.076 659.593H725.617C725.046 637.109 715.726 615.739 699.645 600.039C683.564 584.339 661.994 575.552 639.536 575.552C617.077 575.552 595.507 584.339 579.426 600.039C563.345 615.739 554.025 637.109 553.454 659.593H399.77C396.508 659.593 393.379 660.891 391.072 663.201C388.765 665.511 387.469 668.645 387.469 671.912C387.469 675.179 388.765 678.313 391.072 680.623C393.379 682.933 396.508 684.231 399.77 684.231H556.627C561.698 702.329 572.539 718.269 587.497 729.624C602.455 740.978 620.71 747.124 639.48 747.124C658.25 747.124 676.505 740.978 691.463 729.624C706.421 718.269 717.262 702.329 722.333 684.231H764.915C766.844 684.239 768.749 683.8 770.481 682.949L833.213 651.51C835.278 650.481 837.012 648.889 838.213 646.917C839.414 644.944 840.035 642.672 840.003 640.362V532.947C840.029 525.058 837.522 517.369 832.851 511.016C828.181 504.663 821.595 499.981 814.065 497.662ZM639.508 722.303C627.357 722.237 615.498 718.568 605.428 711.76C595.357 704.952 587.526 695.309 582.921 684.048C578.317 672.788 577.147 660.414 579.558 648.487C581.969 636.561 587.853 625.617 596.468 617.037C605.083 608.456 616.043 602.623 627.965 600.273C639.887 597.923 652.236 599.162 663.456 603.834C674.675 608.506 684.262 616.401 691.005 626.522C697.749 636.644 701.348 648.54 701.349 660.708C701.334 677.049 694.841 692.716 683.298 704.265C671.754 715.815 656.104 722.303 639.786 722.303H639.508ZM777.272 596.716V558.532H815.401V596.716H777.272Z" fill="#2D59A8"/>
<path d="M672.57 527.144C683.703 524.692 687.154 518.226 682.589 507.635L617.52 416.719C616.377 415.124 614.874 413.823 613.132 412.922C611.391 412.021 609.461 411.546 607.501 411.535H378.506C375.762 411.543 373.099 412.464 370.936 414.155L255.659 503.956C247.681 514.881 250.186 522.313 263.174 526.253L672.57 527.423V527.144ZM383.126 436.173H501.798V502.005L298.965 501.67L383.126 436.173ZM526.401 502.06V436.173H601.155L648.524 502.395L526.401 502.06Z" fill="#3293D0"/>
<path d="M451.364 565.281C448.237 565.492 445.307 566.884 443.167 569.176C441.027 571.469 439.836 574.49 439.836 577.628C439.836 580.766 441.027 583.787 443.167 586.08C445.307 588.372 448.237 589.764 451.364 589.975H514.096C517.222 589.764 520.152 588.372 522.293 586.08C524.433 583.787 525.624 580.766 525.624 577.628C525.624 574.49 524.433 571.469 522.293 569.176C520.152 566.884 517.222 565.492 514.096 565.281H451.364Z" fill="#3293D0"/>
<path d="M137.766 62.8203C136.151 62.8203 134.551 63.139 133.059 63.758C131.566 64.3771 130.21 65.2845 129.068 66.4285C127.926 67.5724 127.019 68.9304 126.401 70.425C125.783 71.9196 125.465 73.5216 125.465 75.1393V200.671C125.465 203.967 126.773 207.129 129.1 209.46C131.428 211.791 134.585 213.101 137.878 213.101C141.17 213.101 144.327 211.791 146.655 209.46C148.982 207.129 150.29 203.967 150.29 200.671V150.503H200.386C203.649 150.503 206.778 149.205 209.085 146.895C211.392 144.584 212.688 141.451 212.688 138.184V75.1393C212.688 73.5216 212.37 71.9196 211.751 70.425C211.133 68.9304 210.227 67.5724 209.085 66.4285C207.942 65.2845 206.586 64.3771 205.094 63.758C203.601 63.139 202.002 62.8203 200.386 62.8203H137.766ZM188.196 125.642H150.29V87.4583H188.419L188.196 125.642Z" fill="#3293D0"/>
<path d="M200.387 620.461C192.439 620.461 184.669 622.821 178.06 627.244C171.451 631.666 166.3 637.951 163.258 645.305C160.217 652.659 159.421 660.751 160.971 668.558C162.522 676.365 166.35 683.536 171.97 689.165C177.591 694.793 184.751 698.626 192.547 700.179C200.343 701.732 208.423 700.935 215.767 697.889C223.11 694.843 229.387 689.685 233.803 683.066C238.219 676.448 240.576 668.667 240.576 660.707C240.546 650.042 236.303 639.822 228.772 632.281C221.242 624.74 211.037 620.49 200.387 620.461ZM200.387 676.203C197.305 676.203 194.292 675.288 191.729 673.573C189.166 671.858 187.168 669.42 185.988 666.568C184.809 663.716 184.5 660.578 185.101 657.55C185.703 654.523 187.187 651.742 189.367 649.559C191.547 647.376 194.324 645.89 197.347 645.287C200.37 644.685 203.504 644.994 206.352 646.176C209.2 647.357 211.634 649.357 213.346 651.924C215.059 654.491 215.973 657.508 215.973 660.595C215.973 664.735 214.331 668.705 211.408 671.632C208.485 674.559 204.521 676.203 200.387 676.203Z" fill="#3293D0"/>
<path d="M639.504 620.461C631.558 620.472 623.793 622.842 617.191 627.271C610.59 631.7 605.448 637.989 602.414 645.344C599.381 652.699 598.593 660.789 600.15 668.592C601.707 676.396 605.539 683.562 611.162 689.185C616.784 694.807 623.945 698.635 631.739 700.183C639.534 701.732 647.611 700.931 654.951 697.884C662.292 694.836 668.565 689.678 672.978 683.06C677.392 676.443 679.747 668.664 679.747 660.707C679.733 650.028 675.486 639.791 667.941 632.245C660.395 624.699 650.167 620.461 639.504 620.461ZM639.504 676.203C636.421 676.203 633.408 675.288 630.845 673.573C628.282 671.858 626.284 669.42 625.105 666.568C623.925 663.716 623.616 660.578 624.218 657.55C624.819 654.523 626.303 651.742 628.483 649.559C630.663 647.376 633.44 645.89 636.463 645.287C639.486 644.685 642.62 644.994 645.468 646.176C648.316 647.357 650.75 649.357 652.462 651.924C654.175 654.491 655.089 657.508 655.089 660.595C655.089 664.735 653.447 668.705 650.524 671.632C647.601 674.559 643.637 676.203 639.504 676.203Z" fill="#3293D0"/>
</g>
<defs>
<clipPath id="clip0">
<rect width="840" height="747" fill="white"/>
</clipPath>
</defs>
</svg>
