<svg width="554" height="554" viewBox="0 0 554 554" fill="none" xmlns="http://www.w3.org/2000/svg">
<g clip-path="url(#clip0)">
<path d="M550.828 101.613L452.333 3.17392C451.339 2.16025 450.152 1.35689 448.841 0.811653C447.531 0.266421 446.124 -0.00952368 444.705 0.000250875H123.329C114.724 0.0149721 106.476 3.43964 100.392 9.52397C94.3078 15.6083 90.8831 23.8562 90.8684 32.4608V53.0618C64.1102 63.568 41.1333 81.8842 24.9271 105.628C8.72087 129.371 0.0356124 157.442 0.00126137 186.189C-0.0434927 187.635 0.202822 189.076 0.72558 190.425C1.24834 191.774 2.03688 193.005 3.0444 194.044C4.05191 195.082 5.25785 195.908 6.59063 196.472C7.9234 197.035 9.35583 197.325 10.8029 197.324H142.928C144.375 197.325 145.807 197.035 147.14 196.472C148.473 195.908 149.679 195.082 150.686 194.044C151.694 193.005 152.482 191.774 153.005 190.425C153.528 189.076 153.774 187.635 153.729 186.189V54.1196C153.774 52.6733 153.528 51.2327 153.005 49.8834C152.482 48.5341 151.694 47.3035 150.686 46.2649C149.679 45.2262 148.473 44.4005 147.14 43.8369C145.807 43.2733 144.375 42.9833 142.928 42.984C132.706 42.9972 122.515 44.0985 112.527 46.269V32.4608C112.527 29.596 113.665 26.8486 115.691 24.8229C117.717 22.7972 120.464 21.6591 123.329 21.6591H433.903V87.638C433.903 96.2471 437.323 104.504 443.41 110.591C449.498 116.679 457.754 120.099 466.363 120.099H532.342V521.54C532.342 524.404 531.204 527.152 529.179 529.178C527.153 531.203 524.406 532.341 521.541 532.341H123.329C120.464 532.341 117.717 531.203 115.691 529.178C113.665 527.152 112.527 524.404 112.527 521.54V428.724C112.331 425.986 111.105 423.424 109.095 421.554C107.086 419.683 104.443 418.644 101.698 418.644C98.9528 418.644 96.3097 419.683 94.3004 421.554C92.2911 423.424 91.0648 425.986 90.8684 428.724V521.54C90.8831 530.144 94.3078 538.392 100.392 544.477C106.476 550.561 114.724 553.986 123.329 554H521.541C530.145 553.986 538.393 550.561 544.478 544.477C550.562 538.392 553.987 530.144 554.001 521.54V109.52C554.033 106.568 552.892 103.724 550.828 101.613ZM132.126 175.387H22.2726C24.8468 147.109 37.2445 120.626 57.3125 100.538C77.3805 80.4498 103.851 68.0252 132.126 65.4224V175.387ZM455.506 87.638V36.915L517.086 98.4397H466.363C463.516 98.3697 460.803 97.2109 458.783 95.2017C456.764 93.1924 455.591 90.4856 455.506 87.638Z" fill="#2D59A8"/>
<path d="M94.0406 381.898C92.5306 383.412 91.5039 385.34 91.0905 387.438C90.6771 389.536 90.8957 391.709 91.7185 393.683C92.5413 395.656 93.9314 397.341 95.7126 398.524C97.4938 399.707 99.586 400.335 101.724 400.328C103.143 400.334 104.549 400.057 105.859 399.512C107.169 398.967 108.357 398.165 109.352 397.154C110.359 396.155 111.158 394.967 111.703 393.658C112.248 392.349 112.529 390.944 112.529 389.526C112.529 388.108 112.248 386.704 111.703 385.395C111.158 384.086 110.359 382.897 109.352 381.898C108.366 380.867 107.183 380.045 105.872 379.48C104.562 378.916 103.151 378.621 101.724 378.613C100.289 378.623 98.8711 378.919 97.5518 379.483C96.2326 380.047 95.0389 380.868 94.0406 381.898Z" fill="#2D59A8"/>
<path d="M324.607 224.942C324.562 187.049 309.49 150.721 282.696 123.927C255.901 97.1323 219.573 82.0598 181.68 82.0156C180.257 82.0156 178.848 82.2968 177.534 82.8431C176.22 83.3895 175.026 84.1901 174.023 85.199C173.019 86.2079 172.224 87.4053 171.685 88.7222C171.145 90.0392 170.871 91.4497 170.879 92.8729V214.14H49.5555C46.7295 214.199 44.0389 215.362 42.0611 217.382C40.0834 219.401 38.976 222.115 38.9766 224.942C38.9766 262.848 54.0348 299.202 80.8387 326.006C107.643 352.81 143.997 367.868 181.903 367.868C219.809 367.868 256.163 352.81 282.967 326.006C309.771 299.202 324.829 262.848 324.829 224.942H324.607ZM259.407 131.959L192.593 198.773V104.12C217.191 106.336 240.514 116.054 259.407 131.959ZM60.8582 235.799H181.68C183.098 235.8 184.502 235.52 185.811 234.975C187.121 234.43 188.309 233.632 189.308 232.626L274.719 147.215C286.913 161.817 295.5 179.083 299.787 197.617C304.074 216.151 303.941 235.434 299.397 253.907C294.854 272.381 286.028 289.526 273.633 303.957C261.238 318.389 245.622 329.701 228.046 336.981C210.471 344.262 191.429 347.305 172.46 345.865C153.491 344.425 135.126 338.542 118.851 328.692C102.576 318.842 88.8463 305.302 78.7719 289.165C68.6975 273.028 62.5609 254.747 60.8582 235.799Z" fill="#2D59A8"/>
<path d="M305.077 372.636C311.165 378.723 314.584 386.98 314.584 395.589C314.593 399.629 313.838 403.634 312.357 407.393L353.949 448.929C358.297 446.856 363.052 445.781 367.869 445.781C372.685 445.781 377.441 446.856 381.788 448.929L444.092 386.569C441.109 379.504 440.718 371.613 442.99 364.288C445.261 356.964 450.048 350.677 456.505 346.54C462.962 342.403 470.673 340.681 478.277 341.679C485.88 342.676 492.887 346.329 498.058 351.992C503.229 357.655 506.232 364.963 506.537 372.626C506.842 380.288 504.429 387.812 499.724 393.868C495.019 399.924 488.325 404.122 480.825 405.72C473.325 407.319 465.501 406.215 458.736 402.604L396.988 464.352C399.313 469.313 400.344 474.782 399.985 480.249C399.627 485.716 397.89 491.003 394.937 495.618C391.985 500.233 387.912 504.025 383.099 506.642C378.285 509.259 372.888 510.615 367.409 510.584C361.931 510.553 356.549 509.135 351.766 506.464C346.983 503.792 342.954 499.953 340.054 495.305C337.154 490.657 335.478 485.35 335.181 479.879C334.885 474.409 335.978 468.952 338.359 464.018L298.159 423.818C293.27 426.591 287.745 428.049 282.124 428.049C277.136 428.056 272.216 426.893 267.759 424.653L228.283 464.185C231.326 470.547 232.218 477.725 230.825 484.638C229.432 491.552 225.83 497.825 220.56 502.512C215.291 507.198 208.641 510.045 201.612 510.623C194.584 511.2 187.558 509.477 181.594 505.713C175.631 501.949 171.052 496.348 168.55 489.754C166.047 483.161 165.756 475.933 167.72 469.16C169.684 462.387 173.797 456.436 179.438 452.204C185.08 447.972 191.944 445.689 198.996 445.699C203.815 445.7 208.573 446.785 212.916 448.873L252.67 409.174C250.675 404.924 249.648 400.284 249.663 395.589C249.663 386.98 253.083 378.723 259.171 372.636C265.258 366.548 273.515 363.128 282.124 363.128C290.733 363.128 298.989 366.548 305.077 372.636Z" fill="#3293D0"/>
<path d="M362.802 275.896H419.928C422.792 275.896 425.54 274.758 427.566 272.733C429.591 270.707 430.729 267.959 430.729 265.095C430.729 262.23 429.591 259.482 427.566 257.457C425.54 255.431 422.792 254.293 419.928 254.293H362.802C359.937 254.293 357.189 255.431 355.164 257.457C353.138 259.482 352 262.23 352 265.095C352 267.959 353.138 270.707 355.164 272.733C357.189 274.758 359.937 275.896 362.802 275.896Z" fill="#3293D0"/>
<path d="M461.521 257.454C459.524 259.496 458.388 262.226 458.348 265.082C458.36 267.976 459.498 270.752 461.521 272.821C463.589 274.779 466.329 275.87 469.177 275.87C472.025 275.87 474.765 274.779 476.833 272.821C478.843 270.766 479.98 268.012 480.007 265.138C479.992 262.277 478.849 259.538 476.827 257.516C474.804 255.493 472.065 254.351 469.205 254.336C466.338 254.347 463.586 255.464 461.521 257.454Z" fill="#3293D0"/>
<path d="M362.803 172.053H494.983C497.721 171.857 500.283 170.631 502.154 168.621C504.024 166.612 505.064 163.969 505.064 161.224C505.064 158.479 504.024 155.836 502.154 153.827C500.283 151.817 497.721 150.591 494.983 150.395H362.803C360.065 150.591 357.503 151.817 355.633 153.827C353.762 155.836 352.723 158.479 352.723 161.224C352.723 163.969 353.762 166.612 355.633 168.621C357.503 170.631 360.065 171.857 362.803 172.053Z" fill="#3293D0"/>
<path d="M362.803 223.995H494.983C497.721 223.798 500.283 222.572 502.154 220.563C504.024 218.554 505.064 215.91 505.064 213.165C505.064 210.42 504.024 207.777 502.154 205.768C500.283 203.759 497.721 202.532 494.983 202.336H362.803C360.065 202.532 357.503 203.759 355.633 205.768C353.762 207.777 352.723 210.42 352.723 213.165C352.723 215.91 353.762 218.554 355.633 220.563C357.503 222.572 360.065 223.798 362.803 223.995Z" fill="#3293D0"/>
</g>
<defs>
<clipPath id="clip0">
<rect width="554" height="554" fill="white"/>
</clipPath>
</defs>
</svg>
