<svg width="448" height="463" viewBox="0 0 448 463" fill="none" xmlns="http://www.w3.org/2000/svg">
<path d="M137.951 287.486C132.615 282.686 126.434 278.917 119.723 276.37C112.496 273.629 104.819 272.267 97.0908 272.356C88.704 272.28 80.3843 273.854 72.6053 276.987C65.2763 279.918 58.5869 284.244 52.9087 289.725C47.3052 295.16 42.8184 301.637 39.7004 308.792C36.4877 316.25 34.8571 324.293 34.9115 332.414C34.9021 340.349 36.4232 348.212 39.3915 355.572C42.331 362.733 46.6629 369.24 52.1363 374.717C57.8601 380.364 64.664 384.801 72.1418 387.763C80.5579 391.039 89.5269 392.664 98.5584 392.549C105.886 392.612 113.188 391.677 120.263 389.77C126.884 387.86 133.203 385.027 139.033 381.355L132.622 368.773C129.687 370.625 127.06 372.169 124.898 373.404C122.414 374.587 119.829 375.543 117.174 376.261C114.389 376.979 111.545 377.444 108.677 377.65C105.742 377.65 102.266 377.65 98.4039 377.65C91.9407 377.705 85.5153 376.661 79.4025 374.562C73.7162 372.653 68.4654 369.636 63.9542 365.685C59.4354 361.714 55.8261 356.817 53.3722 351.326C50.66 345.232 49.3155 338.619 49.4329 331.95C49.4048 325.795 50.6404 319.7 53.0632 314.041C55.3412 308.588 58.7352 303.67 63.0273 299.606C67.4984 295.414 72.7462 292.136 78.4756 289.956C84.5552 287.593 91.0312 286.413 97.5542 286.482C103.256 286.406 108.927 287.32 114.316 289.184C119.3 290.864 123.915 293.485 127.91 296.904C131.779 300.168 134.866 304.256 136.947 308.869C139.195 313.703 140.33 318.978 140.269 324.308C140.32 327.796 139.904 331.275 139.033 334.652C138.317 337.62 137.2 340.477 135.711 343.144C134.39 345.442 132.663 347.482 130.614 349.165C128.786 350.605 126.53 351.393 124.203 351.404C123.854 351.404 123.51 351.32 123.2 351.158C122.891 350.997 122.625 350.763 122.426 350.477C121.908 349.788 121.637 348.946 121.654 348.084C121.654 345.684 121.809 343.286 122.117 340.905L126.597 303.62H112.539L111.149 311.339C109.551 308.489 107.09 306.219 104.12 304.855C100.59 303.041 96.654 302.164 92.688 302.307C88.7414 302.287 84.8299 303.048 81.1791 304.546C77.495 306.023 74.1166 308.169 71.2149 310.876C68.3018 313.725 65.9214 317.071 64.186 320.757C62.3614 324.769 61.4173 329.126 61.4173 333.533C61.4173 337.94 62.3614 342.296 64.186 346.309C66.003 350.012 68.4021 353.4 71.2922 356.344C74.0472 359.054 77.2647 361.25 80.7929 362.829C83.9085 364.309 87.3075 365.099 90.757 365.144C93.5811 365.116 96.3879 364.7 99.0991 363.909C102.727 362.671 105.973 360.517 108.523 357.656C109.995 359.923 111.913 361.867 114.161 363.369C116.323 364.764 118.849 365.489 121.422 365.453C126.2 365.709 130.97 364.809 135.325 362.829C139.32 360.801 142.825 357.93 145.598 354.414C148.542 350.488 150.765 346.071 152.164 341.368C153.812 335.808 154.593 330.028 154.481 324.231C154.521 317.223 153.018 310.291 150.078 303.928C147.177 297.692 143.054 292.101 137.951 287.486V287.486ZM107.055 339.13C105.618 342.76 102.858 345.711 99.3308 347.389C97.5454 348.242 95.5936 348.69 93.6149 348.702C91.4295 348.771 89.2589 348.321 87.2811 347.389C85.4885 346.597 83.8633 345.47 82.4922 344.07C81.1501 342.61 80.0544 340.941 79.248 339.13C78.4829 337.268 78.0893 335.275 78.0894 333.263C78.0853 331.275 78.4792 329.306 79.248 327.473C80.0724 325.671 81.1663 324.005 82.4922 322.533C83.8565 321.105 85.4822 319.952 87.2811 319.136C89.0942 318.284 91.0709 317.836 93.0742 317.824C95.053 317.835 97.0047 318.283 98.7901 319.136C100.589 319.952 102.215 321.105 103.579 322.533C104.956 323.966 106.055 325.641 106.823 327.473C107.617 329.302 108.037 331.27 108.059 333.263C108.035 335.28 107.615 337.273 106.823 339.13H107.055Z" fill="#2D59A8"/>
<path d="M401.656 38.5977H177.656V54.0367H401.656V38.5977Z" fill="#2D59A8"/>
<path d="M378.484 69.4766H177.656V84.9156H378.484V69.4766Z" fill="#2D59A8"/>
<path d="M401.656 100.355H177.656V115.795H401.656V100.355Z" fill="#2D59A8"/>
<path d="M339.863 131.23H177.656V146.67H339.863V131.23Z" fill="#2D59A8"/>
<path d="M64.188 146.671H79.6363V121.119H105.744V146.671H121.192V121.119H146.759V105.68H121.192V79.5884H146.759V64.1493H121.192V38.5977H105.744V64.1493H79.6363V38.5977H64.188V64.1493H38.6211V79.5884H64.188V105.68H38.6211V121.119H64.188V146.671ZM79.6363 79.5884H105.744V105.68H79.6363V79.5884Z" fill="#3293D0"/>
<path d="M409.371 275.672H180.582V291.111H409.371V275.672Z" fill="#3293D0"/>
<path d="M385.658 307.152H180.582V322.591H385.658V307.152Z" fill="#3293D0"/>
<path d="M409.371 338.727H180.582V354.166H409.371V338.727Z" fill="#3293D0"/>
<path d="M346.265 370.234H180.582V385.673H346.265V370.234Z" fill="#3293D0"/>
<path d="M0 0V185.269H62.3338V223.094L110.069 185.269H448V0H0ZM432.552 169.83H104.662L77.7821 191.136V169.83H15.4483V15.4391H432.552V169.83Z" fill="#2D59A8"/>
<path d="M0 424.573H337.931L385.666 462.399V424.573H448V239.305H0V424.573ZM15.4483 254.744H432.552V409.134H370.218V430.44L343.338 409.134H15.4483V254.744Z" fill="#3293D0"/>
</svg>
