<svg id="Group_892" data-name="Group 892" xmlns="http://www.w3.org/2000/svg" width="227.649" height="227.651" viewBox="0 0 227.649 227.651">
  <path id="Path_1406" data-name="Path 1406" d="M770.6,1063.06H751.624a41.912,41.912,0,0,1-25.041-8.348l-18.209-13.659a3.757,3.757,0,0,0-4.556,0l-5.311,3.986V983.383A11.414,11.414,0,0,0,687.124,972h-129a11.414,11.414,0,0,0-11.383,11.383v204.885a11.418,11.418,0,0,0,11.383,11.383h129a11.382,11.382,0,0,0,9.143-4.706l8.046,4.251a3.711,3.711,0,0,0,3.564,0l40.257-21.324a49.175,49.175,0,0,0,26.255-43.556v-67.459a3.8,3.8,0,0,0-3.792-3.8Zm-117.62-83.473h15.178v34.643l-5.5-3.646a3.711,3.711,0,0,0-4.176,0l-5.5,3.646Zm34.148,212.473h-129a3.8,3.8,0,0,1-3.8-3.792V983.383a3.8,3.8,0,0,1,3.8-3.8h87.265v41.738a3.793,3.793,0,0,0,5.881,3.146l9.293-6.184,9.3,6.184a3.793,3.793,0,0,0,5.881-3.146V979.587h11.383a3.8,3.8,0,0,1,3.8,3.8v67.347l-5.311,3.982a41.914,41.914,0,0,1-25.044,8.348H561.916v7.587H637.8v15.178H561.916v7.587H637.8v15.178H561.916v7.587H637.8v15.178H561.916v7.587h76.11a50.058,50.058,0,0,0,3.908,15.178H561.916v7.587H646.11a49.336,49.336,0,0,0,16.2,15.177h-100.4v7.588H675.741v-.381l13.622,7.21a3.87,3.87,0,0,1-2.239.758Zm79.677-57.746a41.69,41.69,0,0,1-22.2,36.88l-38.51,20.373-38.507-20.373a41.69,41.69,0,0,1-22.2-36.88v-63.667h15.175a49.453,49.453,0,0,0,29.6-9.867l15.932-11.95,15.935,11.95a49.444,49.444,0,0,0,29.594,9.867H766.8Zm0,0" transform="translate(-546.741 -972)" fill="#2d59a8"/>
  <rect id="Rectangle_460" data-name="Rectangle 460" width="227.649" height="227.649" fill="none"/>
  <path id="Path_1407" data-name="Path 1407" d="M683.25,1018.962h-3.8a57.358,57.358,0,0,1-34.147-11.383l-9.1-6.833a3.766,3.766,0,0,0-4.556,0l-9.106,6.833a57.344,57.344,0,0,1-34.147,11.383H584.6a3.8,3.8,0,0,0-3.8,3.792v52.284a33.995,33.995,0,0,0,18.175,30.162l33.162,17.567a4,4,0,0,0,3.564,0l33.162-17.567a34,34,0,0,0,18.175-30.162v-52.284a3.8,3.8,0,0,0-3.8-3.792Zm-3.8,56.076a26.43,26.43,0,0,1-14.152,23.448L633.925,1115.1l-31.416-16.615a26.518,26.518,0,0,1-14.114-23.448V1026.55a64.888,64.888,0,0,0,38.7-12.9l6.83-5.124,6.833,5.124a64.887,64.887,0,0,0,38.7,12.9Zm0,0" transform="translate(-474.572 -912.725)" fill="#3293d0"/>
  <rect id="Rectangle_461" data-name="Rectangle 461" width="15.177" height="7.588" transform="translate(15.177 22.765)" fill="#3293d0"/>
  <rect id="Rectangle_462" data-name="Rectangle 462" width="45.53" height="7.588" transform="translate(37.941 22.765)" fill="#3293d0"/>
  <rect id="Rectangle_463" data-name="Rectangle 463" width="68.295" height="7.588" transform="translate(15.177 45.53)" fill="#3293d0"/>
  <rect id="Rectangle_464" data-name="Rectangle 464" width="113.824" height="7.588" transform="translate(15.177 68.295)" fill="#3293d0"/>
</svg>
