<svg id="Group_890" data-name="Group 890" xmlns="http://www.w3.org/2000/svg" width="236.738" height="221.508" viewBox="0 0 236.738 221.508">
  <path id="Path_1392" data-name="Path 1392" d="M344.383,1025.051a3.5,3.5,0,0,0,5.28-.6l23.083-34.833a3.47,3.47,0,0,0-5.785-3.833l-20.8,31.391L334.606,1006.2a3.468,3.468,0,1,0-4.778,5.027s14.542,13.809,14.554,13.821Zm0,0" transform="translate(-230.009 -942.645)" fill="#2d59a8"/>
  <path id="Path_1393" data-name="Path 1393" d="M378.208,1106.2a5.141,5.141,0,0,0,2.124.465h.031a5.044,5.044,0,0,0,2.149-.493c52.734-25.079,61.671-79.185,63.153-95.173a8.293,8.293,0,0,0-5.114-8.457A30.308,30.308,0,0,1,421.927,977.1a6.846,6.846,0,0,0-6.8-6.206h-.041l-71.045.418a6.792,6.792,0,0,0-6.764,6.331,30.308,30.308,0,0,1-18.352,25.615,8.266,8.266,0,0,0-4.983,8.5c1.668,15.97,11.239,69.973,64.263,94.431Zm-56.551-96.555a37.218,37.218,0,0,0,22.531-31.394l70.84-.415a37.226,37.226,0,0,0,22.862,31.11,1.391,1.391,0,0,1,.87,1.413c-1.391,14.984-9.711,65.5-58.441,89.17-49.007-23.1-57.91-73.512-59.479-88.481a1.362,1.362,0,0,1,.817-1.4Zm0,0" transform="translate(-261.468 -970.897)" fill="#2d59a8"/>
  <path id="Path_1394" data-name="Path 1394" d="M320.941,1019.977a3.649,3.649,0,0,0,4.254,2.436,3.472,3.472,0,0,0,2.439-4.254c-.886-3.256-1.628-6.555-2.208-9.826a48.758,48.758,0,0,0,19.84-26l50.083-.3a48.767,48.767,0,0,0,20.146,25.768c-.543,3.278-1.247,6.59-2.1,9.854a3.468,3.468,0,1,0,6.714,1.74c.995-3.836,1.8-7.728,2.4-11.573a5.308,5.308,0,0,0-2.5-5.379,41.838,41.838,0,0,1-18.405-23.592,5.364,5.364,0,0,0-5.1-3.764h-.034l-52.431.309a5.362,5.362,0,0,0-5.083,3.823,41.864,41.864,0,0,1-18.128,23.807,5.305,5.305,0,0,0-2.439,5.407c.649,3.836,1.5,7.719,2.542,11.539Zm0,0" transform="translate(-252.091 -962.01)" fill="#3293d0"/>
  <path id="Path_1395" data-name="Path 1395" d="M407.934,992.961a3.465,3.465,0,0,0-4.528,1.884c-8.015,19.422-20.7,34.191-37.718,43.908-17.152-9.53-30.022-24.175-38.261-43.537a3.469,3.469,0,0,0-6.384,2.719c8.994,21.128,23.161,37.057,42.109,47.339a5.325,5.325,0,0,0,5.146-.028c18.8-10.49,32.772-26.56,41.52-47.756a3.467,3.467,0,0,0-1.884-4.528Zm0,0" transform="translate(-246.92 -924.713)" fill="#3293d0"/>
  <path id="Path_1396" data-name="Path 1396" d="M312.555,1027.8a12.268,12.268,0,1,0,12.271,12.269,12.283,12.283,0,0,0-12.271-12.269Zm0,17.6a5.334,5.334,0,1,1,5.336-5.335,5.341,5.341,0,0,1-5.336,5.335Zm0,0" transform="translate(-290.305 -850.35)" fill="#3293d0"/>
  <path id="Path_1397" data-name="Path 1397" d="M531.338,1040.143a14.447,14.447,0,0,0-19.952-3.857l-45.333,30.343-9.677-.546-.246-2.476a21.048,21.048,0,0,0-18.037-18.8c-.062-.009-.122-.016-.184-.022L389.06,1040.5c-1.656-.259-6.945-1.778-21.48-10.116a53.974,53.974,0,0,0-24.714-7.11V1014.2a8.267,8.267,0,0,0-8.258-8.258H305.344a8.267,8.267,0,0,0-8.258,8.258v89.351a8.267,8.267,0,0,0,8.258,8.258h29.264a8.268,8.268,0,0,0,8.258-8.258v-2.46l42.7,16.169c.094.038,3.561,1.332,9.939.733l70.952-10.229.053-.01a34.9,34.9,0,0,0,16.531-7.406l.128-.109,45.823-41.214a14.447,14.447,0,0,0,2.348-18.886Zm-6.97,13.712-45.773,41.173a28,28,0,0,1-13.157,5.878l-70.9,10.219-.062.01-.034.006a15.549,15.549,0,0,1-6.568-.421l-45.009-17.042v-39.6a3.469,3.469,0,0,0-6.939,0v49.481a1.32,1.32,0,0,1-1.319,1.323H305.344a1.32,1.32,0,0,1-1.319-1.323V1014.2a1.318,1.318,0,0,1,1.319-1.319h29.264a1.318,1.318,0,0,1,1.319,1.319v24.206a3.469,3.469,0,0,0,6.939,0v-8.192a47,47,0,0,1,21.262,6.187c17.535,10.054,22.428,10.75,24.04,10.977l.181.019,48.854,4.282a14.127,14.127,0,0,1,12.022,12.608l.187,1.849L384,1070.177l-.131-.009a7.913,7.913,0,0,1-5.395-2.825,3.468,3.468,0,1,0-5.326,4.444,15.015,15.015,0,0,0,10.1,5.289c2.142.225,69.97-4.222,69.97-4.222l13.6.764a3.456,3.456,0,0,0,2.121-.583l46.307-30.989a7.476,7.476,0,0,1,9.118,11.81Zm0,0" transform="translate(-297.086 -896.646)" fill="#2d59a8"/>
</svg>
