<svg width="654" height="646" viewBox="0 0 654 646" fill="none" xmlns="http://www.w3.org/2000/svg">
<g clip-path="url(#clip0)">
<path d="M510.886 300.88C510.886 299.71 510.886 128.152 510.886 128.152L255.471 0L0.000192858 128.152V297.425C-0.0574156 349.687 12.792 401.151 37.4033 447.232C62.0147 493.312 97.6236 532.578 141.057 561.531L255.471 637.921L343.575 579.082C360.899 601.312 383.359 618.989 409.021 630.587C434.682 642.186 462.775 647.358 490.876 645.659C518.977 643.959 546.245 635.439 570.327 620.832C594.409 606.226 614.584 585.971 629.111 561.814C643.639 537.658 652.084 510.324 653.718 482.17C655.352 454.016 650.126 425.886 638.49 400.206C626.855 374.526 609.159 352.066 586.929 334.762C564.699 317.458 538.601 305.83 510.886 300.88ZM255.471 613.349L152.404 544.537C111.766 517.445 78.4491 480.706 55.4199 437.591C32.3908 394.476 20.3649 346.324 20.4134 297.425V140.633L255.471 22.9003L490.472 140.633V298.595C487.079 298.595 483.742 298.038 480.294 298.038C476.845 298.038 473.452 298.372 470.059 298.595V153.226L255.471 45.7449L40.8821 153.226V297.425C40.8409 342.948 52.0372 387.774 73.4742 427.913C94.9112 468.052 125.924 502.259 163.75 527.487L255.471 588.777L322.217 544.202C325.056 550.456 328.288 556.523 331.895 562.367L255.471 613.349ZM314.652 524.589L255.471 564.094L175.097 510.437C171.148 507.818 167.31 504.865 163.472 502.135V410.645H143.059V484.751C131.84 474.331 121.582 462.919 112.412 450.651V391.422C112.415 384.576 114.697 377.927 118.899 372.528C123.1 367.128 128.979 363.287 135.606 361.613L204.911 344.229C205.991 355.043 210.483 365.232 217.734 373.316C224.985 381.401 234.618 386.963 245.236 389.194V431.15H265.705V389.194C276.303 386.942 285.912 381.371 293.141 373.288C300.37 365.205 304.845 355.028 305.92 344.229L351.418 355.372C331.037 377.828 316.902 405.253 310.43 434.902C303.958 464.551 305.376 495.383 314.541 524.311L314.652 524.589ZM204.354 216.188H232.61C248.326 216.214 263.856 212.791 278.109 206.158H280.89L306.476 240.258V282.938L272.547 308.29H238.45L204.354 282.716V216.188ZM184.775 195.683C185.799 189.355 188.323 183.365 192.136 178.217C195.95 173.068 200.941 168.912 206.69 166.097C229.303 156.058 254.754 154.457 278.442 161.584L280.779 164.982H296.353C297.697 164.982 299.027 165.248 300.269 165.763C301.511 166.278 302.639 167.033 303.589 167.985C304.54 168.937 305.294 170.067 305.808 171.311C306.322 172.555 306.587 173.888 306.587 175.235V206.158L291.235 185.71H273.492L271.323 186.768C259.235 192.819 245.9 195.949 232.388 195.906L184.775 195.683ZM286.118 323.836V339.158C286.37 343.338 285.765 347.525 284.342 351.462C282.918 355.4 280.706 359.003 277.84 362.052C274.975 365.101 271.517 367.53 267.68 369.191C263.842 370.851 259.706 371.708 255.526 371.708C251.346 371.708 247.21 370.851 243.373 369.191C239.535 367.53 236.078 365.101 233.212 362.052C230.347 359.003 228.134 355.4 226.711 351.462C225.287 347.525 224.683 343.338 224.934 339.158V323.669L231.72 328.795H279.444L286.118 323.836ZM306.587 323.167V308.29L327 292.968V175.235C327 171.203 326.207 167.211 324.667 163.486C323.127 159.761 320.87 156.377 318.024 153.526C315.178 150.675 311.799 148.414 308.081 146.871C304.363 145.328 300.377 144.534 296.353 144.534H289.567C274.771 135.507 237.95 133.724 211.696 141.859C197.512 145.404 184.978 153.73 176.196 165.438C167.415 177.146 162.923 191.524 163.472 206.158V216.188H183.941V292.968L204.354 308.29V323.167L130.6 341.777C119.557 344.557 109.757 350.951 102.754 359.945C95.7513 368.938 91.9464 380.016 91.9429 391.422V419.282C71.7524 381.85 61.1816 339.972 61.1841 297.425V165.874L255.471 68.6452L449.646 165.874V297.425C449.646 298.651 449.646 299.821 449.646 300.935C419.855 306.279 391.987 319.363 368.828 338.88L306.587 323.167ZM480.294 625.496C449.966 625.507 420.316 616.506 395.096 599.631C369.876 582.757 350.219 558.769 338.613 530.7C327.007 502.632 323.973 471.746 329.896 441.95C335.818 412.154 350.43 384.787 371.883 363.313C393.336 341.838 420.665 327.22 450.414 321.31C480.162 315.399 510.993 318.461 539.004 330.107C567.015 341.754 590.948 361.462 607.774 386.738C624.601 412.014 633.564 441.722 633.531 472.103C633.531 492.261 629.568 512.222 621.867 530.846C614.166 549.47 602.879 566.392 588.649 580.647C574.42 594.901 557.527 606.208 538.935 613.922C520.344 621.637 500.417 625.607 480.294 625.607V625.496Z" fill="#2D59A8"/>
<path d="M654.001 175.23H531.355V195.679H654.001V175.23Z" fill="#3293D0"/>
<path d="M613.119 216.191H531.355V236.64H613.119V216.191Z" fill="#3293D0"/>
<path d="M572.237 257.133H531.355V277.581H572.237V257.133Z" fill="#3293D0"/>
<path d="M442.639 464.852L406.541 428.635L348.75 486.526L442.639 580.635L601.606 421.392L543.815 363.5L442.639 464.852ZM442.639 551.717L377.618 486.526L406.541 457.609L442.639 493.77L543.815 392.474L572.739 421.392L442.639 551.717Z" fill="#3293D0"/>
</g>
<defs>
<clipPath id="clip0">
<rect width="654" height="646" fill="white"/>
</clipPath>
</defs>
</svg>
