<svg width="546" height="546" viewBox="0 0 546 546" fill="none" xmlns="http://www.w3.org/2000/svg">
<g filter="url(#filter0_d)">
<circle cx="273" cy="273" r="223" fill="white"/>
<circle cx="273" cy="273" r="222.5" stroke="#EEEEEE"/>
</g>
<path fill-rule="evenodd" clip-rule="evenodd" d="M183.012 172.027H192.607V195.175C192.607 202.84 198.859 209.083 206.534 209.083H220.969C228.644 209.083 234.895 202.84 234.895 195.175V172.027H312.047V195.175C312.047 202.84 318.299 209.083 325.974 209.083H340.409C348.084 209.083 354.335 202.84 354.335 195.175V172.027H363.931C377.689 172.027 388.937 183.261 388.937 197V377.681C388.937 391.42 377.689 402.654 363.931 402.654H183.006C169.248 402.654 158 391.42 158 377.681V197C158 183.261 169.248 172.027 183.006 172.027H183.012ZM375.092 241.214V377.676C375.092 383.804 370.073 388.816 363.936 388.816H183.012C176.875 388.816 171.856 383.804 171.856 377.676V241.214H375.092Z" fill="#2D59A8"/>
<path fill-rule="evenodd" clip-rule="evenodd" d="M198.887 261.145H218.318C219.333 261.145 220.162 261.973 220.162 262.986V282.391C220.162 283.404 219.333 284.232 218.318 284.232H198.887C197.872 284.232 197.043 283.404 197.043 282.391V262.986C197.043 261.973 197.872 261.145 198.887 261.145V261.145Z" fill="#3293D0"/>
<path fill-rule="evenodd" clip-rule="evenodd" d="M242.145 261.145H261.576C262.59 261.145 263.42 261.973 263.42 262.986V282.391C263.42 283.404 262.59 284.232 261.576 284.232H242.145C241.13 284.232 240.301 283.404 240.301 282.391V262.986C240.301 261.973 241.13 261.145 242.145 261.145V261.145Z" fill="#3293D0"/>
<path fill-rule="evenodd" clip-rule="evenodd" d="M285.379 261.145H304.816C305.83 261.145 306.659 261.973 306.659 262.986V282.391C306.659 283.404 305.83 284.232 304.816 284.232H285.379C284.364 284.232 283.535 283.404 283.535 282.391V262.986C283.535 261.973 284.364 261.145 285.379 261.145V261.145Z" fill="#3293D0"/>
<path fill-rule="evenodd" clip-rule="evenodd" d="M328.617 261.145H348.048C349.063 261.145 349.892 261.973 349.892 262.986V282.391C349.892 283.404 349.063 284.232 348.048 284.232H328.617C327.603 284.232 326.773 283.404 326.773 282.391V262.986C326.773 261.973 327.603 261.145 328.617 261.145V261.145Z" fill="#3293D0"/>
<path fill-rule="evenodd" clip-rule="evenodd" d="M198.887 303.465H218.318C219.333 303.465 220.162 304.293 220.162 305.306V324.711C220.162 325.724 219.333 326.553 218.318 326.553H198.887C197.872 326.553 197.043 325.724 197.043 324.711V305.306C197.043 304.293 197.872 303.465 198.887 303.465V303.465Z" fill="#3293D0"/>
<path fill-rule="evenodd" clip-rule="evenodd" d="M198.887 345.789H218.318C219.333 345.789 220.162 346.617 220.162 347.63V367.035C220.162 368.049 219.333 368.877 218.318 368.877H198.887C197.872 368.877 197.043 368.049 197.043 367.035V347.63C197.043 346.617 197.872 345.789 198.887 345.789V345.789Z" fill="#3293D0"/>
<path fill-rule="evenodd" clip-rule="evenodd" d="M242.145 303.465H261.576C262.59 303.465 263.42 304.293 263.42 305.306V324.711C263.42 325.724 262.59 326.553 261.576 326.553H242.145C241.13 326.553 240.301 325.724 240.301 324.711V305.306C240.301 304.293 241.13 303.465 242.145 303.465Z" fill="#3293D0"/>
<path fill-rule="evenodd" clip-rule="evenodd" d="M242.145 345.789H261.576C262.59 345.789 263.42 346.617 263.42 347.63V367.035C263.42 368.049 262.59 368.877 261.576 368.877H242.145C241.13 368.877 240.301 368.049 240.301 367.035V347.63C240.301 346.617 241.13 345.789 242.145 345.789Z" fill="#3293D0"/>
<path fill-rule="evenodd" clip-rule="evenodd" d="M285.379 303.465H304.816C305.83 303.465 306.659 304.293 306.659 305.306V324.711C306.659 325.724 305.83 326.553 304.816 326.553H285.379C284.364 326.553 283.535 325.724 283.535 324.711V305.306C283.535 304.293 284.364 303.465 285.379 303.465Z" fill="#3293D0"/>
<path fill-rule="evenodd" clip-rule="evenodd" d="M285.379 345.789H304.816C305.83 345.789 306.659 346.617 306.659 347.63V367.035C306.659 368.049 305.83 368.877 304.816 368.877H285.379C284.364 368.877 283.535 368.049 283.535 367.035V347.63C283.535 346.617 284.364 345.789 285.379 345.789Z" fill="#3293D0"/>
<path fill-rule="evenodd" clip-rule="evenodd" d="M328.617 303.465H348.048C349.063 303.465 349.892 304.293 349.892 305.306V324.711C349.892 325.724 349.063 326.553 348.048 326.553H328.617C327.603 326.553 326.773 325.724 326.773 324.711V305.306C326.773 304.293 327.603 303.465 328.617 303.465Z" fill="#3293D0"/>
<path fill-rule="evenodd" clip-rule="evenodd" d="M328.617 345.789H348.048C349.063 345.789 349.892 346.617 349.892 347.63V367.035C349.892 368.049 349.063 368.877 348.048 368.877H328.617C327.603 368.877 326.773 368.049 326.773 367.035V347.63C326.773 346.617 327.603 345.789 328.617 345.789Z" fill="#3293D0"/>
<path fill-rule="evenodd" clip-rule="evenodd" d="M206.527 144H220.962C223.542 144 225.653 146.108 225.653 148.685V195.171C225.653 197.748 223.542 199.856 220.962 199.856H206.527C203.947 199.856 201.836 197.748 201.836 195.171V148.685C201.836 146.108 203.947 144 206.527 144V144Z" fill="#2D59A8"/>
<path fill-rule="evenodd" clip-rule="evenodd" d="M325.984 144H340.419C342.999 144 345.11 146.108 345.11 148.685V195.171C345.11 197.748 342.999 199.856 340.419 199.856H325.984C323.404 199.856 321.293 197.748 321.293 195.171V148.685C321.293 146.108 323.404 144 325.984 144V144Z" fill="#2D59A8"/>
<defs>
<filter id="filter0_d" x="0" y="0" width="546" height="546" filterUnits="userSpaceOnUse" color-interpolation-filters="sRGB">
<feFlood flood-opacity="0" result="BackgroundImageFix"/>
<feColorMatrix in="SourceAlpha" type="matrix" values="0 0 0 0 0 0 0 0 0 0 0 0 0 0 0 0 0 0 127 0"/>
<feOffset/>
<feGaussianBlur stdDeviation="25"/>
<feColorMatrix type="matrix" values="0 0 0 0 0 0 0 0 0 0 0 0 0 0 0 0 0 0 0.15 0"/>
<feBlend mode="normal" in2="BackgroundImageFix" result="effect1_dropShadow"/>
<feBlend mode="normal" in="SourceGraphic" in2="effect1_dropShadow" result="shape"/>
</filter>
</defs>
</svg>
