<svg width="674" height="685" viewBox="0 0 674 685" fill="none" xmlns="http://www.w3.org/2000/svg">
<path d="M276.239 497.153V408.771C275.242 400.678 271.32 393.228 265.211 387.826C259.102 382.423 251.229 379.441 243.074 379.441C234.919 379.441 227.045 382.423 220.937 387.826C214.828 393.228 210.905 400.678 209.909 408.771V497.153C201.588 503.443 195.219 511.961 191.537 521.719C187.855 531.478 187.011 542.08 189.103 552.298C191.194 562.517 196.136 571.934 203.356 579.462C210.576 586.989 219.78 592.319 229.902 594.835C234.221 595.927 238.649 596.525 243.102 596.617C254.726 596.68 266.074 593.075 275.53 586.315C284.986 579.555 292.069 569.984 295.771 558.966C299.473 547.947 299.605 536.042 296.148 524.944C292.691 513.846 285.822 504.121 276.518 497.153H276.239ZM263.653 567.101C260.146 570.454 255.952 573.003 251.362 574.571C246.771 576.14 241.894 576.69 237.069 576.184C232.244 575.677 227.587 574.126 223.422 571.639C219.257 569.151 215.684 565.787 212.951 561.779C210.217 557.771 208.389 553.216 207.594 548.431C206.798 543.645 207.054 538.744 208.344 534.067C209.634 529.391 211.927 525.051 215.063 521.35C218.199 517.649 222.104 514.675 226.505 512.635C228.189 511.663 229.588 510.268 230.566 508.587C231.543 506.907 232.063 505 232.075 503.056V408.771C232.075 405.817 233.248 402.984 235.337 400.895C237.426 398.807 240.259 397.633 243.213 397.633C246.167 397.633 249 398.807 251.089 400.895C253.178 402.984 254.352 405.817 254.352 408.771V503.446C254.364 505.39 254.884 507.297 255.861 508.977C256.838 510.658 258.238 512.053 259.921 513.025C264.51 515.78 268.37 519.598 271.176 524.156C273.982 528.715 275.652 533.88 276.045 539.219C276.438 544.557 275.542 549.911 273.434 554.831C271.326 559.751 268.067 564.093 263.931 567.491L263.653 567.101Z" fill="#3293D0"/>
<path d="M665.368 408.768L628.777 400.972C610.45 396.755 593.162 388.885 577.946 377.833C562.731 366.78 549.901 352.773 540.225 336.648C539.229 335.024 537.833 333.683 536.17 332.752C534.508 331.821 532.634 331.332 530.729 331.332C528.824 331.332 526.95 331.821 525.288 332.752C523.625 333.683 522.229 335.024 521.233 336.648C507.524 359.29 487.618 377.533 463.869 389.221V342.496C463.861 331.751 460.723 321.241 454.838 312.251C448.953 303.261 440.576 296.179 430.732 291.873V187.842C431.161 162.905 426.62 138.133 417.374 114.969C408.128 91.8059 394.361 70.7157 376.877 52.929C359.394 35.1422 338.543 21.0151 315.541 11.3717C292.539 1.72829 267.848 -3.23828 242.906 -3.23828C217.965 -3.23828 193.273 1.72829 170.271 11.3717C147.27 21.0151 126.419 35.1422 108.935 52.929C91.4514 70.7157 77.6847 91.8059 68.4384 114.969C59.1921 138.133 54.6512 162.905 55.0807 187.842V291.873C45.2986 296.229 36.9918 303.332 31.1687 312.318C25.3457 321.305 22.2568 331.788 22.2773 342.496V375.911H11.1387C8.1845 375.911 5.35134 377.084 3.26244 379.173C1.17353 381.262 0 384.095 0 387.049L0 585.922C0 588.876 1.17353 591.709 3.26244 593.798C5.35134 595.886 8.1845 597.06 11.1387 597.06H22.2773V630.474C22.4673 644.972 28.3489 658.813 38.6533 669.013C48.9577 679.213 62.8589 684.953 77.358 684.996H408.789C423.441 684.996 437.494 679.175 447.855 668.815C458.216 658.454 464.036 644.403 464.036 629.75V628.302C479.18 646.066 496.231 662.108 514.884 676.141L523.517 682.768C525.44 684.201 527.774 684.975 530.172 684.975C532.57 684.975 534.904 684.201 536.827 682.768L545.794 676.141C585.458 646.212 617.66 607.513 639.882 563.071C662.104 518.63 673.743 469.65 673.889 419.962C673.954 417.395 673.131 414.884 671.558 412.855C669.985 410.825 667.758 409.401 665.256 408.824L665.368 408.768ZM77.358 187.842C76.9543 165.825 80.9423 143.949 89.089 123.49C97.2358 103.032 109.378 84.4025 124.806 68.6896C140.234 52.9766 158.639 40.4956 178.945 31.9756C199.251 23.4556 221.052 19.0674 243.073 19.0674C265.095 19.0674 286.895 23.4556 307.202 31.9756C327.508 40.4956 345.913 52.9766 361.341 68.6896C376.769 84.4025 388.911 103.032 397.058 123.49C405.204 143.949 409.192 165.825 408.789 187.842V287.25H364.624V187.842C364.97 171.661 362.082 155.575 356.129 140.525C350.177 125.475 341.279 111.765 329.957 100.199C318.636 88.6336 305.119 79.4446 290.2 73.1713C275.28 66.8979 259.258 63.6665 243.073 63.6665C226.888 63.6665 210.866 66.8979 195.947 73.1713C181.027 79.4446 167.511 88.6336 156.189 100.199C144.868 111.765 135.97 125.475 130.017 140.525C124.064 155.575 121.176 171.661 121.523 187.842V287.25H77.358V187.842ZM342.514 287.25H143.633V187.842C143.319 174.586 145.659 161.401 150.516 149.062C155.372 136.723 162.646 125.48 171.911 115.994C181.176 106.507 192.245 98.9691 204.465 93.8223C216.686 88.6756 229.813 86.0243 243.073 86.0243C256.334 86.0243 269.46 88.6756 281.681 93.8223C293.902 98.9691 304.97 106.507 314.235 115.994C323.5 125.48 330.775 136.723 335.631 149.062C340.487 161.401 342.827 174.586 342.514 187.842V287.25ZM132.606 397.742V441.905H22.2773V397.742H132.606ZM22.2773 574.505V530.342H132.606V574.505H22.2773ZM132.773 508.233H22.2773V464.014H132.606L132.773 508.233ZM442.093 629.75C442.094 638.565 438.611 647.022 432.405 653.28C426.198 659.539 417.77 663.092 408.956 663.165H77.358C68.5438 663.092 60.1157 659.539 53.9091 653.28C47.7025 647.022 44.2202 638.565 44.2205 629.75V596.336H143.633C146.587 596.336 149.42 595.162 151.509 593.074C153.598 590.985 154.772 588.152 154.772 585.198V386.715C154.772 383.761 153.598 380.928 151.509 378.839C149.42 376.75 146.587 375.577 143.633 375.577H44.2205V342.162C44.2205 333.3 47.7411 324.801 54.0078 318.534C60.2745 312.268 68.774 308.747 77.6364 308.747H408.789C417.603 308.821 426.031 312.374 432.237 318.632C438.444 324.891 441.926 333.348 441.926 342.162V397.407C438.64 398.41 435.299 399.412 431.901 400.192L395.422 408.768C392.93 409.356 390.717 410.785 389.155 412.814C387.593 414.842 386.777 417.347 386.845 419.907C387.018 483.872 406.231 546.337 442.038 599.343L442.093 629.75ZM532.706 658.487L530.534 660.158L528.306 658.487C492.508 631.55 463.193 596.941 442.512 557.2C421.831 517.458 410.308 473.592 408.789 428.817L436.635 422.635C474.055 414.276 507.28 392.877 530.367 362.266C553.468 392.803 586.668 414.14 624.043 422.468L651.89 428.65C650.426 473.442 638.946 517.336 618.293 557.11C597.639 596.883 568.337 631.523 532.539 658.487H532.706Z" fill="#2D59A8"/>
<path d="M595.416 435.843L575.757 425.93L568.071 440.855C551.026 430.805 530.807 427.586 511.484 431.845C492.161 436.104 475.169 447.525 463.929 463.809C452.689 480.092 448.036 500.03 450.906 519.606C453.776 539.183 463.957 556.946 479.398 569.318C494.839 581.691 514.395 587.754 534.127 586.287C553.859 584.821 572.304 575.934 585.746 561.415C599.189 546.896 606.632 527.823 606.576 508.037C606.521 488.251 598.971 469.221 585.447 454.778L595.416 435.843ZM585.614 508.241C585.735 520.548 581.775 532.548 574.354 542.367C566.932 552.185 556.467 559.269 544.594 562.511C532.72 565.753 520.108 564.97 508.726 560.286C497.344 555.601 487.835 547.279 481.684 536.618C475.533 525.958 473.087 513.56 474.728 501.362C476.368 489.165 482.004 477.854 490.753 469.198C499.502 460.542 510.873 455.027 523.088 453.517C535.303 452.006 547.674 454.584 558.269 460.848L528.473 520.493L506.196 490.531L488.541 503.841L521.957 548.004C522.995 549.37 524.334 550.478 525.87 551.241C527.406 552.004 529.097 552.402 530.812 552.404H531.759C533.636 552.252 535.441 551.611 536.994 550.547C538.547 549.482 539.795 548.029 540.614 546.334L575.645 476.274C582.265 485.614 585.791 496.794 585.726 508.241H585.614Z" fill="#3293D0"/>
</svg>
