<svg width="577" height="575" viewBox="0 0 577 575" fill="none" xmlns="http://www.w3.org/2000/svg">
<g clip-path="url(#clip0)">
<path d="M353.964 219.86H381.809C386.629 219.846 391.247 217.919 394.65 214.504C398.053 211.089 399.964 206.463 399.964 201.641V156.009C399.971 153.619 399.507 151.251 398.598 149.04C397.689 146.83 396.353 144.821 394.666 143.129C392.98 141.436 390.976 140.093 388.77 139.177C386.563 138.261 384.198 137.789 381.809 137.789H353.964C349.135 137.789 344.503 139.709 341.088 143.125C337.673 146.542 335.754 151.176 335.754 156.009V201.864C335.769 206.691 337.692 211.317 341.104 214.731C344.516 218.144 349.139 220.068 353.964 220.083V219.86ZM352.684 156.009C352.676 155.836 352.704 155.663 352.765 155.501C352.826 155.339 352.919 155.191 353.038 155.066C353.158 154.941 353.302 154.842 353.461 154.774C353.62 154.706 353.791 154.671 353.964 154.671H381.809C382.154 154.686 382.48 154.833 382.718 155.082C382.957 155.331 383.09 155.663 383.09 156.009V201.864C383.09 202.204 382.955 202.53 382.715 202.77C382.475 203.01 382.149 203.145 381.809 203.145H353.964C353.625 203.145 353.299 203.01 353.059 202.77C352.818 202.53 352.684 202.204 352.684 201.864V156.009Z" fill="#3293D0"/>
<path d="M353.964 477.321H381.809C384.198 477.321 386.563 476.85 388.77 475.933C390.976 475.017 392.98 473.674 394.666 471.982C396.353 470.289 397.689 468.28 398.598 466.07C399.507 463.86 399.971 461.492 399.964 459.102V413.247C399.964 408.424 398.053 403.799 394.65 400.383C391.247 396.968 386.629 395.042 381.809 395.027H353.964C349.139 395.042 344.516 396.966 341.104 400.38C337.692 403.794 335.769 408.419 335.754 413.247V459.102C335.754 463.934 337.673 468.568 341.088 471.985C344.503 475.402 349.135 477.321 353.964 477.321ZM352.684 413.247C352.676 413.074 352.704 412.901 352.765 412.739C352.826 412.577 352.919 412.429 353.038 412.304C353.158 412.179 353.302 412.08 353.461 412.012C353.62 411.944 353.791 411.909 353.964 411.91H381.809C382.154 411.924 382.48 412.071 382.718 412.32C382.957 412.57 383.09 412.902 383.09 413.247V459.102C383.09 459.447 382.957 459.779 382.718 460.028C382.48 460.278 382.154 460.425 381.809 460.439H353.964C353.791 460.439 353.62 460.404 353.461 460.337C353.302 460.269 353.158 460.169 353.038 460.044C352.919 459.919 352.826 459.771 352.765 459.609C352.704 459.447 352.676 459.275 352.684 459.102V413.247Z" fill="#3293D0"/>
<path d="M353.964 348.615H381.809C386.629 348.601 391.247 346.675 394.65 343.259C398.053 339.844 399.964 335.218 399.964 330.396V284.485C399.964 279.663 398.053 275.037 394.65 271.622C391.247 268.206 386.629 266.28 381.809 266.266H353.964C349.139 266.28 344.516 268.205 341.104 271.618C337.692 275.032 335.769 279.658 335.754 284.485V330.396C335.769 335.224 337.692 339.849 341.104 343.263C344.516 346.676 349.139 348.601 353.964 348.615ZM352.684 284.485C352.684 284.145 352.818 283.819 353.059 283.579C353.299 283.339 353.625 283.204 353.964 283.204H381.809C382.149 283.204 382.475 283.339 382.715 283.579C382.955 283.819 383.09 284.145 383.09 284.485V330.396C383.09 330.736 382.955 331.062 382.715 331.302C382.475 331.542 382.149 331.677 381.809 331.677H353.964C353.625 331.677 353.299 331.542 353.059 331.302C352.818 331.062 352.684 330.736 352.684 330.396V284.485Z" fill="#3293D0"/>
<path d="M458.104 219.86H485.949C490.779 219.86 495.411 217.941 498.826 214.524C502.241 211.107 504.159 206.473 504.159 201.641V156.009C504.167 153.614 503.701 151.241 502.788 149.028C501.876 146.814 500.535 144.802 498.842 143.109C497.15 141.416 495.139 140.074 492.926 139.161C490.714 138.248 488.342 137.782 485.949 137.789H458.104C455.715 137.789 453.35 138.261 451.144 139.177C448.937 140.093 446.934 141.436 445.247 143.129C443.56 144.821 442.224 146.83 441.315 149.041C440.406 151.251 439.942 153.619 439.949 156.009V201.864C439.949 206.686 441.86 211.312 445.263 214.727C448.666 218.142 453.284 220.068 458.104 220.083V219.86ZM456.656 156.009C456.656 155.663 456.789 155.331 457.028 155.082C457.266 154.833 457.592 154.686 457.937 154.671H485.782C486.136 154.671 486.476 154.812 486.727 155.063C486.978 155.314 487.118 155.654 487.118 156.009V201.864C487.119 202.037 487.084 202.208 487.016 202.367C486.948 202.527 486.849 202.67 486.724 202.79C486.599 202.91 486.451 203.003 486.289 203.064C486.127 203.125 485.955 203.153 485.782 203.145H457.937C457.597 203.145 457.272 203.01 457.031 202.77C456.791 202.53 456.656 202.204 456.656 201.864V156.009Z" fill="#3293D0"/>
<path d="M458.104 477.321H485.949C488.342 477.329 490.714 476.863 492.926 475.95C495.139 475.037 497.15 473.695 498.842 472.001C500.535 470.308 501.876 468.297 502.788 466.083C503.701 463.869 504.167 461.497 504.159 459.102V413.247C504.159 408.415 502.241 403.78 498.826 400.364C495.411 396.947 490.779 395.027 485.949 395.027H458.104C453.284 395.042 448.666 396.968 445.263 400.383C441.86 403.799 439.949 408.424 439.949 413.247V459.102C439.942 461.492 440.406 463.86 441.315 466.07C442.224 468.28 443.56 470.289 445.247 471.982C446.934 473.674 448.937 475.017 451.144 475.933C453.35 476.85 455.715 477.321 458.104 477.321ZM456.656 413.247C456.656 412.902 456.789 412.57 457.028 412.32C457.266 412.071 457.592 411.924 457.937 411.91H485.782C486.136 411.91 486.476 412.051 486.727 412.301C486.978 412.552 487.118 412.892 487.118 413.247V459.102C487.118 459.457 486.978 459.797 486.727 460.047C486.476 460.298 486.136 460.439 485.782 460.439H457.937C457.592 460.425 457.266 460.278 457.028 460.028C456.789 459.779 456.656 459.447 456.656 459.102V413.247Z" fill="#3293D0"/>
<path d="M458.104 348.615H485.949C490.779 348.615 495.41 346.696 498.826 343.279C502.241 339.862 504.159 335.228 504.159 330.396V284.485C504.159 279.653 502.241 275.019 498.826 271.602C495.41 268.185 490.779 266.266 485.949 266.266H458.104C453.284 266.28 448.666 268.206 445.263 271.622C441.86 275.037 439.949 279.663 439.949 284.485V330.396C439.949 335.218 441.86 339.844 445.263 343.259C448.666 346.675 453.284 348.601 458.104 348.615ZM456.656 284.485C456.656 284.145 456.791 283.819 457.031 283.579C457.271 283.339 457.597 283.204 457.937 283.204H485.782C485.955 283.196 486.127 283.224 486.289 283.285C486.451 283.346 486.599 283.439 486.724 283.559C486.849 283.678 486.948 283.822 487.016 283.981C487.084 284.141 487.118 284.312 487.118 284.485V330.396C487.118 330.569 487.084 330.74 487.016 330.9C486.948 331.059 486.849 331.203 486.724 331.322C486.599 331.442 486.451 331.535 486.289 331.596C486.127 331.657 485.955 331.685 485.782 331.677H457.937C457.597 331.677 457.271 331.542 457.031 331.302C456.791 331.062 456.656 330.736 456.656 330.396V284.485Z" fill="#3293D0"/>
<path d="M127.36 266.266H99.5152C94.69 266.28 90.0666 268.205 86.6546 271.618C83.2427 275.032 81.3194 279.658 81.3047 284.485V330.396C81.3194 335.224 83.2427 339.849 86.6546 343.263C90.0666 346.676 94.69 348.601 99.5152 348.615H127.36C132.185 348.601 136.809 346.676 140.221 343.263C143.632 339.849 145.556 335.224 145.57 330.396V284.485C145.556 279.658 143.632 275.032 140.221 271.618C136.809 268.205 132.185 266.28 127.36 266.266ZM128.641 330.396C128.641 330.736 128.506 331.062 128.266 331.302C128.025 331.542 127.7 331.677 127.36 331.677H99.5152C99.1755 331.677 98.8497 331.542 98.6095 331.302C98.3693 331.062 98.2343 330.736 98.2343 330.396V284.485C98.2343 284.145 98.3693 283.819 98.6095 283.579C98.8497 283.339 99.1755 283.204 99.5152 283.204H127.36C127.7 283.204 128.025 283.339 128.266 283.579C128.506 283.819 128.641 284.145 128.641 284.485V330.396Z" fill="#2D59A8"/>
<path d="M127.36 395.027H99.5152C94.69 395.042 90.0666 396.966 86.6546 400.38C83.2427 403.794 81.3194 408.419 81.3047 413.247V459.102C81.3047 463.934 83.2233 468.568 86.6384 471.985C90.0536 475.402 94.6855 477.321 99.5152 477.321H127.36C132.19 477.321 136.822 475.402 140.237 471.985C143.652 468.568 145.57 463.934 145.57 459.102V413.247C145.556 408.419 143.632 403.794 140.221 400.38C136.809 396.966 132.185 395.042 127.36 395.027ZM128.641 459.102C128.648 459.275 128.621 459.447 128.56 459.609C128.499 459.771 128.406 459.919 128.286 460.044C128.166 460.169 128.023 460.269 127.863 460.337C127.704 460.404 127.533 460.439 127.36 460.439H99.5152C99.3422 460.439 99.171 460.404 99.0118 460.337C98.8527 460.269 98.7089 460.169 98.5892 460.044C98.4695 459.919 98.3764 459.771 98.3154 459.609C98.2544 459.447 98.2268 459.275 98.2343 459.102V413.247C98.2268 413.074 98.2544 412.901 98.3154 412.739C98.3764 412.577 98.4695 412.429 98.5892 412.304C98.7089 412.179 98.8527 412.08 99.0118 412.012C99.171 411.944 99.3422 411.909 99.5152 411.91H127.36C127.533 411.909 127.704 411.944 127.863 412.012C128.023 412.08 128.166 412.179 128.286 412.304C128.406 412.429 128.499 412.577 128.56 412.739C128.621 412.901 128.648 413.074 128.641 413.247V459.102Z" fill="#2D59A8"/>
<path d="M231.501 266.266H203.656C198.831 266.28 194.207 268.205 190.795 271.618C187.383 275.032 185.46 279.658 185.445 284.485V330.396C185.46 335.224 187.383 339.849 190.795 343.263C194.207 346.676 198.831 348.601 203.656 348.615H231.501C236.33 348.615 240.962 346.696 244.377 343.279C247.793 339.862 249.711 335.228 249.711 330.396V284.485C249.711 279.653 247.793 275.019 244.377 271.602C240.962 268.185 236.33 266.266 231.501 266.266ZM232.837 330.396C232.837 330.569 232.802 330.74 232.735 330.9C232.667 331.059 232.567 331.203 232.443 331.322C232.318 331.442 232.17 331.535 232.008 331.596C231.846 331.657 231.673 331.685 231.501 331.677H203.656C203.483 331.685 203.31 331.657 203.149 331.596C202.987 331.535 202.839 331.442 202.714 331.322C202.589 331.203 202.49 331.059 202.422 330.9C202.354 330.74 202.319 330.569 202.319 330.396V284.485C202.319 284.312 202.354 284.141 202.422 283.981C202.49 283.822 202.589 283.678 202.714 283.559C202.839 283.439 202.987 283.346 203.149 283.285C203.31 283.224 203.483 283.196 203.656 283.204H231.501C231.673 283.196 231.846 283.224 232.008 283.285C232.17 283.346 232.318 283.439 232.443 283.559C232.567 283.678 232.667 283.822 232.735 283.981C232.802 284.141 232.837 284.312 232.837 284.485V330.396Z" fill="#2D59A8"/>
<path d="M231.501 395.027H203.656C198.831 395.042 194.207 396.966 190.795 400.38C187.383 403.794 185.46 408.419 185.445 413.247V459.102C185.445 461.495 185.916 463.864 186.831 466.074C187.747 468.285 189.088 470.293 190.779 471.985C192.47 473.677 194.478 475.019 196.687 475.935C198.896 476.85 201.264 477.321 203.656 477.321H231.501C233.894 477.329 236.265 476.863 238.478 475.95C240.691 475.037 242.701 473.695 244.394 472.001C246.086 470.308 247.427 468.297 248.34 466.083C249.252 463.869 249.718 461.497 249.711 459.102V413.247C249.711 408.415 247.793 403.78 244.377 400.364C240.962 396.947 236.33 395.027 231.501 395.027ZM232.837 459.102C232.837 459.457 232.696 459.797 232.446 460.047C232.195 460.298 231.855 460.439 231.501 460.439H203.656C203.301 460.439 202.961 460.298 202.711 460.047C202.46 459.797 202.319 459.457 202.319 459.102V413.247C202.319 412.892 202.46 412.552 202.711 412.301C202.961 412.051 203.301 411.91 203.656 411.91H231.501C231.855 411.91 232.195 412.051 232.446 412.301C232.696 412.552 232.837 412.892 232.837 413.247V459.102Z" fill="#2D59A8"/>
<path d="M235.789 80.2326C238.963 80.2245 242.05 79.1886 244.588 77.2796L257.897 67.2505C259.451 66.029 260.747 64.5109 261.71 62.7844C262.672 61.0578 263.283 59.1572 263.506 57.1928C263.728 55.2284 263.559 53.2392 263.007 51.3408C262.456 49.4424 261.533 47.6725 260.292 46.1337C248.842 31.9598 234.415 20.4795 218.035 12.5069C201.655 4.5342 183.722 0.264342 165.508 0C147.312 0.272968 129.399 4.54727 113.038 12.5199C96.6768 20.4925 82.2692 31.9683 70.836 46.1337C69.5808 47.6663 68.6455 49.435 68.0853 51.3355C67.5252 53.2359 67.3516 55.2295 67.5749 57.1982C67.7982 59.1669 68.4137 61.0709 69.3851 62.7975C70.3566 64.5241 71.6642 66.0382 73.2307 67.2505L86.4848 77.2796C89.4715 79.5325 93.2065 80.5568 96.924 80.1424C100.641 79.728 104.06 77.9063 106.477 75.0509C113.62 66.2063 122.599 59.0197 132.791 53.9883C142.983 48.957 154.147 46.201 165.508 45.9109C176.881 46.1855 188.057 48.9344 198.261 53.9666C208.465 58.9988 217.451 66.1935 224.595 75.0509C225.966 76.6699 227.672 77.9717 229.595 78.8663C231.518 79.761 233.612 80.2271 235.733 80.2326H235.789ZM165.508 29.0286C152.048 29.2612 138.792 32.3634 126.624 38.1282C114.457 43.8929 103.659 52.1876 94.9496 62.4588L85.2596 55.1599C95.0904 43.3604 107.347 33.8188 121.195 27.1847C135.043 20.5506 150.157 16.9797 165.508 16.7151C180.867 16.9827 195.988 20.5546 209.845 27.1882C223.702 33.8219 235.969 43.3618 245.813 55.1599L236.123 62.5145C227.408 52.2364 216.6 43.9375 204.423 38.1725C192.245 32.4075 178.978 29.3091 165.508 29.0843V29.0286Z" fill="#3293D0"/>
<path d="M200.814 115.161C204.004 115.202 207.119 114.183 209.668 112.264L222.756 102.179C224.345 100.954 225.669 99.4175 226.645 97.6633C227.621 95.9092 228.229 93.9743 228.433 91.977C228.636 89.9796 228.43 87.9618 227.827 86.0468C227.225 84.1318 226.238 82.3599 224.927 80.8394C217.609 72.1517 208.482 65.1684 198.184 60.378C187.887 55.5875 176.668 53.1055 165.312 53.1055C153.956 53.1055 142.736 55.5875 132.439 60.378C122.142 65.1684 113.015 72.1517 105.696 80.8394C104.378 82.3564 103.385 84.1276 102.777 86.0436C102.17 87.9596 101.962 89.9799 102.165 91.9795C102.369 93.9792 102.98 95.916 103.961 97.6702C104.942 99.4245 106.271 100.959 107.868 102.179L121.178 112.264C123.734 114.177 126.84 115.213 130.032 115.217C132.014 115.214 133.974 114.807 135.793 114.022C137.612 113.236 139.252 112.088 140.613 110.648C143.635 107.041 147.409 104.141 151.671 102.151C155.934 100.161 160.58 99.1292 165.284 99.1292C169.987 99.1292 174.634 100.161 178.896 102.151C183.159 104.141 186.933 107.041 189.954 110.648C191.323 112.09 192.973 113.236 194.803 114.012C196.633 114.788 198.603 115.18 200.591 115.161H200.814ZM165.507 82.1766C158.861 82.2551 152.297 83.655 146.198 86.2951C140.098 88.9351 134.584 92.7625 129.977 97.5545L120.231 90.1999C125.972 83.898 132.964 78.8638 140.76 75.4193C148.556 71.9747 156.984 70.1956 165.507 70.1956C174.029 70.1956 182.458 71.9747 190.254 75.4193C198.05 78.8638 205.042 83.898 210.782 90.1999L201.037 97.5545C196.429 92.7625 190.915 88.9351 184.815 86.2951C178.716 83.655 172.152 82.2551 165.507 82.1766Z" fill="#3293D0"/>
<path d="M165.512 111.434C160.489 111.434 155.579 112.924 151.403 115.715C147.227 118.507 143.972 122.475 142.05 127.118C140.128 131.76 139.625 136.869 140.605 141.797C141.585 146.726 144.004 151.253 147.555 154.806C151.107 158.359 155.631 160.779 160.557 161.759C165.483 162.74 170.589 162.237 175.23 160.314C179.87 158.391 183.836 155.134 186.626 150.956C189.417 146.778 190.906 141.866 190.906 136.841C190.906 130.102 188.231 123.64 183.468 118.875C178.706 114.11 172.247 111.434 165.512 111.434ZM165.512 145.31C163.837 145.31 162.201 144.813 160.809 143.882C159.417 142.952 158.332 141.629 157.691 140.082C157.05 138.534 156.883 136.831 157.209 135.188C157.536 133.546 158.342 132.036 159.526 130.852C160.71 129.668 162.218 128.861 163.86 128.534C165.502 128.208 167.204 128.375 168.751 129.016C170.298 129.657 171.62 130.743 172.55 132.135C173.48 133.528 173.976 135.166 173.976 136.841C173.862 139.009 172.92 141.05 171.345 142.543C169.77 144.036 167.682 144.867 165.512 144.864V145.31Z" fill="#3293D0"/>
<path d="M499.48 42.8536C498.269 42.6551 497.029 42.7224 495.846 43.051C494.664 43.3797 493.567 43.9617 492.631 44.7567C491.696 45.5517 490.944 46.5408 490.429 47.6553C489.914 48.7699 489.647 49.9832 489.647 51.2112C489.647 52.4392 489.914 53.6525 490.429 54.767C490.944 55.8816 491.696 56.8706 492.631 57.6657C493.567 58.4607 494.664 59.0427 495.846 59.3713C497.029 59.6999 498.269 59.7673 499.48 59.5687H547.15C548.333 59.5614 549.504 59.788 550.599 60.2355C551.693 60.683 552.688 61.3426 553.526 62.1763C554.365 63.0101 555.03 64.0014 555.484 65.0934C555.938 66.1854 556.172 67.3565 556.172 68.5392V87.7059C556.18 88.8932 555.951 90.0703 555.5 91.1688C555.05 92.2672 554.385 93.2652 553.546 94.1048C552.707 94.9444 551.709 95.609 550.612 96.06C549.514 96.511 548.337 96.7394 547.15 96.732H292.76C290.45 96.675 288.251 95.7275 286.621 94.0872C284.992 92.4469 284.059 90.2407 284.017 87.9287V68.7621C284.017 67.5793 284.251 66.4083 284.705 65.3163C285.159 64.2243 285.824 63.2329 286.663 62.3992C287.501 61.5655 288.496 60.9059 289.59 60.4584C290.685 60.0109 291.857 59.7843 293.039 59.7916H465.677C467.658 59.4668 469.459 58.448 470.759 56.9171C472.059 55.3861 472.773 53.4428 472.773 51.434C472.773 49.4253 472.059 47.482 470.759 45.951C469.459 44.4201 467.658 43.4013 465.677 43.0765H292.76C285.887 43.0765 279.295 45.8043 274.43 50.6615C269.564 55.5187 266.824 62.1085 266.809 68.9849V88.1516C266.815 93.5495 268.502 98.8114 271.636 103.205C274.77 107.599 279.195 110.906 284.295 112.667V173.956H38.3144C31.4317 173.956 24.8309 176.691 19.9641 181.561C15.0972 186.43 12.3631 193.034 12.3631 199.92V219.087C12.3773 224.483 14.0678 229.741 17.2007 234.133C20.3337 238.525 24.754 241.834 29.8496 243.602V498.062C21.9427 498.062 14.3587 501.201 8.76242 506.789C3.16613 512.378 0.0147518 519.96 0 527.871L0 566.873C0.0147065 569.109 0.913021 571.249 2.49889 572.825C4.08476 574.401 6.22943 575.286 8.46482 575.286H568.535C570.771 575.286 572.915 574.401 574.501 572.825C576.087 571.249 576.985 569.109 577 566.873V527.871C576.997 521.435 574.912 515.174 571.058 510.022C567.203 504.87 561.786 501.104 555.615 499.288V112.444C560.72 110.691 565.15 107.385 568.285 102.99C571.42 98.5943 573.104 93.3286 573.102 87.9287V68.7621C573.087 61.8856 570.346 55.2958 565.481 50.4386C560.616 45.5815 554.023 42.8536 547.15 42.8536H499.48ZM284.351 377.88C284.615 379.946 285.607 381.849 287.149 383.248C288.69 384.648 290.68 385.451 292.76 385.514C294.982 385.457 297.096 384.544 298.663 382.967C300.229 381.389 301.127 379.268 301.169 377.045V113.893H538.741V498.341H301.169V410.865C301.368 409.653 301.301 408.412 300.972 407.229C300.644 406.046 300.062 404.948 299.267 404.012C298.473 403.077 297.484 402.325 296.37 401.809C295.256 401.294 294.043 401.026 292.816 401.026C291.589 401.026 290.376 401.294 289.262 401.809C288.148 402.325 287.159 403.077 286.365 404.012C285.57 404.948 284.988 406.046 284.66 407.229C284.331 408.412 284.264 409.653 284.463 410.865V498.062H46.7793V244.661H284.295V377.045C284.268 377.322 284.268 377.602 284.295 377.88H284.351ZM29.2927 218.752V199.586C29.3073 197.196 30.2625 194.909 31.9513 193.219C33.64 191.53 35.9263 190.574 38.3144 190.56H284.295V227.779H38.3144C35.9263 227.764 33.64 226.808 31.9513 225.119C30.2625 223.429 29.3073 221.142 29.2927 218.752ZM560.07 527.871V558.125H16.7069V527.871C16.7069 524.452 18.0604 521.173 20.4713 518.75C22.8823 516.327 26.1542 514.959 29.5712 514.944H546.928C550.354 514.944 553.64 516.306 556.063 518.73C558.486 521.154 559.848 524.442 559.848 527.871H560.07Z" fill="#2D59A8"/>
</g>
<defs>
<clipPath id="clip0">
<rect width="577" height="575" fill="white"/>
</clipPath>
</defs>
</svg>
