<svg width="546" height="546" viewBox="0 0 546 546" fill="none" xmlns="http://www.w3.org/2000/svg">
<g filter="url(#filter0_d)">
<circle cx="273" cy="273" r="223" fill="white"/>
<circle cx="273" cy="273" r="222.5" stroke="#EEEEEE"/>
</g>
<path d="M254.24 338.887C245.404 344.676 234.74 348.027 223.467 348.027C212.194 348.027 201.53 344.676 192.694 338.887C175.023 344.371 161.617 359.605 158.874 379.105L157.046 401.956C156.437 408.659 161.921 414.448 168.624 414.448H277.7C284.403 414.448 289.888 408.659 289.278 401.956L287.45 379.105C285.622 359.91 271.911 344.371 254.24 338.887Z" fill="#2D59A8"/>
<path d="M223.476 333.401C246.361 333.401 264.912 314.849 264.912 291.964C264.912 269.079 246.361 250.527 223.476 250.527C200.591 250.527 182.039 269.079 182.039 291.964C182.039 314.849 200.591 333.401 223.476 333.401Z" fill="#2D59A8"/>
<path d="M372.158 125H271.308C262.473 125 255.16 132.312 255.16 141.148V225.85C255.16 234.685 262.473 241.998 271.308 241.998H286.238V268.81C286.238 273.989 292.636 276.731 296.292 273.075L328.588 241.998H371.853C380.689 241.998 388.001 234.685 388.001 225.85V141.148C388.001 132.312 380.994 125 372.158 125ZM357.533 175.882L341.69 189.593C340.776 190.202 340.471 191.421 340.776 192.335L345.651 212.748C346.26 215.186 343.518 217.014 341.385 215.795L323.409 204.827C322.495 204.217 321.276 204.217 320.362 204.827L302.386 215.795C300.253 217.014 297.511 215.186 298.12 212.748L302.995 192.335C303.3 191.421 302.995 190.202 302.081 189.593L286.238 175.882C284.41 174.358 285.324 171.007 287.761 171.007L308.784 169.179C309.698 169.179 310.917 168.569 311.222 167.351L319.448 147.851C320.362 145.414 323.714 145.414 324.628 147.851L332.854 167.351C333.159 168.265 334.073 168.874 335.291 169.179L356.314 171.007C358.447 171.312 359.361 174.358 357.533 175.882Z" fill="#3293D0"/>
<defs>
<filter id="filter0_d" x="0" y="0" width="546" height="546" filterUnits="userSpaceOnUse" color-interpolation-filters="sRGB">
<feFlood flood-opacity="0" result="BackgroundImageFix"/>
<feColorMatrix in="SourceAlpha" type="matrix" values="0 0 0 0 0 0 0 0 0 0 0 0 0 0 0 0 0 0 127 0"/>
<feOffset/>
<feGaussianBlur stdDeviation="25"/>
<feColorMatrix type="matrix" values="0 0 0 0 0 0 0 0 0 0 0 0 0 0 0 0 0 0 0.15 0"/>
<feBlend mode="normal" in2="BackgroundImageFix" result="effect1_dropShadow"/>
<feBlend mode="normal" in="SourceGraphic" in2="effect1_dropShadow" result="shape"/>
</filter>
</defs>
</svg>
