<svg width="16" height="16" viewBox="0 0 16 16" fill="none" xmlns="http://www.w3.org/2000/svg">
<path d="M15.8359 13.4449C14.9295 15.6182 12.8046 15.9991 12.1102 15.9991C11.9063 15.9991 8.73062 16.1675 4.16565 11.8363C0.491882 8.35059 0.0429948 4.60225 0.00388377 3.89007C-0.0341606 3.19638 0.164417 1.4562 2.55766 0.163251C2.85419 0.0030318 3.4421 -0.0679197 3.59392 0.0839414C3.6613 0.151336 5.67001 3.4576 5.72281 3.56714C5.77561 3.6765 5.8021 3.78427 5.8021 3.88989C5.8021 4.04086 5.69454 4.22971 5.47925 4.45626C5.26414 4.68281 5.03019 4.8905 4.77721 5.07917C4.52423 5.26802 4.29028 5.46807 4.07499 5.67951C3.85988 5.89076 3.75232 6.06467 3.75232 6.20053C3.7669 6.55315 4.05579 7.81623 6.25649 9.75041C8.45756 11.6851 9.51782 12.2302 9.61969 12.2679C9.72173 12.3056 9.80653 12.3242 9.87444 12.3242C10.0104 12.3242 10.1841 12.2168 10.3955 12.0017C10.6067 11.7863 11.3173 10.8122 11.5438 10.5969C11.7703 10.3819 11.9591 10.2743 12.1102 10.2743C12.2158 10.2743 12.3233 10.3006 12.4327 10.3534C12.5422 10.4062 15.8519 12.3434 15.9151 12.4082C16.0869 12.5842 15.9656 13.1337 15.8359 13.4449Z" fill="black"/>
</svg>
