<svg width="807" height="807" viewBox="0 0 807 807" fill="none" xmlns="http://www.w3.org/2000/svg">
<g clip-path="url(#clip0)">
<path d="M0 750.232V299.425C0.379865 299.084 0.683338 298.667 0.890483 298.2C11.0754 259.91 34.2836 242.156 73.5761 242.156H296.197V231.47C296.197 168.746 296.197 105.967 296.197 43.2441C295.74 36.7995 296.86 30.3407 299.458 24.4257C302.057 18.5107 306.057 13.3173 311.112 9.29441C316.412 5.74165 321.997 2.63293 327.809 0L479.135 0C503.568 8.45959 512.028 25.9353 511.304 51.0915C510.247 111.477 510.97 171.919 510.97 232.305V242.211H549.929C612.207 242.211 674.429 242.211 736.708 242.211C773.106 242.211 797.372 261.802 805.998 297.421C806.291 298.141 806.684 298.816 807.167 299.425V748.618L805.33 755.296C802.86 765.692 797.932 775.343 790.959 783.439C783.986 791.535 775.173 797.84 765.259 801.824C759.89 803.848 754.408 805.558 748.84 806.944H58.7162C56.7126 806.388 54.7647 805.776 52.7611 805.275C41.2526 802.694 30.6327 797.112 21.9812 789.096C13.3298 781.08 6.95539 770.916 3.50628 759.638C2.05924 756.576 1.05745 753.404 0 750.232ZM242.156 269.148H72.3517C43.0215 269.148 27.1597 285.121 27.1597 314.452C27.1597 454.48 27.1597 594.49 27.1597 734.481C27.1597 764.034 43.3554 780.174 72.9639 780.119H734.648C763.923 780.119 780.119 764.034 780.119 734.871V314.062C780.119 285.121 764.201 269.148 735.594 269.148H574.194C571.412 269.148 568.629 269.148 565.178 269.594V278.888C565.178 297.811 565.178 316.734 565.178 335.601C565.315 341.11 564.314 346.588 562.237 351.693C560.161 356.798 557.054 361.42 553.11 365.27C549.166 369.119 544.471 372.114 539.318 374.067C534.164 376.019 528.663 376.888 523.159 376.619C517.148 376.619 511.081 376.619 505.071 376.619H284.342C278.804 376.899 273.269 376.027 268.085 374.057C262.902 372.088 258.183 369.064 254.228 365.178C250.274 361.291 247.169 356.626 245.11 351.477C243.051 346.329 242.083 340.809 242.267 335.267C241.989 316.344 242.267 297.421 242.267 278.554L242.156 269.148ZM484.2 295.64V288.016C484.2 206.87 484.2 125.706 484.2 44.5241C484.2 31.0556 479.859 26.8814 466.112 26.8814H339.831C327.475 26.8814 323.134 31.5565 323.134 44.1346C323.134 124.797 323.134 205.442 323.134 286.068V295.64H484.2ZM511.137 269.649C511.137 278.22 511.137 286.346 511.137 294.36C511.378 298.186 510.797 302.02 509.432 305.602C508.066 309.185 505.949 312.433 503.222 315.128C500.495 317.823 497.223 319.902 493.625 321.226C490.027 322.549 486.187 323.086 482.363 322.8C430.122 322.8 377.899 322.8 325.694 322.8C306.604 322.8 296.141 311.669 296.03 292.858C296.03 285.066 296.03 277.33 296.03 269.482H269.148C269.148 291.41 269.148 312.893 269.148 334.321C269.148 344.728 274.213 349.626 284.788 349.626H521.823C532.954 349.626 537.74 344.784 537.852 333.82C537.852 313.895 537.852 293.971 537.852 273.99C537.742 272.488 537.5 270.998 537.128 269.538L511.137 269.649Z" fill="#2D59A8"/>
<path d="M241.991 739.602C194.201 739.602 146.412 739.602 98.6229 739.602C77.0844 739.602 67.4004 729.862 67.4004 708.323C67.4004 617.234 67.4004 526.145 67.4004 435.056C67.4004 413.295 77.307 403.5 99.2908 403.5H386.75C405.951 403.5 416.915 413.908 416.915 432.886C416.915 525.311 416.915 617.735 416.915 710.16C416.915 729.305 406.285 739.546 386.861 739.602C338.627 739.676 290.336 739.676 241.991 739.602ZM178.989 621.501C169.265 612.613 161.497 601.798 156.179 589.744C150.861 577.69 148.11 564.662 148.1 551.487C147.839 538.172 150.51 524.962 155.925 512.795C161.341 500.628 169.367 489.801 179.434 481.083C196.67 465.514 219.07 456.895 242.297 456.895C265.523 456.895 287.924 465.514 305.159 481.083C322.151 495.985 332.935 516.719 335.38 539.187C337.353 554.291 335.629 569.648 330.355 583.938C325.081 598.227 316.416 611.023 305.104 621.223C347.569 637.252 365.378 668.53 363.208 711.83H389.254V430.827H94.894V712.386H121.108C118.603 668.196 137.081 637.697 178.989 621.501ZM309.166 550.986C309.089 537.714 305.079 524.762 297.642 513.769C290.205 502.775 279.676 494.233 267.385 489.223C255.095 484.212 241.595 482.958 228.591 485.619C215.588 488.28 203.666 494.736 194.331 504.172C184.997 513.608 178.669 525.599 176.149 538.63C173.628 551.661 175.028 565.147 180.17 577.383C185.313 589.619 193.968 600.055 205.041 607.373C216.114 614.691 229.108 618.562 242.38 618.496C260.178 618.364 277.198 611.185 289.715 598.533C302.231 585.88 309.226 568.784 309.166 550.986ZM148.713 712.386H335.269C340.834 674.485 317.236 646.157 279.614 645.6C254.68 645.6 229.765 645.6 204.869 645.6C199.616 645.513 194.37 646.017 189.23 647.103C160.511 654.227 144.705 679.271 148.713 712.386Z" fill="#3293D0"/>
<path d="M597.958 457.21C556.217 457.21 514.475 457.21 472.789 457.21C466.445 457.21 460.712 455.429 458.931 449.251C458.253 447.109 458.032 444.848 458.281 442.614C458.53 440.381 459.245 438.224 460.378 436.284C464.045 432.823 468.862 430.841 473.903 430.718C500.673 430.217 527.443 430.44 554.213 430.44H722.626C732.866 430.44 738.487 434.391 739.322 442.072C740.38 450.977 734.591 457.154 724.629 457.21C696.802 457.21 668.974 457.21 641.146 457.21H597.847H597.958Z" fill="#3293D0"/>
<path d="M557.999 712.662C529.17 712.662 500.285 712.662 471.4 712.662C469.626 712.782 467.847 712.543 466.168 711.959C464.49 711.375 462.947 710.457 461.631 709.262C460.316 708.066 459.256 706.617 458.515 705.002C457.774 703.386 457.367 701.638 457.319 699.861C457.304 698.02 457.657 696.195 458.358 694.493C459.059 692.79 460.093 691.246 461.4 689.949C462.707 688.653 464.26 687.631 465.968 686.943C467.675 686.256 469.503 685.917 471.344 685.947C473.181 685.947 475.017 685.947 476.909 685.947H640.035C642.13 685.835 644.229 685.835 646.324 685.947C648.101 686.025 649.844 686.456 651.453 687.214C653.062 687.972 654.504 689.043 655.695 690.363C656.886 691.684 657.803 693.229 658.392 694.907C658.98 696.585 659.229 698.364 659.124 700.139C659.061 701.838 658.658 703.507 657.94 705.048C657.222 706.588 656.202 707.97 654.942 709.111C653.682 710.252 652.206 711.129 650.602 711.691C648.998 712.253 647.297 712.488 645.6 712.383C626.733 712.383 607.81 712.383 588.943 712.383H558.222L557.999 712.662Z" fill="#0775BD"/>
<path d="M537.464 578.427C559.002 578.427 580.541 578.427 602.079 578.427C612.598 578.427 618.776 583.547 618.776 592.063C618.776 600.578 612.654 605.197 602.525 605.253C559.744 605.253 516.946 605.253 474.128 605.253C463.776 605.253 457.432 599.687 457.432 591.506C457.432 583.325 463.776 578.427 473.739 578.427C494.943 578.371 516.203 578.427 537.464 578.427Z" fill="#3293D0"/>
<path d="M504.404 524.661C515.146 524.661 525.943 524.661 536.684 524.661C538.513 524.494 540.356 524.699 542.103 525.264C543.85 525.83 545.465 526.743 546.848 527.95C548.232 529.157 549.357 530.632 550.155 532.286C550.952 533.94 551.406 535.739 551.488 537.573C551.51 539.485 551.133 541.381 550.38 543.139C549.628 544.897 548.517 546.479 547.118 547.783C545.72 549.087 544.064 550.086 542.258 550.714C540.452 551.342 538.535 551.586 536.629 551.431C515.146 551.431 493.644 551.431 472.124 551.431C470.218 551.579 468.302 551.327 466.498 550.692C464.695 550.056 463.044 549.052 461.651 547.742C460.257 546.433 459.153 544.847 458.407 543.087C457.661 541.326 457.291 539.429 457.32 537.518C457.402 535.68 457.857 533.879 458.659 532.223C459.46 530.568 460.591 529.094 461.982 527.89C463.373 526.687 464.995 525.78 466.748 525.225C468.502 524.669 470.35 524.478 472.18 524.661C482.921 524.55 493.663 524.661 504.404 524.661Z" fill="#3293D0"/>
<path d="M490.433 658.908C483.921 658.908 477.354 658.908 470.842 658.908C469.019 659.026 467.191 658.769 465.472 658.152C463.752 657.536 462.178 656.573 460.845 655.324C459.512 654.074 458.45 652.565 457.724 650.889C456.998 649.213 456.623 647.406 456.623 645.579C456.623 643.752 456.998 641.945 457.724 640.269C458.45 638.593 459.512 637.083 460.845 635.834C462.178 634.585 463.752 633.622 465.472 633.005C467.191 632.389 469.019 632.132 470.842 632.249C484.162 631.99 497.501 631.99 510.858 632.249C512.681 632.132 514.509 632.389 516.228 633.005C517.948 633.622 519.522 634.585 520.855 635.834C522.188 637.083 523.25 638.593 523.976 640.269C524.702 641.945 525.077 643.752 525.077 645.579C525.077 647.406 524.702 649.213 523.976 650.889C523.25 652.565 522.188 654.074 520.855 655.324C519.522 656.573 517.948 657.536 516.228 658.152C514.509 658.769 512.681 659.026 510.858 658.908C504.068 659.131 497.278 658.964 490.433 658.908Z" fill="#3293D0"/>
</g>
<defs>
<clipPath id="clip0">
<rect width="807" height="807" fill="white"/>
</clipPath>
</defs>
</svg>
