<svg width="618" height="628" viewBox="0 0 618 628" fill="none" xmlns="http://www.w3.org/2000/svg">
<path d="M496.693 405.258C489.629 405.258 483.794 399.67 483.574 392.593C483.348 385.375 489.043 379.343 496.293 379.119C549.415 377.473 591.028 333.727 591.028 279.528C591.028 225.518 545.932 181.578 490.503 181.578C490.272 181.578 490.044 181.588 489.816 181.596C489.476 181.608 489.136 181.618 488.796 181.623C484.89 181.686 481.151 180.017 478.605 177.064C476.06 174.109 474.967 170.179 475.628 166.344C476.784 159.634 477.369 152.889 477.369 146.299C477.369 80.0462 422.076 26.1444 354.111 26.1444C306.863 26.1444 264.497 51.8325 243.548 93.1857C240.41 99.377 232.96 102.052 226.577 99.2855C216.582 94.9545 205.956 92.757 194.989 92.757C152.093 92.757 117.197 126.737 117.197 168.502C117.197 168.842 117.211 169.179 117.223 169.515L117.25 170.39C117.411 176.75 112.948 182.299 106.68 183.54C60.085 192.758 26.2678 233.125 26.2678 279.528C26.2678 325.547 55.3135 367.122 95.5795 379.112H123.459C130.713 379.112 136.593 384.966 136.593 392.185C136.593 399.404 130.713 405.258 123.459 405.258H93.7289C92.5442 405.258 91.3661 405.098 90.2248 404.784C37.9452 390.376 0 337.699 0 279.528C0 224.183 37.7929 175.639 91.2545 160.383C95.4954 107.982 140.4 66.6139 194.987 66.6139C205.541 66.6139 215.865 68.1447 225.809 71.175C237.824 51.554 254.397 34.9058 274.266 22.5977C298.133 7.81363 325.742 0 354.11 0C436.558 0 503.636 65.6295 503.636 146.301C503.636 149.532 503.522 152.79 503.293 156.06C567.221 162.357 617.294 215.328 617.294 279.528C617.294 347.94 564.504 403.165 497.11 405.251C496.97 405.255 496.831 405.258 496.693 405.258Z" fill="#2D59A8"/>
<path d="M110.319 483.695H84.0508V509.841H110.319V483.695Z" fill="#3293D0"/>
<path d="M149.705 483.695H123.438V509.841H149.705V483.695Z" fill="#2D59A8"/>
<path d="M189.092 483.695H162.824V509.841H189.092V483.695Z" fill="#3293D0"/>
<path d="M228.561 483.695H202.293V509.841H228.561V483.695Z" fill="#2D59A8"/>
<path d="M438.673 196.091C431.42 196.091 425.539 190.238 425.539 183.018C425.539 175.798 431.42 169.945 438.673 169.945C445.926 169.945 451.807 175.798 451.807 183.018C451.807 190.238 445.926 196.091 438.673 196.091Z" fill="#2D59A8"/>
<path d="M438.647 156.873C431.603 156.873 425.775 151.317 425.528 144.255C423.627 89.875 378.508 78.554 376.587 78.099C369.511 76.512 365.106 69.5233 366.702 62.4809C368.297 55.4373 375.37 51.0278 382.44 52.6109C384.192 53.0044 400.026 56.823 416.386 69.6919C431.781 81.8026 450.418 104.413 451.78 143.346C452.033 150.562 446.36 156.614 439.112 156.865C438.955 156.871 438.8 156.873 438.647 156.873Z" fill="#3293D0"/>
<path d="M313.2 457.582C236.2 457.582 162.961 409.704 112.261 326.225C109.736 322.066 109.736 316.858 112.261 312.7C162.962 229.22 236.201 181.344 313.2 181.344C390.199 181.344 463.438 229.222 514.137 312.7C516.663 316.858 516.663 322.068 514.137 326.225C463.438 409.704 390.199 457.582 313.2 457.582ZM138.953 319.462C184.509 390.737 247.66 431.436 313.2 431.436C378.737 431.436 441.889 390.737 487.445 319.462C441.889 248.188 378.737 207.488 313.2 207.488C247.662 207.488 184.51 248.186 138.953 319.462Z" fill="#2D59A8"/>
<path d="M313.872 418.331C259.556 418.331 215.367 374.347 215.367 320.285C215.367 266.222 259.556 222.238 313.872 222.238C368.187 222.238 412.376 266.222 412.376 320.285C412.376 374.347 368.187 418.331 313.872 418.331ZM313.872 248.384C274.04 248.384 241.635 280.639 241.635 320.285C241.635 359.93 274.04 392.185 313.872 392.185C353.703 392.185 386.108 359.93 386.108 320.285C386.108 280.639 353.703 248.384 313.872 248.384Z" fill="#3293D0"/>
<path d="M313.875 366.037C288.528 366.037 267.906 345.512 267.906 320.282C267.906 313.062 273.786 307.209 281.04 307.209C288.294 307.209 294.174 313.062 294.174 320.282C294.174 331.095 303.012 339.892 313.875 339.892C324.738 339.892 333.576 331.095 333.576 320.282C333.576 309.47 324.738 300.673 313.875 300.673C306.621 300.673 300.741 294.82 300.741 287.6C300.741 280.38 306.621 274.527 313.875 274.527C339.222 274.527 359.844 295.053 359.844 320.282C359.844 345.512 339.222 366.037 313.875 366.037Z" fill="#3293D0"/>
<path d="M313.138 562.135C305.884 562.135 300.004 556.281 300.004 549.062V444.479C300.004 437.26 305.884 431.406 313.138 431.406C320.39 431.406 326.272 437.26 326.272 444.479V549.062C326.272 556.281 320.39 562.135 313.138 562.135Z" fill="#2D59A8"/>
<path d="M313.875 627.494C288.528 627.494 267.906 606.969 267.906 581.739C267.906 556.51 288.528 535.984 313.875 535.984C339.222 535.984 359.844 556.51 359.844 581.739C359.844 606.969 339.222 627.494 313.875 627.494ZM313.875 562.13C303.012 562.13 294.174 570.927 294.174 581.739C294.174 592.552 303.012 601.349 313.875 601.349C324.738 601.349 333.576 592.552 333.576 581.739C333.576 570.927 324.738 562.13 313.875 562.13Z" fill="#2D59A8"/>
<path d="M583.154 594.814H346.743C339.491 594.814 333.609 588.96 333.609 581.741C333.609 574.522 339.491 568.668 346.743 568.668H583.154C590.406 568.668 596.288 574.522 596.288 581.741C596.288 588.96 590.406 594.814 583.154 594.814Z" fill="#2D59A8"/>
<path d="M281.052 594.814H44.6417C37.3879 594.814 31.5078 588.96 31.5078 581.741C31.5078 574.522 37.3879 568.668 44.6417 568.668H281.052C288.306 568.668 294.186 574.522 294.186 581.741C294.186 588.96 288.306 594.814 281.052 594.814Z" fill="#2D59A8"/>
<path d="M176.028 210.953C172.389 210.953 168.767 209.457 166.171 206.526C142.027 179.266 107.199 183.09 105.727 183.265C98.5279 184.199 91.974 179.149 91.035 171.989C90.0972 164.829 95.1984 158.265 102.392 157.331C104.414 157.067 152.309 151.337 185.876 189.237C190.673 194.653 190.15 202.914 184.709 207.688C182.212 209.877 179.114 210.953 176.028 210.953Z" fill="#2D59A8"/>
</svg>
